<?xml version="1.0" encoding="UTF-8" standalone="no"?>
<!-- Generator: Adobe Illustrator 15.0.0, SVG Export Plug-In . SVG Version: 6.00 Build 0)  -->

<svg
   xmlns:dc="http://purl.org/dc/elements/1.1/"
   xmlns:cc="http://creativecommons.org/ns#"
   xmlns:rdf="http://www.w3.org/1999/02/22-rdf-syntax-ns#"
   xmlns:svg="http://www.w3.org/2000/svg"
   xmlns="http://www.w3.org/2000/svg"
   xmlns:sodipodi="http://sodipodi.sourceforge.net/DTD/sodipodi-0.dtd"
   xmlns:inkscape="http://www.inkscape.org/namespaces/inkscape"
   version="1.1"
   id="Layer_1"
   x="0px"
   y="0px"
   width="2020.805px"
   height="921.798px"
   viewBox="-505.201 -274.435 2020.805 921.798"
   enable-background="new -505.201 -274.435 2020.805 921.798"
   xml:space="preserve"
   inkscape:version="0.48.3.1 r9886"
   sodipodi:docname="indonesia.svg"><metadata
   id="metadata241"><rdf:RDF><cc:Work
       rdf:about=""><dc:format>image/svg+xml</dc:format><dc:type
         rdf:resource="http://purl.org/dc/dcmitype/StillImage" /></cc:Work></rdf:RDF></metadata><defs
   id="defs239" /><sodipodi:namedview
   pagecolor="#ffffff"
   bordercolor="#666666"
   borderopacity="1"
   objecttolerance="10"
   gridtolerance="10"
   guidetolerance="10"
   inkscape:pageopacity="0"
   inkscape:pageshadow="2"
   inkscape:window-width="1280"
   inkscape:window-height="750"
   id="namedview237"
   showgrid="false"
   inkscape:zoom="0.48"
   inkscape:cx="1023.4822"
   inkscape:cy="447.81934"
   inkscape:window-x="0"
   inkscape:window-y="28"
   inkscape:window-maximized="1"
   inkscape:current-layer="Layer_1" />
<desc
   style="-webkit-tap-highlight-color: rgba(0, 0, 0, 0);"
   id="desc3">Created with Raphaël 2.1.2</desc>
<path
   fill="#FFFFFF"
   stroke="#333333"
   stroke-width="1.4286"
   stroke-linejoin="round"
   d="M-19.527,389.304l3.68-5.402l3.345,1.568  c0,0,1.505,2.963,0.669,3.137c-0.836,0.176,3.345,0.523,3.345,0.523l3.01-3.484l9.198,5.227l4.349-2.266l2.677,1.221L9.07,400.632  l2.51,6.971l-11.038-0.521l-2.175,5.402l2.677,10.631l-2.844,9.41l-3.846-1.395l-7.192-4.705l-6.021-2.09l-7.525,2.613l-4.014-1.57  l-5.185,1.223l-4.181-0.176l-4.684,2.266l-0.836-4.529l-3.345,0.346l0.167-3.137l5.352-2.613l4.516,4.707l4.684-6.623l3.68-5.055  l3.679-1.395l2.008-3.484l1.672-13.596L-19.527,389.304z"
   id="path5" />
<path
   fill="#FFFFFF"
   stroke="#333333"
   stroke-width="1.4286"
   stroke-linejoin="round"
   d="M24.624,392.269h-4.348l-2.175,0.871  l-3.177-0.174l-3.847-3.313l-1.84,10.979l3.011,6.971l4.85,2.441l5.018-2.617l2.676-7.143L24.624,392.269z"
   id="path7" />
<path
   fill="#FFFFFF"
   stroke="#333333"
   stroke-width="1.4286"
   stroke-linejoin="round"
   d="M24.792,391.569l0.669-6.795l6.021,2.787  L37,386.517l4.183,1.916l3.846,6.1l3.68,1.744l2.675,2.961l3.513,0.176l3.68-1.57l2.676,0.176l9.533,5.576l3.68-0.174l2.341-3.834  l4.683,1.742l6.856,8.365l2.509,10.631l7.025,3.836h2.341l-1.505,12.719l-10.035,7.67l-0.167,4.879l6.354,6.273l1.004,7.494h-2.843  l-2.175-0.697l-6.188,5.402l-19.4-3.66h-4.014l-3.68-2.264l-3.01-0.35l-4.349-4.184l-5.52-2.613l-9.03-1.221l-29.435-3.832  l-2.342-1.045l-3.345-0.176l-1.506-4.879l1.673-3.834l5.017-4.357l-0.668-3.135l-2.509-1.396l-3.679,2.268l2.34-10.459l-3.01-10.105  l2.844-5.232l10.87-0.346l5.185,2.613l5.018-2.268l3.011-7.318L24.792,391.569z"
   id="path9" />
<path
   fill="#FFFFFF"
   stroke="#333333"
   stroke-width="1.4286"
   stroke-linejoin="round"
   d="M100.888,423.464l2.676,0.346l1.505,1.396  l3.68-1.918l12.209,4.008h1.505c0,0,6.856-2.264,5.352-2.264s11.54,1.568,11.54,1.568l9.198,2.961l9.7-2.787l6.187,3.658  l4.349-0.348l6.523-6.621l2.676-12.027l4.014-3.658l5.854-1.395l5.854,1.914l1.672,1.396l1.339,5.75l1.672,2.268l2.342,1.568  l7.19,0.348l5.52-2.613l3.847,0.172l3.344,3.664l-3.344,8.189l-1.672,7.668l-0.168,4.529l-5.019,6.273l-2.173,1.396l-7.19-2.094  l-2.342,3.486l1.171,17.08l2.508,3.135l-1.171,4.881l-8.696,5.404l-4.014,2.787l1.171,3.137l-7.359-2.092l-1.337-14.117  l-6.357-2.439l-4.849-2.613l-3.513-5.402h-4.85l-3.847,2.615l-5.854,9.063l-16.725-5.055l-3.01-0.176l-3.178-0.871l-3.68,1.395  l-5.017-4.008h-8.363l-1.672,1.219l-6.856-2.264l-0.67-3.662l-2.676,3.313l-3.512,0.697l-0.836-6.969l-6.689-5.752l0.167-5.404  l9.7-7.145L100.888,423.464z"
   id="path11" />
<path
   fill="#FFFFFF"
   stroke="#333333"
   stroke-width="1.4286"
   stroke-linejoin="round"
   d="M151.896,472.433l6.857-11.85l4.181-0.699  l4.015-0.695l3.512,6.447l10.703,4.879l1.506,8.717l-0.169,6.098l-14.382-4.355l-8.529-5.23L151.896,472.433z"
   id="path13" />
<path
   fill="#6B9B77"
   stroke="#333333"
   stroke-width="1.4286"
   stroke-linejoin="round"
   d="M220.672,420.515l7.331,3.943l3.075-1.232  l4.257,1.727l2.364,3.203l13.956-1.479l3.546,1.725l3.549-0.738l-0.947,3.941l2.367,3.205l-1.184,1.971l2.128,2.221l0.474,3.447  l2.839-1.23l3.548,2.463l-0.236,6.164l-1.894,3.201v2.715l15.373,8.623l4.495,1.234l1.892,0.986l9.224-3.205l10.88,0.738  l3.312-1.479h3.313l3.075-2.463l3.783,0.244l2.364,3.453l10.881,2.955l2.364,1.48l0.237,3.203l-0.945,3.205v3.203l-3.312,13.801  l-0.71,2.219l2.838,3.697l0.237,3.449l1.654,2.959l5.677,2.219l-1.181,4.682l-5.914-1.971l-3.785,0.244l0.947-3.203l-3.313-2.219  l-3.783,1.479l-2.838-1.23l-5.913,0.244l-17.031-8.377l-2.602-0.248l-10.17-6.16l-1.892-0.494l-9.46,1.725l-2.364,3.451  l-4.969-0.984l-4.021,0.244l-2.128,2.467l-16.083-5.178l-3.313,1.48l-2.365-1.725l-8.278-0.494l-4.256-1.973l-2.365-0.244  l-3.312,1.971v3.695l-7.568-3.695l-2.129,0.246l-7.568-2.217l-5.913,1.477l-3.075-3.203l-3.312,1.971l-2.129-1.23l-1.891-3.451  l12.771-8.625l1.184-3.943l-2.131-3.451l-1.892-16.76l3.313-3.699l6.857,2.713l7.332-8.379l0.71-11.338L220.672,420.515z"
   id="path15"
   style="fill:#ffffff" />
<path
   fill="#6B9A77"
   stroke="#333333"
   stroke-width="1.4286"
   stroke-linejoin="round"
   d="M271.521,427.413h27.437l8.514-0.244  l1.657,0.986l5.913-2.219l7.095,5.668l-6.86,1.975l-3.31,0.736l-1.42,4.191l-7.568-0.986l-3.547,2.711l0.234,2.217h-16.317  l-3.313-3.447v3.201l-11.116-2.217l-4.967-2.959v-3.697L271.521,427.413z"
   id="path17"
   style="fill:#ffffff" />
<path
   opacity="0"
   fill="#BFBFB9"
   fill-opacity="0"
   stroke="#333333"
   stroke-width="1.4286"
   stroke-linejoin="round"
   stroke-opacity="0"
   d="  M190.869,490.261l-2.128-7.639l13.009-8.377l-1.892-7.15l-1.421-17.992l3.075-2.711l6.858,2.219l7.568-7.148l4.021-18.977  l4.493-2.463c0,0,95.555,3.695,98.156,5.422c2.602,1.725,0.474,34.012,0.474,34.012l13.479,6.654l2.602,9.611l-4.257,14.049  l4.021,13.309c0,0,5.913,1.48,5.439,3.449c-0.471,1.973-1.892,6.654-1.892,6.654l-8.041-3.695l-4.257,2.219l0.474-7.146  l-2.839-0.986l-3.312,1.723l-3.549-1.971l-3.31,1.479l-31.931-16.266l-10.88,1.723l-0.946,2.711l-7.806-0.736l-2.128,4.436  l-37.607-8.627l-3.31,1.973l0.474,3.943l-18.214-6.654c0,0-2.365,1.725-3.31,2.219C201.039,490.017,190.869,490.261,190.869,490.261  z"
   id="path19" />
<path
   fill="#FFFFFF"
   stroke="#333333"
   stroke-width="1.4286"
   stroke-linejoin="round"
   d="M-115.421,341.894l4.258-3.695l0.945,5.422  l5.44,0.738l8.515-1.725l10.171-22.182l16.556-9.121l15.137-6.408l0.474-6.652l5.677-0.738l3.547-3.945l4.021,0.984l5.203,8.383  l4.258,4.436l6.622,0.738l-0.474,6.162l4.494,8.873l-0.473,4.928l0.945,2.711l-2.602,6.654l2.129,2.467l-5.203,40.666l-4.021,3.203  l-18.212-18.732v3.945l-2.366,2.957l0.474,6.652l-4.729,0.742l-18.449-12.57l-4.967,1.971l5.913,11.092l-0.946,6.408l-3.784-0.246  l-1.893-4.93l-9.933-8.381l0.235-2.463l-12.062-10.6l-0.71-4.189l-4.258-3.203l0.71-2.219l-7.096-4.438L-115.421,341.894z"
   id="path21" />
<path
   fill="#FFFFFF"
   stroke="#333333"
   stroke-width="1.4286"
   stroke-linejoin="round"
   d="M-182.118,248.484l25.544-13.556  l0.709-7.146l9.461-1.479l4.258-4.436l2.365,1.724l2.128,7.641h3.312l7.568-7.641l0.473-6.652l18.686-12.324l14.427,2.217  l4.967,0.494l1.893-3.45l0.946-3.696l6.386-0.494l1.183,4.19l-2.365,3.699l1.183,2.955l1.656-3.449l4.257,4.189l-0.71,2.218  l4.494,0.986l2.602-0.74l2.839,4.929l-1.183,5.669L-70.719,230l-3.548,0.74l4.257,1.971l-1.183,5.422l-5.676,4.685l-1.183,4.436  l4.257-5.669l4.494-1.727l1.183-8.133l4.494-4.189l1.183,3.451l2.602-2.711l4.257,2.218l7.569-1.973l13.009,3.944l2.602-1.233  l-0.947,6.901v2.218l9.225,5.423l-0.709,7.146l2.364,2.466l6.149,0.244l1.656,3.945l1.183,6.9l-6.859,8.381l-3.784,14.049  l6.15,5.916l-6.623,14.293l-6.622-1.48l-9.225-12.568l-4.258-1.725l-3.547,3.941h-5.914l-0.236,7.889l-31.692,15.773l-10.407,22.426  l-12.536,0.494l-2.364-5.422l-6.387-14.293l-9.697-7.396l-7.568-2.955l-6.622-0.986l-17.267-19.225l3.313-3.203l14.664-11.338  l-12.3-7.887l-8.041,0.738l-4.967-3.943v-4.436l-7.097-2.711L-182.118,248.484z"
   id="path23" />
<path
   fill="#FFFFFF"
   stroke="#333333"
   stroke-width="1.4286"
   stroke-linejoin="round"
   d="M-224.455,235.422l6.858-7.393l6.623-3.451  l4.967,4.19v5.174l5.203,6.902l11.589,6.652l7.097,1.727l8.278,12.322l7.805,2.467l0.236,4.189l4.021,4.188l8.041-0.984l10.88,7.887  l0.474,3.205l-10.644,5.176l-1.893,5.668l-3.074,0.986l16.556,18.238l17.503,6.162l7.805,7.146l3.784,10.352l0.946,2.711  l-3.548,3.941l-11.826-6.9l-3.312-0.49l-1.419-3.697l-40.681-32.041l1.183-3.697l-4.021-10.352l-26.017-17.992l-5.914-8.873  l-7.331-14.293L-224.455,235.422z"
   id="path25" />
<path
   fill="#FFFFFF"
   stroke="#333333"
   stroke-width="1.4286"
   stroke-linejoin="round"
   d="M-124.645,160.006l-26.49-0.74  l-5.913,6.408l-2.364,6.9l-3.549,0.74l-12.062-8.38l-13.009,0.247l-6.387,6.9l-11.589,20.948l-6.858,15.774l-1.184,9.613  l4.021,6.406l3.549,3.451l0.946,5.422l7.096,9.12l10.17,4.929l5.676,0.984l26.964-14.295l0.472-7.885l9.461-0.248l3.784-4.436  l2.13,2.218l2.364,7.146l4.021,0.248l7.095-8.133l0.236-6.902l20.104-12.569l16.793,3.205l5.203-6.408l4.258-0.493l-2.13-11.091  l0.474-2.958l-2.838-7.146l0.946-3.451l-2.366-3.45l-6.857,1.479l-3.785-2.219l-6.149-1.726h-3.548l-1.893,3.45L-124.645,160.006z"
   id="path27" />
<path
   fill="#FFFFFF"
   stroke="#333333"
   stroke-width="1.4286"
   stroke-linejoin="round"
   d="M-302.27,114.657l10.881-13.556  l13.954,4.682l4.493-1.971v-3.698l-5.439-9.118l1.655-2.218l14.428,4.929l0.71,8.38l7.095,6.161l6.622-0.739l13.719,11.338  l0.237,5.422l-1.893,8.134l21.05,28.343l5.677,5.668l13.009,5.915l-17.029,36.477l-1.183,10.104l4.021,5.176l-6.859,4.19  l-8.042,7.64l-7.805-14.295l2.602-8.38l-13.719-28.835l-9.224-8.133l2.129-3.944l-3.547-10.104l-20.342-22.921l-0.945-3.204  l-1.893-3.696l0.236-2.465l-12.298-10.599h-2.602l-2.13-2.711l-5.203,1.479L-302.27,114.657z"
   id="path29" />
<path
   fill="#FFFFFF"
   stroke="#333333"
   stroke-width="1.4286"
   stroke-linejoin="round"
   d="M-326.63,177.505l4.493-9.859l3.312,0.985  l3.548-1.479l3.784,0.493l-0.71,3.45l8.515,15.774l1.656,4.436l4.021,6.162l-4.021,6.9l-2.365,1.232l-12.536-8.133l-0.236-3.943  L-326.63,177.505z"
   id="path31" />
<path
   fill="#FFFFFF"
   stroke="#333333"
   stroke-width="1.4286"
   stroke-linejoin="round"
   d="M-285.713,219.402l-0.71-4.188l3.548-0.249  l10.407,15.282l-14.191-7.149L-285.713,219.402z"
   id="path33" />
<path
   fill="#FFFFFF"
   stroke="#333333"
   stroke-width="1.4286"
   stroke-linejoin="round"
   d="M-267.502,235.422l8.042,7.887  l-0.709,3.944l-3.075,2.465l-2.365,0.984l-2.129-5.423l0.474-2.711L-267.502,235.422z"
   id="path35" />
<path
   fill="#FFFFFF"
   stroke="#333333"
   stroke-width="1.4286"
   stroke-linejoin="round"
   d="M-256.858,248.484l10.17,11.337v1.725  l-4.021,1.727l3.312,9.367l-5.913-5.178v-3.943l-5.676-6.654l-1.183-6.9L-256.858,248.484z"
   id="path37" />
<path
   fill="#FFFFFF"
   stroke="#333333"
   stroke-width="1.4286"
   stroke-linejoin="round"
   d="M-257.347,11.826l6.689,11.502l4.349,8.714  l9.7,3.834l5.686,5.926l3.011,6.622l-2.676-9.759l-3.011-4.184l1.673-7.668l9.7,0.35l-1.672,0.696l1.672,3.137l9.699,5.926  l1.338,9.062l3.011,6.274l5.687,2.44l6.355-0.697l17.728,12.199l1.004,7.319l2.675,3.137l-0.668,5.926l13.714,11.502l13.38,0.696  l8.696,5.926l0.334,3.834l-17.729,12.896l-8.026,0.349l5.687,1.742l11.371-4.88l20.404-10.456l8.696,4.88l2.007,4.88l3.011-1.395  l5.017,13.595l-9.03,4.182l-8.362,6.273l2.676,2.439c0,0-4.683,4.531-3.345,4.531s9.031,3.486,9.031,3.486l-8.697,1.742v10.457  l-24.082-0.697l-6.689,6.273l-1.339,7.669l-3.345,0.348l-12.376-8.365h-14.718l-6.354,8.365l-14.383-5.926l-26.091-34.854  l1.673-10.107l0.335-3.137l-14.049-10.456h-5.352l-8.696-6.624l-0.335-8.364l2.007-18.821l-5.687-7.669l15.053-10.107v-5.577  l-6.69-10.456l1.339-8.714l-1.339-5.577L-257.347,11.826z"
   id="path39" />
<path
   fill="#FFFFFF"
   stroke="#333333"
   stroke-width="1.4286"
   stroke-linejoin="round"
   d="M-205.502,37.619l3.011-1.045l3.68-2.44  l6.354,6.971l-3.345,5.229l0.335,3.834l-5.019,2.439l-6.689-2.788l-2.007-9.063L-205.502,37.619z"
   id="path41" />
<path
   fill="#FFFFFF"
   stroke="#333333"
   stroke-width="1.4286"
   stroke-linejoin="round"
   d="M-181.084,56.441l16.056,3.484l2.675,6.274  v4.53l-5.017-1.045l-5.018-4.88h-4.014l-5.687-5.228l-2.341-1.743L-181.084,56.441z"
   id="path43" />
<path
   fill="#FFFFFF"
   stroke="#333333"
   stroke-width="1.4286"
   stroke-linejoin="round"
   d="M-173.057,66.549l9.031,7.668l-1.673,4.183  l0.67,4.531l-2.342,4.182l-6.021-6.273l0.67-4.879l-1.338-3.485l-1.673-5.578L-173.057,66.549z"
   id="path45" />
<path
   fill="#FFFFFF"
   stroke="#333333"
   stroke-width="1.4286"
   stroke-linejoin="round"
   d="M-155.329,80.839l5.352,1.395l12.042,7.668  l3.68-0.697l-6.355-8.017l-13.046-5.228L-155.329,80.839z"
   id="path47" />
<path
   fill="#FFFFFF"
   stroke="#333333"
   stroke-width="1.4286"
   stroke-linejoin="round"
   d="M-160.681,77.702l5.352,5.925l3.011,0.35  l11.038,5.228l0.669,6.623l-6.355-2.789l-11.372-0.696l-7.359-3.485l2.677-5.578L-160.681,77.702z"
   id="path49" />
<path
   fill="#FFFFFF"
   stroke="#333333"
   stroke-width="1.4286"
   stroke-linejoin="round"
   d="M-52.977,212.24l10.37-6.622l-3.012-4.181  l5.019-5.926l8.362-1.395l3.344,8.714l3.68,0.349l-1.672-9.759l5.687-1.395l11.038,14.639l-1.004,8.016l6.355,17.079l17.393,6.275  l-3.345,12.2l3.345,7.318L4.89,261.04l-6.02-4.533l-15.388-6.623l-4.348-9.062l3.011-6.969l-6.689-5.578v-10.108l-11.708-0.695  l-9.699,2.786l-7.693-3.833L-52.977,212.24z"
   id="path51" />
<path
   fill="#FFFFFF"
   stroke="#333333"
   stroke-width="1.4286"
   stroke-linejoin="round"
   d="M49.043,262.782l4.013-24.747l15.722,1.394  l10.369,8.016l-1.673,5.577l-1.673,13.245c0,0-4.683,4.879-6.021,4.533c-1.338-0.352-11.038-7.67-11.038-7.67l-6.354,4.184  L49.043,262.782z"
   id="path53" />
<path
   fill="#529E56"
   fill-opacity="0"
   stroke="#529E56"
   stroke-width="1.4286"
   stroke-linejoin="round"
   stroke-opacity="0"
   d="  M-43.52,194.263l9.461-2.957l17.029-2.957l12.3,13.801v14.789l2.837,10.844l15.138,6.902h48.249l19.868,5.913l2.838,7.887  l-3.785,18.733l-6.621,7.883l-15.138-8.871l-9.461,2.957l-4.73-6.9l6.623-25.633l-35.004,0.986l-0.947,10.845l2.838,6.901  l-3.784,6.9l-10.406,0.986l-17.975-9.859l-8.516-8.871l2.839-10.845l-7.568-5.915l0.945-6.902l-17.975,0.987l-12.3-7.887  l9.461-8.873l-0.945-2.958L-43.52,194.263z"
   id="path55" />
<path
   fill="#FFFFFF"
   stroke="#333333"
   stroke-width="1.4286"
   stroke-linejoin="round"
   d="M-352.411,27.901  c0.474-0.985,2.365-26.123,2.365-26.123l1.184-4.438l-6.15-11.829v-9.366l-5.203-14.048l8.278-9.858l4.021-9.859l8.515-5.669  l0.236,11.091l13.481,7.395l4.021,1.479l2.364,7.393l18.212,7.642l11.117,8.378l3.784,5.177l7.331,2.465l6.623,8.872l5.677,3.697  l-2.129,6.901l0.945,5.175l0.474-3.942l2.838,0.985l0.237,4.682l2.128,2.958l-0.473-4.19l0.236-3.203h3.312l2.365,1.232  l-1.42,16.267l1.893,4.683l-1.182,8.872l6.857,9.859l-0.472,6.161l-14.665,10.352l4.73,6.899l-2.365,19.225l-13.954-4.929  l-1.893,3.204l5.913,8.38l0.236,3.943l-4.257,2.218l-14.19-4.929l-11.354,13.062l-12.299-43.13l-6.386-12.323l2.837-0.986  l2.13-2.957l-2.365-4.189l-3.548,0.492l-11.116-11.337h-4.021L-352.411,27.901z"
   id="path57" />
<path
   fill="#FFFFFF"
   stroke="#333333"
   stroke-width="1.4286"
   stroke-linejoin="round"
   d="M-389.071,64.379l7.805,1.232l4.967-5.177  l12.772,15.28l3.784,0.247l1.183,3.696l4.258,2.711l-0.71,4.931l-1.183,11.829l-3.311,2.958l-6.15-2.958l-2.602-9.365l-4.967-3.696  l-5.677-0.74L-389.071,64.379z"
   id="path59" />
<path
   fill="#FFFFFF"
   stroke="#333333"
   stroke-width="1.4286"
   stroke-linejoin="round"
   d="M-466.413-116.771l8.516-3.943l3.784,3.451  l4.258-0.986l12.298,4.436l8.516,11.338l7.095-0.493l4.73,2.464l14.665-1.971l13.243-0.493l4.258,5.915l11.826-4.437l11.353,10.353  l8.515,7.393l1.42,10.353l11.353,4.929l0.945,5.422l-7.568,4.437l-3.784,10.845l-8.987,9.365l4.729,16.76v6.407l6.15,11.83  l-4.73,31.054l-11.353-3.943l-4.258-22.181c0,0-8.514-4.93-10.407-6.409c-1.891-1.478-3.311-8.38-3.311-8.38l-17.976-23.659h-13.718  l-11.826-16.76h-4.729l-28.855-31.054l-5.677-20.21l-0.474-6.408V-116.771z"
   id="path61" />
<path
   fill="#FFFFFF"
   stroke="#333333"
   stroke-width="1.4286"
   stroke-linejoin="round"
   d="M-447.018,3.995l2.602-1.725l1.183-3.204  l4.257,0.246l0.946,3.451l8.988,4.437l-0.711,3.449l4.258,0.739l5.914,6.162l0.709,2.465l2.364,0.246l1.42,3.943l-4.967,0.247  l-1.419-0.986c0,0,2.128-1.725,0.709-1.972c-1.418-0.247-13.481-8.872-13.481-8.872l-3.548,1.478l-5.676-3.943L-447.018,3.995z"
   id="path63" />
<path
   fill="#FFFFFF"
   stroke="#333333"
   stroke-width="1.4286"
   stroke-linejoin="round"
   d="M-91.06,79.166l6.622-3.943l6.15-0.246  l6.858,6.9l-2.128,5.669l-4.258,3.203l-3.548-3.696l-0.709-5.669l-6.387,1.973L-91.06,79.166z"
   id="path65" />
<path
   fill="#FFFFFF"
   stroke="#333333"
   stroke-width="1.4286"
   stroke-linejoin="round"
   d="M-78.051,126.979l3.548-0.246l0.946,4.437  l5.677,3.203l3.547-0.985l6.149,6.161l-3.548,1.479l-10.17-5.422l-7.568,3.451l-2.129-1.726L-78.051,126.979z"
   id="path67" />
<path
   fill="#FFFFFF"
   stroke="#333333"
   stroke-width="1.4286"
   stroke-linejoin="round"
   d="M-103.358,80.892l3.312-5.422l3.312,0.739  l3.074,0.985l-0.473,3.451l-2.839,3.203l-6.386-0.985V80.892z"
   id="path69" />
<path
   fill="#FFFFFF"
   stroke="#333333"
   stroke-width="1.4286"
   stroke-linejoin="round"
   d="M-92.715,92.229l-3.784-6.901l3.784,3.204  h2.839L-92.715,92.229z"
   id="path71" />
<path
   fill="#FFFFFF"
   stroke="#333333"
   stroke-width="1.4286"
   stroke-linejoin="round"
   d="M-79.902,116.217l2.676,0.871l5.854,5.925  l-5.854-2.439L-79.902,116.217z"
   id="path73" />
<path
   fill="#FFFFFF"
   stroke="#333333"
   stroke-width="1.4286"
   stroke-linejoin="round"
   d="M-86.926,142.184l0.668,3.137l5.854-3.834  l2.843,2.789l1.505,3.833l-1.673,3.138l-4.348,1.046l-3.011,2.962l-0.836-3.485l-3.847-3.312l-0.168-3.485l3.848-2.962  L-86.926,142.184z"
   id="path75" />
<path
   fill="#FFFFFF"
   stroke="#333333"
   stroke-width="1.4286"
   stroke-linejoin="round"
   d="M66.436-48.473  c0.836,0,8.529-8.714,8.529-8.714l6.021,7.494l2.342,1.22l0.836,7.493l-3.847,6.274l-6.355,2.614l-3.177-1.743l2.842-3.659h2.844  l-2.844-2.439l-4.348-1.743L66.436-48.473z"
   id="path77" />
<path
   fill="#529E56"
   fill-opacity="0"
   stroke="#529E56"
   stroke-width="1.4286"
   stroke-linejoin="round"
   stroke-opacity="0"
   d="  M68.591-42.093l-2.366-6.655l9.697-8.625l4.73,7.147l3.784,2.218l-0.946,7.395l-3.075,5.422l-6.857,3.696l-2.839-0.985l2.602-5.177  l-2.602-3.943L-73.084,87.546l2.365-6.162l-8.042-6.407l-5.439,0.246l-6.149,4.929l-2.365-3.204l-7.568-2.218l-3.312,6.162  l0.474,0.985l5.676,1.479l4.257-2.219h3.784l1.42,2.957l-7.806,1.479l3.548,6.407l2.838-3.696l-3.547-0.739l6.526-5.139l5.018-0.871  l0.669,4.88l3.178,3.833l3.847-1.567l-5.352,28.059l3.01,0.348l3.847,4.531l-5.018-1.395l-1.17-1.742l-0.168,8.19l3.848,0.35  l1.839,4.356l4.181,2.962l4.684-0.696l5.352,6.1l-2.342,1.742l-10.536-5.577l-8.027,3.486v2.962l3.345,3.486v1.567l-1.004,4.184  l-3.847,0.871l-3.846,3.137l-1.171-4.356l-4.181-2.44l0.333-3.659l3.513-2.614l1.003,2.788l4.851-3.485l-0.836-4.531l3.178-9.236  V89.204L68.591-42.093z"
   id="path79" />
<path
   fill="#FFFFFF"
   stroke="#333333"
   stroke-width="1.4286"
   stroke-linejoin="round"
   d="M135.675,36.225l-4.015,10.108l2.676,2.439  l2.342,5.576l6.689,9.76l5.352,3.835l2.677,3.833l22.409,17.776l9.701-3.485l20.069-6.274l5.351,3.485l4.35-1.394l1.672,1.742  l6.355-2.091l4.014,2.091l3.346-1.045l2.007-5.577l8.026-1.045l3.681-12.548l14.047-5.926l10.703,1.394l4.684-1.742l6.689,1.742  l-1.672,3.835l13.38,5.925l3.011,1.743l7.357-2.092l2.676,3.485l11.373-6.622l11.038-2.789l-0.67,10.457l-11.705,5.577l-2.342,6.273  l3.679,8.365l-0.67,5.577l-10.033,3.834l-8.361,12.548l-2.007,20.563l-7.359,1.743l-2.007,11.153l-45.156,11.502l-6.021-0.348  l-16.725,11.502l-19.065,22.655l-7.694,0.697l2.677,7.668l-2.342,12.2l6.355,14.986l-0.67,10.804l0.67,6.974l-7.357,5.227  l-7.024,2.788l-2.342,5.928l-3.681-1.396l-4.348-7.666l-11.372,4.529l-1.004-3.485l0.334-10.457l-3.01-2.44l3.345-2.439  l-5.352-11.151L154.07,222l0.67-5.227l-2.342-5.577l-5.352-4.183l-0.335-4.183l6.69-4.531l-1.673-15.337l-5.018-2.787l-0.669-5.229  l-4.683-3.137l-2.007-6.622l-5.018,2.092l-3.345-2.092l-6.354,1.046l-6.021-5.229l0.67-4.183l10.368,1.743l-5.687-3.486v-3.833  l-11.038-2.789l2.342-6.622l-4.349-6.971l5.687,0.349l-1.003-9.411h3.68l-10.036-12.547h-2.675l-3.345-10.457l0.668-3.485  l-2.675-9.76l5.687-3.137L105.57,75.61l4.014-1.045l9.366-8.365l-10.369,6.274l2.341-5.229v-6.622l11.707-11.153l0.669-6.623  l8.028-2.439L135.675,36.225z"
   id="path81" />
<path
   fill="#FFFFFF"
   stroke="#333333"
   stroke-width="1.4286"
   stroke-linejoin="round"
   d="M126.141,180.176l1.673-7.668v-2.614  l6.355-0.349l5.018,1.743l1.004,3.833l-2.175,2.963l-9.533,5.228L126.141,180.176z"
   id="path83" />
<path
   fill="#FFFFFF"
   stroke="#333333"
   stroke-width="1.4286"
   stroke-linejoin="round"
   d="M314.568,97.65l20.813,2.958l21.287-5.916  l6.621,4.93l-0.474,11.83l-5.203,18.73l1.894,1.973l9.46-6.901l2.365,13.309l-0.474,9.366l4.73,6.408l0.473,12.815l14.192,7.887  l1.418,7.888l-6.621,7.887h-4.259l-12.771,32.04l-15.61,2.464l2.365,12.815l-5.203,3.942l-0.472,5.916l-12.774,3.944l-5.203,12.321  l-0.471,6.408l-5.677,4.436l-2.839-1.477v-6.9l-4.729,7.393l-10.881,5.422l-6.149-2.957l1.892-8.379l-2.837-3.945l-8.515,4.93  l-8.989-6.406v-2.465l-6.147-3.451l-2.839,8.873l-16.083,11.83l-12.301-6.408l-4.257,1.48l-8.986,10.35l-6.623-1.973l1.892-12.322  v-4.93l-4.73-14.294l-2.364,5.915l-5.204,2.465l-8.515-2.957l-15.61,7.887l-8.986-7.395l14.189-7.889l0.947-19.715l-6.15-12.324  l1.894-12.815l-3.312-10.351l8.042,0.985l19.393-22.674l17.504-12.323l49.669-9.365l3.31-11.831l7.097-1.971l2.365-22.182  l7.568-11.83L314.568,97.65z"
   id="path85" />
<path
   fill="#FFFFFF"
   stroke="#333333"
   stroke-width="1.4286"
   stroke-linejoin="round"
   d="M326.666,63.412l9.699-2.439l5.018,3.136  l0.67-8.714l6.568-10.378l1.761-14.197l9.058-7.308l8.27-7.899l-3.949-5.359l-2.259-7.977l7.835-8.023l3.261,2.353l7.619-3.212  l4.442-18.029l-0.135-19.658l5.095-12.022l6.833-3.853l-0.263-5.196l6.886,5.104l6.21-3.191l9.245,0.922l34.906-0.582l9.367,6.623  h5.35l-3.344,3.835l-8.029-1.047l3.682,2.789l7.357,5.925l9.701,11.153l-7.695,2.093l-6.354-4.184l1.004,5.926l-7.359-2.789  l-10.033,2.439l6.354,6.274l7.357,3.835l-4.348,6.273l5.688,5.576l7.359,1.045l-3.682,5.229l3.682,5.925l5.686,4.183l6.355,8.714  l6.354,10.805l-8.695,10.806l-4.014,1.045l6.02,4.184l5.688,7.667l12.375,9.411l5.354,5.577l6.02,2.091l8.361,10.108l6.689,2.092  l-9.031,11.502l-5.35-1.395l-2.008,1.395l-8.027-2.44l-1.338,1.743l-13.715-5.577l-5.686-7.319l5.016,11.502v2.788l-7.691-2.091  l-15.387,33.809l2.008,4.183l-4.348,11.503l3.344,2.788l-2.678,6.622l7.695-3.137l-2.678,7.669l0.67,2.438l-1.672,5.576  l-8.695,3.487l-3.346-4.184v5.576l-8.363,11.503l-7.023,3.834l-5.686-9.411l-1.674,3.137l2.341,9.411l-9.365,6.623l0.334,5.576  l-11.705,4.88l0.333,3.136l2.341-2.09l6.022,4.184l0.333,9.062l-7.357,3.833l5.351-0.349v1.047l6.689,1.742l-0.332,4.88  l-24.753-3.833l0.668-10.109l-1.672-11.153l3.679-4.879l0.669-9.063l-11.037-6.972l-3.012-8.017l-14.382-7.319l1.003-12.547  l-5.351-5.927l1.002-10.455l-2.674-12.549l-9.701,7.669l-2.676-2.092l6.02-21.61l1.005-10.456l-7.024-5.229l-20.404,6.622  l-20.737-2.788l-1.674-4.183l-3.009-7.668l2.007-8.016l11.707-4.532L326.666,63.412z"
   id="path87" />
<path
   fill="#FFFFFF"
   stroke="#333333"
   stroke-width="1.4286"
   stroke-linejoin="round"
   d="M327.813,273.87l8.986,5.668l3.549-8.133  l-0.947,8.873l2.603,5.174l0.236,20.213l3.549,3.695l44.701-20.947l2.365-3.699l6.858-1.23l4.493-13.805l5.205-6.652l-3.548-9.121  l0.946-3.203l3.547,6.902l6.623-5.176l-0.236-12.078h-2.365l-0.236-3.941l8.986,1.23l1.894-10.351l-25.072-3.698l0.947-11.337  l-2.839-10.35l4.493-4.19l0.711-9.12l-10.881-6.654l-6.387,8.627h-6.147l-11.591,32.78l-16.083,1.231l2.602,13.802l-5.44,3.695  l0.474,6.409l-13.009,3.697l-6.147,13.062v5.67L327.813,273.87"
   id="path89" />
<path
   fill="#FFFFFF"
   stroke="#333333"
   stroke-width="1.4286"
   stroke-linejoin="round"
   d="M400.66,286.194l5.204-13.555l5.439-4.686  l1.182,3.943l-0.944,1.973l1.418,5.916v6.652l1.184,2.219l-1.42,3.697l0.473,4.191l-7.805,6.16l-2.602-3.695l0.474-6.656  L400.66,286.194"
   id="path91" />
<path
   fill="#FFFFFF"
   stroke="#333333"
   stroke-width="1.4286"
   stroke-linejoin="round"
   d="M1446.859,241.171h-11.373l-1.336-5.575  l-14.051-4.183l-0.668,2.089l-8.697-8.364l-14.049,4.88l-42.145-20.217l-33.449-11.849l-10.033-7.669l-29.436,16.033l8.697,9.062  l-22.746,11.155l-16.055-2.791l-1.338,11.155l-14.049,11.852l-2.008,7.668l-16.053,13.941l-12.713,5.576l-18.063-6.273l0.67-14.64  l-6.02,3.485l-2.676,16.035l12.709,27.883h-9.365l-1.338,6.969l20.738,14.641l12.041-2.092l6.689,2.092l12.043,1.395l16.055,9.063  l2.008-2.092l19.398,11.852l4.684-2.094l10.703,5.578l5.352-3.484l29.436,23.701l2.674,9.063l8.699-0.697  c0,0-9.365,6.971-6.689,6.971c2.674,0,10.033,0,10.033,0l-4.014,4.881l17.393,30.672l17.395,11.85l-23.414-1.395l10.033,11.852  l15.387,1.395l-4.682,2.787l-20.07-1.395l18.732,12.551l-1.338,10.455l-4.016,13.941l-2.006,9.758l17.395-8.365l3.344,6.971  l25.422-4.877l43.482,46.008l2.006-101.08l-8.695-9.063l5.352-10.455l3.344-6.275L1446.859,241.171z"
   id="path93" />
<path
   fill="#FFFFFF"
   stroke="#333333"
   stroke-width="1.4286"
   stroke-linejoin="round"
   d="M1038.117,162.748l9.031-4.183l3.01,1.742  l13.045-3.136l6.021-7.669l3.346,0.697l5.018-6.623l11.037-2.091l17.393,4.88l3.68-0.349l4.348,3.485l14.049,10.108l25.088-0.697  l5.018,6.273l-3.012,4.183l9.699,17.08l-7.357,17.078l2.008,11.85l-2.342,4.183l4.014,12.897l2.676,2.789l7.691,15.335  c0,0,5.018,2.439,4.684,1.044c-0.334-1.391-3.01-12.895-3.01-12.895l2.342-4.878c0,0,5.016,1.394,3.68,1.742  c-1.338,0.347,2.34,21.608,2.34,21.608l-2.676,15.684l12.043,25.098l-7.359-0.697l-4.684,1.742l-2.676,3.137l-3.01-0.697  l-5.352-4.531l-2.678,3.486l-5.684-1.742l-1.006-8.018l-5.016,2.787c0,0-8.029-10.107-8.029-8.016s-0.668,3.139-0.668,3.139  l-5.016-2.441l-1.672-5.229l1.336-9.41l3.344-7.318l4.348-3.836v-4.879l-7.691,7.668l-0.334,9.063l-3.68,3.486l-3.346-1.047v2.789  l4.014,2.439l-7.691,12.201l2.006,3.484c0,0-6.355,10.455-9.701,10.105c-3.344-0.346-7.357-1.043-7.357-1.043l-5.688,1.043  l-4.682-5.924l-3.68-14.291l6.689-1.047l3.344-1.742l-6.354-8.713l-5.018-4.531l-2.34,2.439l-1.004-5.576  c0,0-12.375-11.85-14.385-11.85c-2.006,0-7.357,1.742-7.357,1.742l-2.676-2.788l-2.342-5.576l9.701-4.533l10.033,4.183l3.678-3.136  l7.695,5.575l12.709-13.591l8.697-4.88l6.689,4.529l0.67,6.275l7.693-4.533l4.014,4.184l4.014-4.53l-2.006-4.88l5.018-0.35  l2.342,2.092l1.672-2.787l-2.342-0.697l2.006-6.974l-5.352,1.396l3.68-6.273l-2.342-0.349l-9.365,5.227h-7.025l-9.031-1.391  l-9.031,4.528l-9.031-1.044l-3.678,1.044l-4.014-0.347l-1.004-3.138l-12.041,3.138l-8.363-7.319l-2.674-4.183l-5.354-8.366  l4.014-8.365l-4.684,2.789l1.674-6.274l-6.021,2.439l0.334-3.833l-2.34,2.091l-11.039-5.577l-2.342,3.138l-4.014-5.577l-0.334,4.531  l-15.051-3.137l4.348-6.623l5.018-3.485l3.344-7.668L1038.117,162.748z"
   id="path95" />
<path
   fill="#FFFFFF"
   stroke="#333333"
   stroke-width="1.4286"
   stroke-linejoin="round"
   d="M704.301,85.37l2.676,1.742l24.418,3.486  l17.393-9.411l4.682-8.017l5.02,1.395l1.336-3.137l0.67-6.971l5.018,1.045l13.045-15.336l8.697,9.411l-5.354,6.971l-8.361,17.428  l-13.045,8.017l-4.348,13.941l-45.492,7.668c0,0,1.676-6.706,0.504-8.539c-2.006-3.138-3.346-5.751-3.346-5.751  c-6.73-2.184-4.947-3.728-9.266-4.564c-2.459-0.477-2.93-3.232-0.994-5.425C698.67,88.059,696.236,89.189,704.301,85.37z"
   id="path97" />
<path
   fill="#FFFFFF"
   stroke="#333333"
   stroke-width="1.4286"
   stroke-linejoin="round"
   d="M849.57-46.775l2.838-2.958v-2.957  l3.313-5.423l0.473-2.956l-1.895-2.466l0.475-2.957l-0.475-1.972l-1.891-1.479l-3.783,0.985v4.438v2.464v1.973l2.365,1.971  l-1.895,3.451l-0.471,2.464l-0.947,2.465L849.57-46.775z"
   id="path99" />
<path
   fill="#FFFFFF"
   fill-opacity="0"
   stroke="#333333"
   stroke-width="1.4286"
   stroke-linejoin="round"
   stroke-opacity="0"
   d="  M700.09,82.863l-0.943,8.873l10.406,9.857l1.891,1.972v10.845l20.814,0.985l24.598-9.858l7.568-14.788l11.352-6.9l9.463-19.717  l4.729-3.943l67.172-116.33l0.945-13.802l-9.459-2.957L846.73-66v4.931l2.84,3.942l-1.893,7.887l-56.764,10.845L700.09,82.863z"
   id="path101" />
<path
   fill="#FFFFFF"
   stroke="#333333"
   stroke-width="1.4286"
   stroke-linejoin="round"
   d="M614.658,252.673l21.408,3.486l29.1,13.244  l3.344,5.924l-5.016-1.043l0.668,6.971l-3.01,2.439l4.682,4.182l6.021,3.486l6.689,5.576l-2.006,2.789l5.016,3.484l-0.668,2.789  l5.016,0.697l3.682,10.455l-2.008,1.742l-8.029-3.83l3.682,5.924l-2.676,1.742l-6.355-3.484l-18.732,4.529l-3.008,7.32l3.678,8.018  l-14.385-1.396l-13.043-5.576l2.34-17.773l4.014-7.32v-5.229l-12.039-3.137l-19.066-20.217l6.689-12.547L614.658,252.673z"
   id="path103" />
<path
   fill="#FFFFFF"
   stroke="#333333"
   stroke-width="1.4286"
   stroke-linejoin="round"
   d="M701.623,335.976l-0.666-11.848  l-6.691-5.578l-6.021,6.273l-1.338,12.549l-2.676,16.031l-4.684,9.758l-4.012,2.094l3.346,7.666l7.357-0.695l4.682-2.789  l-2.676-4.879l10.035-3.484l4.684-4.182l-6.021-4.186l-4.014-0.695v-13.941l5.352-6.973L701.623,335.976z"
   id="path105" />
<path
   fill="#FFFFFF"
   stroke="#333333"
   stroke-width="1.4286"
   stroke-linejoin="round"
   d="M663.494,358.979l4.014-11.848  l-2.008-11.156l10.703-5.576l4.684-3.486l2.674,13.943l-6.02,7.668l1.34,9.063l-4.016,5.574l-2.674-2.785L663.494,358.979z"
   id="path107" />
<path
   fill="#FFFFFF"
   stroke="#333333"
   stroke-width="1.4286"
   stroke-linejoin="round"
   d="M701.623,335.976l-0.666-11.848  l-6.691-5.578l-6.021,6.273l-1.338,12.549l-2.676,16.031l-4.684,9.758l-4.012,2.094l3.346,7.666l7.357-0.695l4.682-2.789  l-2.676-4.879l10.035-3.484l4.684-4.182l-6.021-4.186l-4.014-0.695v-13.941l5.352-6.973L701.623,335.976z"
   id="path109" />
<path
   fill="#FFFFFF"
   stroke="#333333"
   stroke-width="1.4286"
   stroke-linejoin="round"
   d="M651.451,348.524l2.008,6.273v8.363  l-3.344,1.396l-6.691-9.76l1.338-6.273H651.451z"
   id="path111" />
<path
   fill="#FFFFFF"
   stroke="#333333"
   stroke-width="1.4286"
   stroke-linejoin="round"
   d="M696.273,299.728l3.344,2.789l0.67-3.486  l4.014,5.578l-4.684,4.879l-2.676,2.092l-6.021-7.67L696.273,299.728z"
   id="path113" />
<path
   fill="#FFFFFF"
   fill-opacity="0"
   stroke="#333333"
   stroke-width="1.4286"
   stroke-linejoin="round"
   stroke-opacity="0"
   d="  M612.65,253.021l9.365,1.396l18.732,2.787l26.09,12.549l2.006,6.971H665.5l-4.682,6.273l12.039,7.668l4.016,3.484l4.014,1.396  l22.746,4.182l3.344,5.578l-2.676,6.969l-5.352,2.791l7.357,17.426l-3.344,8.365l-4.014-2.787l-2.008,9.063l9.365,10.455  l-10.033,9.061L684.9,379.196l-9.365-4.182l-3.344-11.854l-11.373,1.396l-8.029,5.578l-11.373-14.641l4.016-10.457l-4.016-6.969  l-10.703-5.578l-4.014-8.363l6.02-18.127l-14.715-9.758l-18.732-19.52L612.65,253.021z"
   id="path115" />
<path
   fill="#FFFFFF"
   stroke="#333333"
   stroke-width="1.4286"
   stroke-linejoin="round"
   d="M655.967,81.013l9.867,1.918l2.174-0.523  l10.369,2.614l9.867,5.402l4.182-4.183l2.342-1.045l5.184,2.439l-2.842,2.266v3.834l5.35,2.439l6.357,3.834l2.342,4.88l-0.67,9.411  l-5.018-0.697l-9.533-9.411l-3.01,1.395l-15.889,0.697l-10.703-1.568l-9.533,2.266l-1.838-0.697l-12.711,2.266l-2.51-4.009  l-6.689-1.045l-3.178,2.614h-4.014l-1.506,0.871l-4.182-0.523l-9.363-13.768l2.842-4.531l40.975-0.871l3.68-3.137L655.967,81.013z"
   id="path117" />
<path
   fill="#FFFFFF"
   stroke="#333333"
   stroke-width="1.4286"
   stroke-linejoin="round"
   d="M655.801,79.793l-6.021,2.092l-2.342-2.788  l-14.383,0.696l-5.352-3.833l-1.338-5.926l-3.68,3.485l-9.031-4.183l-12.041-0.349v9.411l-3.01,4.183l-3.346,3.834l-0.67,4.183  l-5.686,0.697l-5.686-0.697l-2.676-7.32l-2.342,2.44l-2.676,5.925l-6.689,3.835l-1.004,3.137l2.008,4.53l-3.012,3.835l-5.352,7.667  l-3.68,1.744l6.355,8.016l-3.678,5.926l-8.697-3.137l2.342,4.879l6.02,0.698l-2.006,10.804l-0.336,7.32l3.68,7.319l-0.336,4.531  l-5.016-9.063l-7.359,11.852l12.043,44.961l22.076-2.786l19.064,20.215l33.449,12.896l7.359,6.973l-6.689,8.364l29.1,13.244  l5.016-3.836l-0.668-3.484l-8.029-3.137l3.012-3.135l-3.012-3.834l-3.344-3.138l-4.012-1.742l-3.012-4.183l0.67-2.439l-13.381-19.52  l-3.346,0.349l-2.676-2.44v-2.439l-7.021-5.927l-2.678,3.486l-1.338-9.062l2.008-1.743l10.033,8.365l6.689-1.394l2.008-6.623  l10.703-6.971l6.355,0.348l8.363-6.622l18.395-23.354l12.377-2.787l5.354,7.667l6.02,0.35l2.342-10.806l-2.342-6.971l-6.355-2.44  l-5.352-0.696l-16.057,4.531l9.031,3.834l-8.025,1.742l-5.688-1.395l-2.342,0.698l-16.725-1.046c0,0,0,6.273-1.672,6.273  c-1.674,0-10.369,2.439-10.369,2.439l-4.35-0.696l-6.689-4.531l-11.037,8.713l-6.689,6.623l-5.018,11.153l-4.014-2.091l-6.689-2.092  l-6.689,1.047l-4.014-5.926l-0.67-7.669l-5.686-5.926h-5.688l-8.361-12.198l-2.008-18.125l1.34-9.759l5.352-9.76l8.361-11.153  l8.027-2.439l13.715,4.88l5.016-1.046l2.342,3.137l7.025-3.835l-9.031-13.941l3.346-4.88l40.139-0.348l4.012-3.137L655.801,79.793z"
   id="path119" />
<path
   fill="#FFFFFF"
   stroke="#333333"
   stroke-width="1.4286"
   stroke-linejoin="round"
   d="M701.291,183.661l3.846,2.266l3.01-4.531  l2.508-1.743l5.854,4.357l-1.17,3.66l-1.838,3.137l-2.51,1.742l-0.502,0.697l-3.678-3.138l-2.51,1.22l-0.502,0.175l-0.502,6.449  l-2.174-0.523l-3.514-2.266l3.012-2.789v-4.008l-2.842-2.789l-2.342,3.137l-1.172,2.093l-3.346,4.008l-3.678,0.522l-0.836-2.963  l-0.67-1.567l-0.836-1.743l0.502-3.834l2.174-4.88l1.172-1.917l6.354-0.871l3.344,0.349l3.178-1.22l1.842,3.136L701.291,183.661z"
   id="path121" />
<path
   fill="#FFFFFF"
   fill-opacity="0"
   stroke="#333333"
   stroke-width="1.4286"
   stroke-linejoin="round"
   stroke-opacity="0"
   d="  M655.625,80.398l2.838,7.394h-25.07h-18.447l-2.838,4.93l8.514,13.309l-8.988,3.45l-3.783-1.479l-1.893,0.986l-11.826-5.423  l-11.354,1.972l-9.932,14.295l-5.205,15.281l3.313,16.758l8.516,16.268l6.621-1.972l5.203,7.887v4.437l4.73,7.393l5.203-0.492  l4.258,2.958l3.783-0.493l2.84,0.985l4.256-4.436l1.42-4.93l6.621-8.38l8.988-8.872l1.42-0.493l4.73,6.9l3.783-1.479l6.15,0.493  l7.096-0.985l2.838-7.888l18.922,0.493l1.893,0.985l2.363-5.422l10.881-1.971l6.621-1.479l6.15,0.986l4.73,4.437l0.947,5.914  l-3.313,8.873l-1.891,1.479l8.041,9.366l1.891,2.957l-5.203,7.394l-3.311-3.45l-2.365,1.972l-1.418,6.408l-6.625-3.451l2.84-2.464  l-0.945-3.943l-1.895-2.465l-6.621,8.872l-4.73,2.465v-8.379l-1.42-3.451l3.785-7.393l8.514-0.494h5.205l1.893-5.915l-6.15-6.408  l-13.719,2.465l-6.621,10.845l-4.258,5.915l-4.73,6.901l-7.096,4.929l-4.256,1.479h-6.625l-6.146,5.422l-5.205,5.916l-5.676,2.464  l-11.826-5.915l1.42,4.436l0.943,3.453l1.422-2.467l6.148,6.409l0.945,1.479l2.838,2.462h2.84l6.621,6.409l7.096,13.309l1.42,3.944  l4.729,4.929l3.785,2.958l2.365,1.477l0.947,6.41l3.783,2.465v2.957l-2.838,1.971l-27.436-13.803l4.73-4.928l0.473-1.48  l-0.947-2.955l-3.311-2.958l-21.287-11.337l-17.029-3.944l-11.824-13.307l-6.623-5.425l-22.232,0.987l-11.826-45.35l6.15-6.901  l2.838-2.464l-1.42-8.873l2.365-12.322l-8.043-4.437l1.895-2.466l4.73,2.466l3.311,1.479l1.418-6.9l-4.729-5.916l3.783-1.972  l0.473-6.9l7.568-5.422l-0.945-5.422l0.475-3.451l7.568-1.971l0.943-7.888l5.203-1.972l0.947,5.423l1.418,2.464l6.625,0.493  l1.418-1.479l2.363-5.915l5.678-3.451l0.947-11.337h8.516l8.039,2.465l2.367,2.957l7.568-4.437l1.418,7.395l3.785,4.437  l14.662-2.465l0.947,2.957L655.625,80.398z"
   id="path123" />
<path
   fill="#FFFFFF"
   stroke="#333333"
   stroke-width="1.4286"
   stroke-linejoin="round"
   d="M541.07,274.284l7.693-6.623l-0.334-19.17  l16.391-0.35l-3.682-38.341l-13.711-45.658l-1.674,5.228l-1.002,4.88l-5.688,5.576l-1.338,10.457l2.006,6.274l-1.336,2.787  l3.008,8.714l-6.354,6.973l-3.68,14.638l-4.348,7.669c0,0-11.707,3.138-11.707,5.924c0,2.789,5.686,11.155,5.686,11.155l-4.35,8.016  l3.012,7.32l1.672,9.758l6.021,2.791l9.699-4.881L541.07,274.284z"
   id="path125" />
<path
   fill="#FFFFFF"
   stroke="#333333"
   stroke-width="1.4286"
   stroke-linejoin="round"
   d="M587.23,371.878  c0-2.092-8.363-20.914-8.363-20.914l2.342-12.895l3.346-1.744l2.342-5.926l-3.346-11.85l1.338-5.229l-1.672-10.109v-5.924  l4.35-10.107l-3.346-13.596l1.338-3.832l-6.691-6.971v-5.578l18.063-15.685h5.352l8.363,2.44l2.676,9.062l22.746,3.485l6.689-8.365  l-5.688-8.018l-35.121-12.546l-19.734-20.216l-20.738,3.136l3.012,37.993l-15.053-0.35v19.52l-11.707,8.365l10.033,4.879  l-3.008,8.018l7.355,13.943l-1.002,21.262l-5.018,11.848l0.67,4.182l-6.355,16.734l2.676,12.197l4.682,1.744l1.004,4.529l3.68-3.484  l6.355,4.879l7.023-8.715l7.359,2.439l9.031-5.227L587.23,371.878z"
   id="path127" />
<path
   fill="#FFFFFF"
   stroke="#333333"
   stroke-width="1.4286"
   stroke-linejoin="round"
   d="M337.807,480.282l1.892,1.971l3.429-0.555  l4.022,0.986l4.847,1.91l7.096-0.309l5.499-4.93l3.969-0.039l12.377,5.314l6.271,6.537l1.422,3.137l-3.429,3.484  c0,0-5.938,2.787-6.187,3.225c-0.252,0.436-6.188,2.264-6.188,2.264l-3.178,5.752l-2.175,4.707l-3.679-0.174l2.341-5.23  l-4.683-7.145l-7.024-4.879l-6.689-2.963l-6.355-0.174l-3.178-5.053L337.807,480.282z"
   id="path129" />
<path
   fill="#FFFFFF"
   stroke="#333333"
   stroke-width="1.4286"
   stroke-linejoin="round"
   d="M523.887,543.991l2.365-3.695l6.857-2.713  l4.26-0.492l6.146-0.492l2.365-0.494l2.838,0.494l3.313-0.986l5.439,1.23l1.182,0.248l5.914-3.203l3.785,2.217l3.313,4.436  l6.146,1.725l0.475,3.945l3.311,2.957l6.387-0.986l1.893,3.205l2.602,1.723l1.182,1.48v1.23l1.891,3.205l0.947,0.986l2.365,1.48  l3.076,2.711l0.945,2.711l-4.021,6.16l-2.602,1.232l-0.711,0.492l-3.781-0.492l-2.84,2.465l-3.311,0.494l-4.021-1.48l-2.363-0.738  l-2.84-0.248h-1.184l-5.912-5.666l-2.602-4.93l-2.84-2.217l-4.729-1.234l-2.84-1.971l-2.127-2.961l-2.838-1.23l-4.967-0.986  l-4.258,0.986l-3.074-0.986l-7.805-0.738l-3.313-2.467l-1.893-2.711L523.887,543.991z"
   id="path131" />
<path
   fill="#FFFFFF"
   stroke="#333333"
   stroke-width="1.4286"
   stroke-linejoin="round"
   d="M564.566,514.661l-4.967-6.406v-5.916  l2.838-3.695l-0.236-3.697l3.549,1.23l2.129-0.244l3.785-3.205l2.602-0.492l3.545-3.451l3.076-0.74l2.602,0.494l4.73-0.738  l1.656-0.25l3.547,0.988l3.074,0.986l2.602,1.23h4.258l2.838,0.986l2.838-0.246l3.785,3.205l5.203,0.984l4.258,1.727l1.891,3.203  l6.861,2.219l1.654-2.711l4.73-2.465l8.277,0.986l2.129-1.727l5.203-2.217l-0.234,3.449l2.836,1.479l3.549,2.221l2.602,2.217  l3.074,0.244l3.783-1.477h2.131l2.838-4.189l2.838-4.438l0.945-0.984h3.785l2.365-1.48l2.602-1.971l3.783-3.451l-2.602-1.23  l-2.602,1.477l-0.707-0.246v-3.205l3.309-3.203l3.313,1.479l3.311,6.41l-0.709,3.203l-2.838,0.246l-1.418,3.203l-2.84,1.48  l0.945,6.406l-7.096,2.221l-3.783,0.984l-2.367,1.232l-1.18,0.738l-2.84,1.232l-4.967,0.74l-3.547-0.492l-4.258-0.248l-2.365,1.479  l-3.074,1.973l-3.549,0.246l-4.256,2.217l-2.838,0.494l-2.129-0.246l-4.26-1.973l-6.385-0.986l-3.311,3.697l-2.129,1.48l-3.074-1.48  l-4.494,0.494l-3.074,1.973l-3.313-0.494l-2.365-0.738l-2.602-3.205l-3.074-1.727l-2.602,2.221l-7.807-2.959l-5.203,0.738  l-3.547,0.986l-3.311,0.246l-3.076-2.463l-3.545,0.738l-3.785,0.986L564.566,514.661z"
   id="path133" />
<path
   fill="#FFFFFF"
   stroke="#333333"
   stroke-width="1.4286"
   stroke-linejoin="round"
   d="M690.867,502.833l-1.891-3.205l3.309-2.957  l6.15-1.232l-1.891,2.711l-3.076,1.479L690.867,502.833z"
   id="path135" />
<path
   fill="#FFFFFF"
   stroke="#333333"
   stroke-width="1.4286"
   stroke-linejoin="round"
   d="M704.111,493.714l2.604-2.465l-0.238-3.449  l-3.311-0.986l-2.365-0.248l-2.365,1.727l-2.602,1.725l-0.947,0.986l-0.707,2.957l3.072,0.492l3.313-0.492L704.111,493.714z"
   id="path137" />
<path
   fill="#FFFFFF"
   stroke="#333333"
   stroke-width="1.4286"
   stroke-linejoin="round"
   d="M704.111,498.644l9.225-8.133l-2.838-2.467  l5.912,0.494l-0.473,2.957l8.752-6.162H728l3.076,3.451H728l-4.021,3.697l-1.182,2.465l-3.311-0.246l-3.076,6.898l-3.074-1.725  l-3.074,3.205L704.111,498.644z"
   id="path139" />
<path
   fill="#FFFFFF"
   stroke="#333333"
   stroke-width="1.4286"
   stroke-linejoin="round"
   d="M733.205,492.481l0.943,3.451l1.895,0.984  l3.309,3.697l3.076-1.727l0.947-3.203l3.074-3.203l1.182-5.176l-0.473-1.973l-2.604,0.492l-5.203,6.902l-2.127-3.451  L733.205,492.481z"
   id="path141" />
<path
   fill="#FFFFFF"
   stroke="#333333"
   stroke-width="1.4286"
   stroke-linejoin="round"
   d="M754.49,488.044l-1.893,0.248v-3.453  l2.365-2.711h2.367h1.182l2.838,2.221l3.311-0.494l2.604-0.492l3.309,0.492l3.313-0.246l3.549-0.494l2.602-0.244l1.891,2.711  l0.711,3.695l-3.076,3.451l-4.73,0.738l-5.439,0.248l-2.365,0.738l-4.021-0.246l-2.365,0.986l-2.838,0.246l-4.494,1.232  l-2.602-0.494l-0.709-2.955l1.42-1.973l1.654-1.479L754.49,488.044z"
   id="path143" />
<path
   fill="#FFFFFF"
   stroke="#333333"
   stroke-width="1.4286"
   stroke-linejoin="round"
   d="M759.695,527.726l1.654,2.465l-4.494,8.379  l-0.236,0.984l-3.785,2.219l-4.73-4.93l-3.549,3.945l-0.471-0.248l-7.568-4.682l-2.602,0.246l-13.01,12.568l0.947,2.713  l-2.365,4.189l1.184,2.711l-2.84,3.449v2.711l5.441,1.975l-0.238,3.697l-5.203,2.461l-1.42,0.25l-2.602,3.201l1.42,3.945  l3.074,0.738h9.936l3.309-2.463l5.439-2.467l4.496-3.449l9.461-0.248l3.311-1.23l5.678-6.41l5.203-4.436l4.73-6.408l6.146-4.436  l1.184-5.668l3.313-1.973l-1.42-12.076l6.15-5.914l-2.365-5.916l-6.387,0.246l-2.365,0.492l-4.967,2.711l-1.654,0.494l-3.549,2.711  L759.695,527.726z"
   id="path145" />
<path
   fill="#FFFFFF"
   stroke="#333333"
   stroke-width="1.4286"
   stroke-linejoin="round"
   d="M713.809,572.087l-3.311-0.984  l-2.604,3.695l-1.18,1.232l0.236,3.699l3.311-1.479l1.418-2.959L713.809,572.087z"
   id="path147" />
<path
   fill="#FFFFFF"
   stroke="#333333"
   stroke-width="1.4286"
   stroke-linejoin="round"
   d="M684.48,599.69l2.365,5.916h2.602  l2.838-2.711l3.549-0.738l4.492-1.48l2.604-0.246l0.945-3.695l4.02-2.219l2.604-0.492l-2.129-2.961l0.947-3.201l-0.947-3.697  l-4.967,4.682l-2.838,3.203l-2.365,1.48l-5.203,3.205l-4.02,1.23L684.48,599.69z"
   id="path149" />
<path
   fill="#FFFFFF"
   stroke="#333333"
   stroke-width="1.4286"
   stroke-linejoin="round"
   d="M638.834,589.833l5.676,1.973l6.859-4.189  l-1.893-3.699l-3.074-0.244l-1.893,1.725l-0.945,1.725L638.834,589.833z"
   id="path151" />
<path
   fill="#FFFFFF"
   fill-opacity="0"
   stroke="#333333"
   stroke-width="1.4286"
   stroke-linejoin="round"
   stroke-opacity="0"
   d="  M603.592,567.407c0,2.461-4.256,6.898-4.256,6.898l-7.568,1.479l-4.26,3.451l-14.189-2.957l-8.041-10.352l-6.15-2.957l-5.678-3.945  l-6.621-5.422l-4.73,2.959l-15.137-2.959l-4.732-8.871l3.313-7.889l15.609-0.984l4.26-2.465l-3.785-24.154v-5.422l3.785-13.307  l6.148,7.885l8.988-8.871l26.49-7.887l71.426-5.916l58.658-0.984l58.654,1.479l9.463,7.887l0.947,8.379l-9.936,3.451l-9.461,3.449  l-0.947,13.311l3.785,4.436h14.191l0.945,5.916l-5.203,5.914l1.893,11.338l-3.783,2.955v4.93l-15.611,17.746l-9.932,9.857  l-9.463-0.492l-11.824,7.395l-14.666,1.479l-2.838,3.943l2.838,7.887l-23.178,13.309h-11.354l-0.473-12.324l11.826-6.406  l9.934-5.916l2.363-13.801l8.516-8.381l3.785-14.789l16.555-14.293l9.936,7.395l4.73-3.945l2.838,4.438l6.148-2.465l3.313-9.365  l-2.365-2.465l8.516-6.408l-4.73-17.744l1.891-5.916l-14.191,5.916l-15.137,3.943l-8.986-7.395l-7.57,9.857l-15.137-3.449  l-1.893-2.957l-10.879,4.928l-25.07,4.438l-15.139,3.943l-17.502,2.463l-4.73-2.463l-7.568,2.957l-19.395,0.494l-18.449-3.451  l-8.512-0.494l-15.139,0.986l-7.568-1.973h-3.313l-0.471,16.266l12.771-0.984l15.137,3.451l7.568,11.338l9.459,1.971l1.895,5.422  l9.459,8.873L603.592,567.407z"
   id="path153" />
<path
   fill="#FFFFFF"
   stroke="#333333"
   stroke-width="1.4286"
   stroke-linejoin="round"
   d="M434.719,511.212l-1.891,2.959v6.898  l13.242,3.451l6.623-3.451l7.568,2.467l6.625-3.943l5.203-2.465h4.256l5.203-0.986l5.203-2.465l3.783,0.984l4.732-2.955l5.203-7.396  l2.365,2.961l-1.891,1.969l0.471,3.943l3.785,1.479l6.15-1.969l3.783-0.986l5.676,2.465l3.313-0.988l-3.785-2.463l-5.203-1.48  l2.838-1.479l7.096,0.986l5.203,0.984l3.311-0.984v-6.898l-2.838,2.955l-2.838-2.955v-5.916l-3.313-6.902h-6.146l-3.787,2.957  l0.475,4.439l-1.418,1.477l-0.475-5.916l-2.838-2.957l-5.203-1.48l-4.73,2.467l-3.311,1.479l-1.418-0.984l-2.84-2.961l-2.367-3.941  l-1.418-1.971l-5.203-0.986l-5.203-0.984l-5.203,3.447l-0.947,2.959v1.971l5.678,4.438l4.729,5.422l4.26-0.986l8.041,5.916  l0.475,0.984l-1.422,0.492l-1.891,0.494h-4.26l-2.363,1.973l-1.418,0.984l-2.365,0.986l-3.785-1.477l-2.365-1.48l-1.418-1.973  l-1.895-3.449l-2.365-0.494l-3.309-5.422h-2.367l-2.365,0.986l-1.893,1.973l-2.363-0.494l-5.205-2.957l-3.311-1.479l-4.73,2.957  l-4.256,2.465l-4.732,3.945l-1.892,0.49l-0.474,3.451L434.719,511.212z"
   id="path155" />
<path
   fill="#FFFFFF"
   stroke="#333333"
   stroke-width="1.4286"
   stroke-linejoin="round"
   d="M394.511,509.239l0.473,2.959l6.15,4.436  l3.783-2.463l7.097,2.957l1.419-0.494l3.785,3.449l1.418-4.928l6.621,0.492l-2.364-3.941l6.149-11.832l2.839-7.393l-2.365-2.957  l-2.838-1.48l-9.46-3.449l-3.312,1.479l-6.624,6.408l-4.257,3.945l1.418,6.898v2.465l-4.256,3.449l-2.365,0.986L394.511,509.239z"
   id="path157" />
<path
   fill="#FFFFFF"
   fill-opacity="0"
   stroke="#333333"
   stroke-width="1.4286"
   stroke-linejoin="round"
   stroke-opacity="0"
   d="  M534.057,500.122l-0.711,9.859l-8.277,0.244l-7.332-0.986l8.277,4.191l-7.805,2.711l-3.074-2.711l-10.406,3.203l-4.73-2.463  l-0.711-5.424l-3.074,4.684l-4.02,1.973l-5.678,0.244l-7.568,2.957h-7.332l-11.115,5.916l-7.568-2.217l-7.096,3.451l-14.191-3.945  l-0.711-8.379l2.839-3.205l-1.892-5.176l0.71-2.711l-2.365-0.74l-4.969,9.859l2.367,5.424h-8.278l-1.657,3.695l-4.729-3.449  l-9.696-3.205l-1.892,2.959l-7.334-5.916l0.474-1.479l6.623-1.232l4.021-2.959l-2.365-8.625l9.696-9.365l5.203-3.943l9.462,4.438  l4.73,2.711l0.71,6.406l-1.894,3.205h2.838l14.902-8.873l6.621,2.465l3.076,2.219l2.838,0.494l2.838-2.961l-2.602-4.189l0.945-6.898  l2.602-3.205l6.387,3.697l-3.313,9.611l3.549,6.162l3.076,0.984l1.891,4.438l5.914,3.943l4.256-3.943l2.602-1.232l4.494,0.74  l-6.385-4.93l-4.494,0.738l-5.205-5.668l-6.621-5.422l2.127-6.902l5.441-3.697l12.061,3.205l3.549,6.408l3.076,3.205l8.277-4.191  l6.148,1.725l2.838,2.711l4.023-3.205h6.857l3.785,8.627v5.916l1.891,1.48L534.057,500.122z"
   id="path159" />
<path
   fill="#FFFFFF"
   stroke="#333333"
   stroke-width="1.4286"
   stroke-linejoin="round"
   d="M822.039,262.083l4.684,2.789l8.027-4.182  l9.365-0.697l8.027-0.695l6.691,2.785l4.012,2.094l4.014,3.484l-0.67,2.787h-2.674l0.668,2.791h3.346l4.014,3.484l-1.338,2.787  l-1.338,5.576l-2.008,1.396l-6.02,1.393l-4.684,4.184l-4.682-0.697l-3.344,1.395l-2.008,0.695l-4.684-2.09l-6.021-2.787  l-4.684-3.488l-3.344-3.484l-2.006-2.092l-2.008-2.787l-4.012-3.484l-2.01-4.881L822.039,262.083z"
   id="path161" />
<path
   fill="#FFFFFF"
   stroke="#333333"
   stroke-width="1.4286"
   stroke-linejoin="round"
   d="M894.959,263.479l4.012,7.666l0.67,3.486  l-2.008,2.092v4.879l2.008-1.395l2.008-6.273l2.674-2.092v-5.576l2.676-5.576l4.014,3.486l0.67,2.787l4.014,2.789l4.014,5.574  l4.016,2.094l7.355-3.486l5.354-6.273v-0.697l4.684-0.697l2.676,4.182l-2.676,2.094l5.35,0.697l7.359,2.088h6.689l6.023,2.789  l0.666-3.484l-2.676-4.184l18.063,0.697l3.346,6.971l12.711,6.273l11.373,6.275l8.025,4.881l3.346-2.094l-1.336-4.877l1.336-4.881  l-0.668-4.879l-2.008-3.488l-4.684-1.393l-2.676-2.092v-5.576l-5.35-5.576l-4.014-2.789l-16.057-1.395l-8.029-4.183l-8.025-2.089  l-6.689-1.396h-4.014l-4.684,3.484l-6.02,2.093l-4.016-2.791l0.67-2.786l-4.684,2.091l-12.041-0.695l-8.029,0.695l-6.689,1.394  h-4.014l-3.346,0.697v4.88l-5.35,3.484L894.959,263.479z"
   id="path163" />
<path
   fill="#FFFFFF"
   stroke="#333333"
   stroke-width="1.4286"
   stroke-linejoin="round"
   d="M906.328,282.302l8.029-2.094l4.014-0.697  l-3.344,4.184l-4.016,0.695l3.346,3.486l-6.02,4.184v-4.879l-2.676,0.695l-4.684,2.789l-3.346-1.395v-2.787L906.328,282.302z"
   id="path165" />
<path
   fill="#FFFFFF"
   stroke="#333333"
   stroke-width="1.4286"
   stroke-linejoin="round"
   d="M1167.449,379.601l-3.311-1.971  l-1.893-1.477l2.838-1.48l3.311,1.48l3.313-7.889l3.311-4.436h5.678l0.945,5.422v3.449l2.363,1.973l-1.891,5.422l2.365,4.436  l-1.893,0.986l-4.729,0.986l5.203,4.436l1.891,4.436l-3.311,6.41l-3.311,2.463l-3.785-2.463l-4.256-2.465l-5.205-4.438v-3.943  v-4.928L1167.449,379.601z"
   id="path167" />
<path
   fill="#FFFFFF"
   stroke="#333333"
   stroke-width="1.4286"
   stroke-linejoin="round"
   d="M1154.678,421.991l6.621,7.396l8.043-8.873  l5.676-5.914l-3.311-6.408l-6.623-4.436l-1.42-2.467l-6.146-5.916l-0.947,0.986l1.418,6.41l-0.471,3.941l4.256,3.945l-4.73-1.973  L1154.678,421.991z"
   id="path169" />
<path
   fill="#FFFFFF"
   stroke="#333333"
   stroke-width="1.4286"
   stroke-linejoin="round"
   d="M1053.447,443.188l4.258-0.986  l-0.945-2.957l-2.365-1.971h-3.313l-1.418,3.451l-5.676,6.898l-1.42,3.945l-5.676,2.955l-1.895,5.916l0.475,2.467h-2.365l1.42,3.447  l-4.258,2.961l2.365,2.955l-0.475,3.945l6.623-0.986l3.313,1.971l-0.473-5.916l5.676-4.436l0.473-2.955l4.258-1.48l2.838-4.928  l1.418-4.439l-1.418-5.422L1053.447,443.188z"
   id="path171" />
<path
   fill="#FFFFFF"
   stroke="#333333"
   stroke-width="1.4286"
   stroke-linejoin="round"
   d="M809.363,470.3l0.471,7.887l7.098-6.408  l7.094-0.494l1.893,2.467l9.461-0.986l3.783,3.451l0.947-5.422l7.568-5.424l4.73,0.984v-4.928l-3.313-0.494l-6.148-3.447  l-9.932,4.928h-3.785l-2.84,0.986l-9.459-2.959L809.363,470.3z"
   id="path173" />
<path
   fill="#FFFFFF"
   stroke="#333333"
   stroke-width="1.4286"
   stroke-linejoin="round"
   d="M967.828,467.343l7.568,0.492l4.26,3.449  l-1.42,6.408l-3.313,0.494l-3.311-0.986l-1.893-3.943l-1.893-1.973V467.343z"
   id="path175" />
<path
   fill="#FFFFFF"
   stroke="#333333"
   stroke-width="1.4286"
   stroke-linejoin="round"
   d="M900.979,30.648l-14.717,16.033  l-4.016,9.062l-0.668,6.274l-2.676,7.668l-2.006,4.182l1.336,2.093l-1.336,5.576h4.012l1.338,6.273l2.676,3.486l-2.006,3.484  l-0.67,4.88l0.67,5.578l0.67,4.182l4.682,3.485l2.008,7.668l-1.34,9.76v4.183l-1.336,3.485l6.02,2.789l4.684,2.787l4.012,9.063  l2.008,4.879l8.029,3.485l1.336,3.485h4.684l-2.676-4.183l-6.689-7.667l-4.684-6.972l-6.02-16.033l-2.008-4.183l2.008-6.971v-4.88  l1.338-8.364l8.027,1.393l4.014,3.486l8.695-1.395l7.359,4.88l6.021,0.697l6.689,2.788l-4.014-5.577l-4.684-0.696l-2.006-6.971  l-4.014-2.789l-10.703-4.88l-4.016-2.788v-2.788l3.346-0.697l2.008-4.183l10.035-4.183l4.68-4.88l2.008-9.062l-1.338-3.486  l-2.006-6.273l-4.684,1.394l-6.02,1.395l-6.689,3.485l-3.346,5.577l-1.338,3.485l2.676,2.091l-3.346,2.789l-3.344-0.696  l-6.021,4.182l-0.668,6.273v4.184h-4.684l-2.676-2.789l-2.006-2.092l-0.67-3.485l4.014-5.576l3.346-2.091l6.689-3.485l1.336-4.88  l1.34-7.669l-1.34-7.668l-1.336-4.182l-5.354-2.789v-3.485l4.016-3.485L900.979,30.648z"
   id="path177" />
<path
   fill="#FFFFFF"
   stroke="#333333"
   stroke-width="1.4286"
   stroke-linejoin="round"
   d="M911.012,27.859l1.34,6.274l0.67,3.485  h5.35l7.359-2.091l2.006-4.88l2.008-7.669l1.336-3.485l-2.006-3.485l-1.338-3.485l-2.006-2.091l-2.006,2.788l-2.008,2.091  l-4.684,2.788l-2.676,3.486L911.012,27.859z"
   id="path179" />
<path
   fill="#FFFFFF"
   stroke="#333333"
   stroke-width="1.4286"
   stroke-linejoin="round"
   d="M874.219,141.486h6.689l4.014-0.696  l4.014,6.273v3.484l-2.674,1.395l-0.67,4.184h4.684l6.689,1.394l0.668,3.485l-3.344,4.183h-2.678l-2.676-3.485l-2.674-1.395h-2.01  l-2.006,0.697l-3.344-2.091l-0.67-2.092l2.676-2.091l-4.012-2.789l-2.678-2.787l-0.67-2.789L874.219,141.486z"
   id="path181" />
<path
   fill="#FFFFFF"
   stroke="#333333"
   stroke-width="1.4286"
   stroke-linejoin="round"
   d="M877.563,189.586l10.037-4.88l8.025,3.486  l7.359,4.182l4.014,3.485l2.676,2.093l-3.346,3.485l-4.68-0.698l-2.678-1.395l-3.346,1.395l-3.344-0.696l-2.676-0.698l-5.354,2.789  l-7.355-3.485L877.563,189.586z"
   id="path183" />
<path
   fill="#FFFFFF"
   stroke="#333333"
   stroke-width="1.4286"
   stroke-linejoin="round"
   d="M791.936,207.014l0.67-3.485l5.352,2.09  l4.682-0.695h3.346l6.021,0.695l6.02-0.695h3.346l4.682,0.695h4.016v2.094l-2.678,1.393h-2.676l-4.684,0.696l-3.344,1.396  l-3.346-0.698h-4.682l-3.344-0.697h-3.348l-2.006,0.697h-4.014L791.936,207.014z"
   id="path185" />
<path
   fill="#FFFFFF"
   stroke="#333333"
   stroke-width="1.4286"
   stroke-linejoin="round"
   d="M752.467,198.648l4.014-0.696h2.676h3.344  l4.684,0.696l2.676,1.395h2.678l3.344,1.395l2.676,1.394l2.676,0.697l1.338-2.091l2.006,0.696l1.34,1.395l3.344,0.696v3.487  l-2.676,0.697H781.9l-2.006,1.392l-2.008,0.697l-2.676,0.698l-2.008-0.698h-2.676l-2.006-0.697l-3.344,1.396H762.5l-0.668,2.788  l-4.014,0.696h-4.014l-2.676-2.787l-2.678-2.789v-3.486l2.008-2.787L752.467,198.648z"
   id="path187" />
<path
   fill="#FFFFFF"
   stroke="#333333"
   stroke-width="1.4286"
   stroke-linejoin="round"
   d="M1350.041,485.089l-2.838,4.928  l-2.84,2.465l7.568,3.945l5.203-0.988L1350.041,485.089z"
   id="path189" />
<path
   fill="#FFFFFF"
   stroke="#333333"
   stroke-width="1.4286"
   stroke-linejoin="round"
   d="M1212.861,196.235l2.365,4.929l5.676,0.493  l4.258-0.493l21.758,7.888l3.313-0.987l7.094,1.479l7.572-1.969l7.566-1.48l-2.838-3.451l-8.514-0.493l-7.57-0.492l-8.988-3.45  l-11.352,0.985l-8.988-1.972L1212.861,196.235z"
   id="path191" />
<path
   fill="#FFFFFF"
   stroke="#333333"
   stroke-width="1.4286"
   stroke-linejoin="round"
   d="M1225.633,163.209l3.783,8.38v4.929  l3.785,3.451l2.365-1.972l5.203,2.464l7.096-1.478l4.73-2.958l-5.203-1.972l-4.73-2.958l-3.313-4.929l-4.256-3.943l-4.73-3.451  l-1.42-1.479L1225.633,163.209z"
   id="path193" />
<path
   fill="#FFFFFF"
   stroke="#333333"
   stroke-width="1.4286"
   stroke-linejoin="round"
   d="M1350.041,449.103l-9.934,0.986  l-8.988,1.973l-8.043,6.408l-8.986,11.83l-2.838,7.393l-3.785,6.902l-2.365,9.365l8.043-1.479l11.354,1.479l7.094,0.986l3.313,0.492  l8.986-5.422l3.785-6.902l6.621-2.955l3.785-21.689L1350.041,449.103z"
   id="path195" />
<path
   fill="#FFFFFF"
   stroke="#333333"
   stroke-width="1.4286"
   stroke-linejoin="round"
   d="M-505.201-274.435"
   id="path197" />
<path
   fill="#FFFFFF"
   stroke="#333333"
   stroke-width="1.4286"
   stroke-linejoin="round"
   d="M1012.295,167.646l12.771-2.464  l5.203,2.464l0.473,6.408l-1.891,2.957v3.943l-2.365,3.451h-4.732l-3.311-3.451l-4.258-5.422v-3.943L1012.295,167.646z"
   id="path199" />
<path
   fill="#FFFFFF"
   stroke="#333333"
   stroke-width="1.4286"
   stroke-linejoin="round"
   d="M1014.658,130.183l5.203,5.916v1.972  l4.26,0.492l0.945,3.943h2.838h2.365l3.785-1.971l3.311,3.45l2.838-4.437v-5.423l-3.783-1.971l-2.84-1.973h-3.783l-9.461-2.956  l-4.256,0.492l-6.15,0.493l-4.73,1.971h-3.785l-2.838,0.494l-1.418,3.449l3.781-2.464l1.422,4.437l-6.15-0.985l3.311,3.449h6.15  l2.84,2.958l0.943,1.973l3.785-3.944l3.783,4.93l2.365,0.985l5.203-1.479l-0.471-2.958l-3.313-1.479h-3.311l-1.893-2.465  l-2.838-4.436L1014.658,130.183z"
   id="path201" />
<path
   fill="#FFFFFF"
   stroke="#333333"
   stroke-width="1.4286"
   stroke-linejoin="round"
   d="M975.871,206.587l8.041-1.479l2.365-2.958  l7.096-0.492l4.258-1.479l5.203,1.971l0.473,6.409l-3.311,2.464l1.891,3.451l-4.256-0.986l-2.838,2.464l-3.313,0.493l-2.365-1.971  l-5.203-0.493l-5.676-1.972l-2.365-1.973V206.587z"
   id="path203" />
<path
   fill="#FFFFFF"
   fill-opacity="0"
   stroke="#333333"
   stroke-width="1.4286"
   stroke-linejoin="round"
   stroke-opacity="0"
   d="  M-468.252-118.59h9.678l7.918,0.917l7.037,2.75l11.437,6.417l7.918,6.417l13.196,1.833l11.437-2.75l7.038-0.917l7.918,5.5  l9.677-2.75h4.399l8.797,7.335l5.279,6.416l5.277,7.335v8.251h5.279l7.917,5.499l-5.278,1.834l-7.918,3.666l-0.879,2.752  l-2.64,6.416v5.501l-3.519,2.75l-4.399,3.667v7.334l1.76,7.333l1.76,8.251l2.64,9.168l3.519,9.167l1.759,3.667l-0.879,7.334  l-2.64,14.668l-3.519,1.833l-7.038,1.833l-4.398,3.667l-9.678,5.501l-1.759,2.75l-12.316,8.251l-8.798,0.917l-25.513-13.751  l-7.918-15.586l-16.715-6.416l-7.918-16.501l1.76-14.669v-17.417v-14.668l-2.64-15.585l-3.52-13.751v-12.834l-0.88-8.25  l-1.759-4.584c0,0-0.88,1.833-0.88-5.5C-468.252-114.923-468.252-118.59-468.252-118.59z"
   id="path205" />
<path
   fill="#FFFFFF"
   fill-opacity="0"
   stroke="#333333"
   stroke-width="1.4286"
   stroke-linejoin="round"
   stroke-opacity="0"
   d="  M-341.568-57.169l4.398,4.583l7.038,1.834l3.519,4.584l7.039,5.5l7.038,9.167l13.196,5.502l5.277,3.666l7.918,6.417l7.038,6.417  l5.278,5.5l7.038,9.168l1.76,5.5h5.278l0.88,8.251v8.251v7.333v6.418l5.278,12.834l-7.918,5.501l-7.918,4.583v5.5l3.519,4.584  l1.761,9.167v6.418l0.88,3.666l-11.437-4.583l-6.159,1.833l4.399,10.084v3.667l-7.038-1.833h-5.278l-8.798,0.916l-7.038,4.584  l-0.88,5.501l-7.037,10.084l-7.038,13.751l-7.039,10.084l-4.398,9.166l-4.397,3.668l-5.279,0.917l-9.678-9.168l-11.437-22.002  l-7.917-11l-8.798-22.919l-7.918-11l-6.158-14.668l-5.278-11.918l20.234-10.084l8.798-9.167l12.316-4.584l6.157-8.25l3.52-11.917  V4.252l0.88-7.334l-3.52-5.5l-6.158-14.667l-2.639-11.918l5.278-6.418l4.398-3.666L-341.568-57.169z"
   id="path207" />
<path
   fill="#FFFFFF"
   fill-opacity="0"
   stroke="#333333"
   stroke-width="1.4286"
   stroke-linejoin="round"
   stroke-opacity="0"
   d="  M-298.461,115.177l7.917-9.168c0,0,3.521,0,7.919,0c4.397,0,12.316,0.917,12.316,0.917l-1.76-11.001l-3.519-4.583h7.037l5.279,4.583  l0.88,7.334l1.759,5.501h10.558l5.277,2.75l7.039,9.168l3.519,2.75l-2.64,10.083l3.519,11.002l10.558,7.333l4.399,8.251l7.037,3.667  l3.52,4.583l9.677,3.668l1.759,2.75l-6.157,4.583l-4.398,4.584v4.584l-2.64,4.583l-1.76,7.334c0,0,0,1.834-0.88,6.417  c-0.879,4.584-2.639,10.084-2.639,10.084l-0.88,8.251l-0.88,2.749l-6.158,2.751l-4.398,1.835l-3.519,4.583l-4.399,9.168  l-3.519,5.498l-2.64,15.586l-2.64,15.584l-8.797,5.5l-14.076-14.666l-30.791-40.337l-13.196-14.669l-22.873-33.001l1.76-14.668  l5.277-12.834l14.077-24.753l7.037-5.5L-298.461,115.177z"
   id="path209" />
<path
   fill="#529E56"
   fill-opacity="0"
   stroke="#529E56"
   stroke-width="1.4286"
   stroke-linejoin="round"
   stroke-opacity="0"
   d="  M1181.947,250.931l-4.014-15.335l-4.016-2.789l-2.674,2.789l1.336,12.546h-4.012l-2.678-8.364l-2.676-5.577l-5.35-11.153v-9.76  l-1.34-9.759l1.34-8.365l4.012-1.395l2.678-5.576v-5.577l-5.354-4.183l-5.352-9.759l-1.338-2.789l8.027-2.788l-5.352-4.183  l-9.365-1.395l-16.057,1.395l-4.014-1.395l-8.025-6.972l-10.705-5.576l-9.365-4.182l-5.352-1.395h-8.027l-18.732,11.152  l-1.336,8.366l-6.691,1.394l-8.027,1.395l-8.027-1.395l-2.676,2.789l-2.678,4.183l1.34,6.971l-8.029,1.395v-6.971l-5.35-1.395  l14.717-26.489l1.336-4.184l-5.35-5.577l-10.703-2.787l-6.689-1.395h-4.016l-5.352,1.395l-10.703,2.787l5.352,6.972l5.352,1.395  l10.703,4.182l-2.676,26.49l-17.393,32.066l-6.689-2.789l-13.381,4.184l-4.014,6.97l10.703,4.183h12.043l72.248,36.25l2.676,4.182  l9.367,1.395l6.689,2.791l5.35,8.363l6.693,2.787l6.688,11.154l1.338,5.578h-8.025l2.674,12.547l5.352,5.578h9.367l12.039-9.76  v-5.578l4.014-9.76l-2.674-6.969l5.35-1.396l5.354-15.336l8.027-2.787l-2.678,8.363l-8.025,9.76v11.154l8.025,6.971l9.367,1.395  l4.014,6.969l4.016,2.793l6.689-4.186l6.689,5.578l5.35-4.186h6.691l-8.027-13.941l-4.014-6.969v-8.365l2.674-8.365  L1181.947,250.931z"
   id="path211" />
<path
   fill="#529E56"
   fill-opacity="0"
   stroke="#529E56"
   stroke-width="1.4286"
   stroke-linejoin="round"
   stroke-opacity="0"
   d="  M818.025,262.083l12.043,2.789l14.715-6.971l16.057,5.578l9.365,8.363l2.678,6.973l26.758-1.395l1.338-8.365l-4.014-4.184  l8.027-5.574l4.014-9.761h36.125l5.352,8.364l10.703-6.971l1.338-4.182l22.744,8.363h20.07l10.703,15.336l-4.014,2.791l10.703,4.182  l1.34,6.969l-1.34,5.578l-4.014,5.578l38.801,144.996l-4.016,9.758l4.016,9.76l-4.016,4.182l-9.363,8.367l-6.689,1.393h-5.354  l-2.676-5.574l-54.855,9.758l-34.785-47.402l-53.518-2.791l-33.449,36.25l-9.365,4.186l-4.014,6.969h-8.029l-14.717-4.182  l-9.365,5.576l9.365-13.941h13.381l9.365-4.182l8.027-167.305l-13.381-4.182l-13.379-11.154L818.025,262.083z"
   id="path213" />
<path
   fill="#FFFFFF"
   fill-opacity="0"
   stroke="#333333"
   stroke-width="1.4286"
   stroke-linejoin="round"
   stroke-opacity="0"
   d="  M925.061,12.523l-10.703,9.76l-14.717,9.759l-10.705,11.154l-6.689,11.152l1.34,6.972l-5.354,11.154l-2.676,8.364l6.689,5.577  l1.34,5.577l-2.678,6.971l1.338,9.759l5.354,5.577l1.336,13.942v5.576l-5.35,5.577l-8.029,4.182l1.34,9.76l4.012,8.365  l-45.49,44.614l-26.758-2.788h-12.041l-10.703-2.789l-10.705-1.395l-16.055-1.393l-5.352-2.789l-5.354,11.153l2.678,6.971  l8.027,1.394l8.027-4.183l6.689-2.786l10.703,1.393l8.029-1.393l13.379,2.786h16.055l61.547-11.153l21.406,5.578l5.352-9.76  l9.365-30.673l-6.688-5.576l-6.693-9.759l-4.014-11.154l-4.012-6.972l-2.678-8.365v-9.759l5.354-4.183l5.35-6.972l4.016,5.578  l12.041,6.971l18.732,4.183l-1.338-6.972l-6.691-2.788l-2.674-8.364l-10.705-4.184l-6.688-4.182l14.715-9.76l6.691-4.183  l1.336-11.154l-1.336-6.971l-5.354-5.577l-10.703,4.184l-9.365,2.788l-4.014,11.154l-10.703,13.941l-2.678,4.183L887.6,87.81v-6.971  l13.379-9.759l1.336-13.942L926.4,33.437l6.688-13.942L925.061,12.523z"
   id="path215" />
<path
   fill="#E6C3FF"
   fill-opacity="0"
   stroke="#333333"
   stroke-width="1.4286"
   stroke-linejoin="round"
   stroke-opacity="0"
   d="  M1183.283,256.507l8.029,1.395l5.352,15.338l18.73,1.393l6.691-9.76l9.365-12.548l4.014-5.575l12.041-11.153l4.014-9.76v-16.731  l-14.717-2.788l-8.027-2.788l-8.029-4.184h-5.352l-1.338-4.182l24.084,4.182v-22.306l-6.689,1.394l-1.34-2.788l-1.336-8.365  l-2.678-5.577l-4.012,4.183l-5.354-5.577l-5.35-2.788l-1.34-4.183l17.393,4.183l10.705,2.788l8.027,12.548h8.027l38.801,27.884  l8.027-8.365l14.719-4.182l6.689,8.365l21.406,5.576l14.719,11.153l13.379,4.185l17.393,11.15l16.055,2.791l4.014-2.791  l13.381,8.367l2.676-6.972l10.703,8.364h10.703v168.699l-8.027,13.941l5.352,5.578l2.676,101.775l-12.043-6.973l-6.689-9.76  l-5.35-5.576l-9.367-11.152l-5.352-5.578l-4.014-2.787l-4.014-4.182l-4.014-2.791l-6.689,1.396l-10.703,5.576h-4.016l-5.35-4.182  l-4.014-2.791l-4.016,6.973l-2.674,11.152l-8.029-5.576h-6.689l-10.703,4.184l-13.381-2.791l-16.055,1.396l2.676-11.156l9.367-20.91  l17.393-13.941l17.393-1.396l-1.338-8.363v-6.971l-6.689-2.789l1.338-5.578l-2.678-16.729l-10.703-23.701l-10.703-11.154v-8.365  l-12.041-9.76l-13.381-6.969l-8.025-4.184l-16.057-5.576l-10.703,1.393l-8.027-11.152h-9.365l-12.043-6.973l-13.379,1.395  l-14.717,1.395l-6.689-6.971l-5.352-4.184l-8.027-4.182v-1.395l-1.34-2.789l10.705-5.578l1.338-4.182l-9.367-18.123V256.507z"
   id="path217" />
<path
   fill="#FFFFFF"
   fill-opacity="0"
   stroke="#333333"
   stroke-width="1.4286"
   stroke-linejoin="round"
   stroke-opacity="0"
   d="  M332.352,267.661l-2.676,9.76l8.028,4.182l1.337-6.971l1.34,9.758l2.674,5.578l-1.337,11.156l2.676,11.15l12.041-9.758l16.056-6.971  l16.056-8.365l10.703-5.578l5.353,13.943l-1.339,4.182l-1.338,6.971l10.703-8.367l2.677-12.545l-2.677-8.365l-1.337-6.973  l-1.339-8.365l-5.351-6.971l5.351-1.393l2.676,2.787l4.014-12.547l-1.337-6.971l5.351-1.394l5.353-8.367l-25.42-2.788l-2.676-16.729  v-5.578l4.013-8.365l-4.013-8.365l-6.69-1.394l-5.353,5.576l-5.351,5.577l-6.689,18.124l-5.353,6.971l-5.353,9.76l-6.689-5.577  l-4.014,11.155l-2.677,9.76l-4.013,5.575l-8.027,2.789l-4.014,5.578L332.352,267.661z"
   id="path219" />
<path
   fill="#FFFFFF"
   fill-opacity="0"
   stroke="#333333"
   stroke-width="1.4286"
   stroke-linejoin="round"
   stroke-opacity="0"
   d="  M134.375,38.172l-7.039,2.75l-4.398,7.333l-5.278,8.251l-5.278,1.833l-6.159,17.419l10.558-2.75l-7.037,6.416l-3.521,6.418  l-1.759,2.75v9.167v11.918l6.158,5.5l2.64,4.583l4.398,11.918v4.584l-7.038-2.751l1.76,11.002l1.76,6.417l12.315,0.916l-7.037,1.834  l1.76,10.084v22.002l4.398,9.167l4.398,6.417l11.437,1.833h3.52l5.278,6.418l2.639,11l4.399,25.67v8.248l14.955-3.666l8.797,11  l11.437-15.582l2.641-14.668l-7.038-17.42l-1.759-24.751h7.037l15.836-13.751l16.715-16.5l15.834-2.752l11.439-0.916l14.074-1.833  l10.559-2.75l8.796-2.75l-3.519-11.001l9.678-2.75v-12.836l4.397-10.999l9.677-8.251l7.04-7.335l-0.881-8.249V74.841l9.678-1.833  V62.923h-7.919l-8.796,5.5l-5.278,3.667l-5.28-0.917l-7.918-5.5l-12.315-5.501l-13.196-3.666l-9.677,1.833l-7.038,6.418  l-7.918,13.751l-21.113,10.084l-7.919-2.75l-8.796-1.835l-8.799,0.918l-10.557,5.5l-11.437-0.916l-9.677-11.001l-7.919-5.5  l-8.796-9.168l-5.279-7.334l-6.158-7.333L134.375,38.172z"
   id="path221" />
<path
   fill="#FFFFFF"
   fill-opacity="0"
   stroke="#333333"
   stroke-width="1.4286"
   stroke-linejoin="round"
   stroke-opacity="0"
   d="  M-257.33,12.867l7.568,15.774l11.352,5.916l7.568,6.899l1.893,5.915l-5.677-15.772l2.839-5.916l8.515,2.958l10.407,6.901h9.46  l4.73-0.985l5.676,2.956l0.947,5.915l-3.784,5.916l18.921,8.872l13.245,2.958l0.945,6.9l17.977,10.845l10.406,8.872l-6.622,6.9  l0.945,11.831l-17.029,9.858l-9.461-1.972l6.623,3.943l17.975-3.943l14.192-11.83l9.46,7.887l0.946,2.958l4.73,0.985l4.729,11.83  l-10.406,0.986l-2.839,6.899l-6.621,2.958l3.784,1.973l-4.731,2.957l12.3,4.929l-5.677,2.958l-4.73-1.972l1.892,9.858l-26.489,0.985  l-5.677,1.973l-3.784,10.844l-6.622-0.985l-5.677-6.901l-12.299-0.986l-7.569,5.915l-2.837,1.973l-2.839-3.943l-6.622-3.944  l-8.516-3.943l-20.813-25.632l1.893-9.858l-0.946-3.943l-4.73-7.887l-8.514-5.915l-4.731-0.985l-2.838,1.972l-4.729-7.888  l-0.946-24.646l-2.838-4.929l-0.946-0.985l-0.947-1.972l9.461-5.915l6.623-2.957l-3.784-9.859l-3.784-7.886l2.839-8.874  l-1.894-3.942L-257.33,12.867z"
   id="path223" />
<path
   fill="#E0E0D7"
   stroke="#333333"
   stroke-width="1.4286"
   stroke-linejoin="round"
   d="M135.761,36.035l0.945,8.873l12.3,7.394  l21.287-0.493l-0.947,4.437l9.462,2.957l0.472,3.943l3.312-3.943l25.072,9.365l-14.192-6.899l0.947-9.366l5.203,1.479l1.892-17.745  l0.474-4.436l-0.474-9.366l9.46,2.465l0.947-6.408V7.938l7.568-7.394L276.251-10.3l39.735-52.742l0.947-11.83l20.34-1.972  l21.761-16.759c0,0,1.892,6.407,1.892,7.887c0,1.479,6.621-2.958,6.621-2.958l4.732,2.465l12.298-9.366l0.947-4.437l-11.354-6.9  l10.407-8.872l9.46,1.479l5.677-11.831l2.365-1.479l2.838-12.815l20.34-21.196l8.516-17.252l2.839,7.887l-1.893,8.873l9.934-9.365  l2.838-7.395l4.73,0.493l4.73,17.746l11.354,2.956l4.256,6.901l-6.621,6.9l4.73,10.353l-6.15,3.943l12.773-1.973l7.096-5.422  l5.203,9.365l-10.408,1.479l5.205,3.451l10.879-5.422l13.717,5.914l0.473,6.409l4.73-0.986l8.516,7.394l11.354-2.464l3.783,8.872  l-23.652,13.802l-9.459,0.493l-7.568-4.929l-7.096,8.872L509.932-66l-21.287,4.931l-8.516,1.971l-11.824-4.929v6.9l-3.313,0.492  l-11.824-6.9l-42.574-0.492l-7.095,3.45l-8.042-6.408l-0.474,7.394l-6.149,2.465l-4.73,12.323v19.225l-2.838,18.73l-7.568,3.45  l-5.203-2.465l-7.568,7.887l7.568,14.787l-19.394,13.802l-1.42,15.774l-5.677,8.872l-0.945,9.365l-5.203-3.943l-11.827,1.479  l-21.287,9.365l-3.31-3.943l-6.15,2.466l-17.03-6.409l2.365-4.437l-7.568-2.957l-2.838,2.957l-13.243-3.45l-12.774,8.872  l-3.782,11.338l-7.568-0.492l-2.365,7.394l-8.516-3.451l-6.149,4.437L202.46,78.92l-28.855,11.337l-24.599-18.238l-4.73-7.887  l-10.88-16.266l-3.312-2.958L135.761,36.035z"
   id="path225" />
<path
   fill="#E0E0D7"
   stroke="#333333"
   stroke-width="1.4286"
   stroke-linejoin="round"
   d="M-334.908-272.041l-7.568,15.774  l3.784,21.688v17.746l3.784,1.971l3.784-23.66l13.245,5.915l-1.893,11.831l11.354-3.943l17.029,31.546l13.244,11.831l-3.784,9.858  l26.489,23.659l5.678,31.548l-9.461,7.886l5.677,19.718l7.567,13.802v19.717h9.462l-1.894,7.888l30.274,39.433l-5.677,9.858  l45.412,35.49l37.843,23.661l13.245,9.858l7.568-7.888h13.245h11.353l-17.029-39.434l-7.568-13.801l-13.245-15.774V-37.41  l-5.677-9.857l5.677-21.69l-3.784-21.688l-13.245-25.632l-30.274-27.604h-13.245l-18.921-25.632l-9.461-5.914h-17.029  l-13.245-13.802l-15.136-35.49l-7.57-19.718l-9.459-21.688v-5.915H-334.908z"
   id="path227" />
<path
   fill="#E0E0D7"
   stroke="#333333"
   stroke-width="1.4286"
   stroke-linejoin="round"
   d="M838.094-216.125l3.908,11.121v17.745  l-13.246,13.803l-1.891,23.66l-5.678-9.858l1.893-11.83c0,0-13.246-15.774-13.246-23.661c0-7.886-9.459,9.859-9.459,9.859  l-9.461,15.772l15.137,19.718l-1.891,15.773l-11.354,19.717l-7.568-7.888v-13.802v-3.942l-5.678,13.801l-9.459-1.971l-18.922-9.858  l-15.137-17.745l-1.895-23.661l7.57-5.914v-13.802l-22.707-17.745l-5.676,3.942l-1.893,3.943v15.773l-11.354-15.773l-3.783,1.973  l-1.891,9.857h-9.463v-13.801l-13.244-1.973l-11.352,39.435l-14.258-4.328l1.338-9.063l5.352-4.88l0.67-8.365l4.014-5.576  l-2.008-5.577l7.359-11.152l13.379-4.88l13.381-0.698l2.006-4.182l-0.67-4.88l6.689-9.063h9.367l3.344-6.273l6.021-0.697  l8.027,2.788l4.684,12.548l0.67,6.972l-9.367,7.667l2.676,3.485l10.703-10.456l9.367-2.091l4.684-6.972l1.336-9.062l9.367,1.395  l7.359,4.182l2.006-18.124v-4.183l3.344-2.788l4.684,4.182l8.025,4.184l0.67-10.458l7.359,4.881l7.359-1.394l-2.676-6.972  l28.766,0.697l2.006,5.576h4.014l0.67,6.274l-2.006,2.091l-0.67,4.88l-7.359,2.788l4.014,5.578l8.027-1.395l0.67,3.485  l-2.676,11.851l5.352-1.395l-1.338,10.457l-2.008,2.091L838.094-216.125z"
   id="path229" />
<path
   fill="#E0E0D7"
   stroke="#333333"
   stroke-width="1.4286"
   stroke-linejoin="round"
   d="M736.043,534.38l9.459,7.885l2.84-6.9  l5.676,5.916l4.73-5.916l2.838-4.928v-3.945h-2.838l-10.406,2.959h-4.73L736.043,534.38z"
   id="path231" />
<path
   fill="#E0E0D7"
   stroke="#333333"
   stroke-width="1.4286"
   stroke-linejoin="round"
   d="M774.83,518.604l9.461-0.984l0.947,8.871  l-7.568,5.916l0.943,11.832l16.084-11.832l12.301-5.916l8.514-0.986l10.406-6.9l14.191,0.988l6.621-9.861l8.516-2.955l17.975-10.844  l-5.676-5.916l-6.621,2.955l-1.893-3.941l-14.191,6.902h-7.568l-15.137,2.955l-8.516-2.955l-18.922,5.916l-13.244,1.969l-2.84,4.93  L774.83,518.604z"
   id="path233" />
<path
   fill="#E0E0D7"
   stroke="#333333"
   stroke-width="1.4286"
   stroke-linejoin="round"
   d="M1445.592,238.627l1.895,162.663  l-11.354,17.746l9.459,6.9l-1.891,99.568l7.568,6.902l10.406-6.902l6.625,6.902l9.459-2.957l9.463-0.984l10.406-0.986l10.406,5.914  l7.568,2.955V268.202l-27.438-9.861l-0.943-3.941h-4.732L1445.592,238.627z"
   id="path235" />
</svg>