<?xml version="1.0" encoding="UTF-8" standalone="no"?>
<!DOCTYPE svg PUBLIC "-//W3C//DTD SVG 1.1//EN" "http://www.w3.org/Graphics/SVG/1.1/DTD/svg11.dtd">
<svg width="100%" height="100%" viewBox="0 0 2021 922" version="1.1" xmlns="http://www.w3.org/2000/svg" xmlns:xlink="http://www.w3.org/1999/xlink" xml:space="preserve" xmlns:serif="http://www.serif.com/" style="fill-rule:evenodd;clip-rule:evenodd;stroke-linecap:round;stroke-linejoin:round;stroke-miterlimit:1.5;">
    <g id="Lautan">
        <rect x="0" y="0" width="2020.8" height="921.798" style="fill:rgb(167,215,252);stroke:rgb(13,242,40);stroke-width:1.4px;"/>
    </g>
    <g id="Outsider" transform="matrix(1,0,0,1,-17.4771,18.4557)">
        <g opacity="0.5">
            <g transform="matrix(1,0,0,1,640.962,149.778)">
                <path d="M0,160.692L0.945,169.565L13.245,176.959L34.532,176.465L33.585,180.902L43.047,183.859L43.519,187.802L46.83,183.859L71.902,193.224L57.71,186.325L58.657,176.959L63.86,178.437L65.752,160.692L66.226,156.256L65.752,146.89L75.212,149.355L76.159,142.947L76.159,132.595L83.728,125.202L140.49,114.357L180.226,61.615L181.173,49.785L201.513,47.813L223.273,31.054C223.273,31.054 225.165,37.462 225.165,38.941C225.165,40.42 231.786,35.983 231.786,35.983L236.519,38.448L248.816,29.082L249.764,24.645L238.409,17.745L248.816,8.873L258.276,10.351L263.953,-1.48L266.318,-2.958L269.156,-15.774L289.496,-36.97L298.012,-54.222L300.851,-46.335L298.958,-37.462L308.892,-46.828L311.729,-54.222L316.46,-53.729L321.19,-35.983L332.544,-33.027L336.8,-26.125L330.179,-19.225L334.909,-8.872L328.759,-4.929L341.532,-6.902L348.628,-12.324L353.831,-2.958L343.423,-1.48L348.628,1.971L359.507,-3.451L373.224,2.463L373.696,8.873L378.427,7.886L386.942,15.28L398.296,12.816L402.079,21.688L378.427,35.49L368.968,35.983L361.399,31.054L354.304,39.926L374.171,58.657L352.884,63.588L344.368,65.558L332.544,60.629L332.544,67.53L329.231,68.022L317.407,61.122L274.833,60.629L267.738,64.08L259.696,57.671L259.223,65.065L253.073,67.53L248.343,79.853L248.343,99.078L245.505,117.808L237.937,121.258L232.733,118.794L225.165,126.68L232.733,141.467L213.34,155.269L211.92,171.044L206.243,179.916L205.28,188.453L200.095,185.338L188.268,186.817L166.98,196.182L163.671,192.239L157.521,194.705L140.49,188.296L142.855,183.859L135.287,180.902L132.449,183.859L119.206,180.409L106.432,189.281L102.649,200.619L95.081,200.127L92.716,207.52L84.2,204.069L78.051,208.505L66.699,203.577L37.844,214.914L13.245,196.675L8.515,188.789L-2.365,172.523L-5.677,169.565L0,160.692Z" style="fill:rgb(115,127,140);fill-rule:nonzero;stroke:rgb(51,51,51);stroke-width:1.43px;stroke-linecap:butt;stroke-miterlimit:4;"/>
            </g>
            <g transform="matrix(1,0,0,1,170.293,345.468)">
                <path d="M0,-343.074L-7.568,-327.3L-3.784,-305.612L-3.784,-287.866L0,-285.895L3.784,-309.555L17.029,-303.64L15.137,-291.809L26.49,-295.753L43.52,-264.207L56.764,-252.376L52.979,-242.517L79.469,-218.858L85.146,-187.31L75.686,-179.425L81.362,-159.707L88.93,-145.905L88.93,-126.188L98.392,-126.188L96.498,-118.301L126.772,-78.868L121.096,-69.01L166.508,-33.519L204.351,-9.858L217.596,0L225.164,-7.887L249.762,-7.887L232.732,-47.321L225.164,-61.122L211.919,-76.896L211.919,-108.443L206.242,-118.301L211.919,-139.991L208.135,-161.678L194.89,-187.31L164.615,-214.915L151.37,-214.915L132.449,-240.547L122.988,-246.461L105.959,-246.461L92.714,-260.262L77.578,-295.753L70.008,-315.47L60.549,-337.159L60.549,-343.074L0,-343.074Z" style="fill:rgb(115,127,140);fill-rule:nonzero;stroke:rgb(51,51,51);stroke-width:1.43px;stroke-linecap:butt;stroke-miterlimit:4;"/>
            </g>
            <g transform="matrix(1,0,0,1,1343.29,102.968)">
                <path d="M0,-44.658L3.908,-33.537L3.908,-15.792L-9.338,-1.989L-11.229,21.671L-16.906,11.813L-15.014,-0.017C-15.014,-0.017 -28.26,-15.792 -28.26,-23.679C-28.26,-31.564 -37.719,-13.819 -37.719,-13.819L-47.18,1.953L-32.043,21.671L-33.934,37.445L-45.287,57.161L-52.855,49.274L-52.855,35.472L-52.855,31.53L-58.533,45.33L-67.992,43.36L-86.914,33.501L-102.051,15.756L-103.945,-7.905L-96.375,-13.819L-96.375,-27.621L-119.082,-45.366L-124.758,-41.424L-126.65,-37.48L-126.65,-21.707L-138.004,-37.48L-141.787,-35.508L-143.678,-25.65L-153.141,-25.65L-153.141,-39.451L-166.385,-41.424L-177.736,-1.989L-191.994,-6.317L-190.656,-15.38L-185.305,-20.26L-184.635,-28.625L-180.621,-34.201L-182.629,-39.778L-175.27,-50.93L-161.891,-55.81L-148.51,-56.509L-146.504,-60.69L-147.174,-65.57L-140.484,-74.633L-131.117,-74.633L-127.773,-80.906L-121.752,-81.603L-113.725,-78.815L-109.041,-66.267L-108.371,-59.296L-117.738,-51.629L-115.063,-48.143L-104.359,-58.599L-94.992,-60.69L-90.309,-67.662L-88.973,-76.723L-79.605,-75.329L-72.246,-71.147L-70.24,-89.271L-70.24,-93.454L-66.896,-96.242L-62.213,-92.06L-54.188,-87.877L-53.518,-98.335L-46.158,-93.454L-38.799,-94.847L-41.475,-101.819L-12.709,-101.122L-10.703,-95.546L-6.689,-95.546L-6.02,-89.271L-8.025,-87.18L-8.695,-82.301L-16.055,-79.512L-12.041,-73.934L-4.014,-75.329L-3.344,-71.844L-6.02,-59.993L-0.668,-61.387L-2.006,-50.93L-4.014,-48.84L0,-44.658Z" style="fill:rgb(115,127,140);fill-rule:nonzero;stroke:rgb(51,51,51);stroke-width:1.43px;stroke-linecap:butt;stroke-miterlimit:4;"/>
            </g>
            <g transform="matrix(1,0,0,1,1280.03,789.1)">
                <path d="M0,3.939L9.461,2.955L10.408,11.826L2.84,17.742L3.783,29.574L19.867,17.742L32.168,11.826L40.682,10.839L51.088,3.939L65.279,4.927L71.9,-4.934L80.416,-7.889L98.391,-18.733L92.715,-24.649L86.094,-21.694L84.201,-25.635L70.01,-18.733L62.441,-18.733L47.305,-15.778L38.789,-18.733L19.867,-12.817L6.623,-10.848L3.783,-5.918L0,3.939Z" style="fill:rgb(115,127,140);fill-rule:nonzero;stroke:rgb(51,51,51);stroke-width:1.43px;stroke-linecap:butt;stroke-miterlimit:4;"/>
            </g>
            <g transform="matrix(1,0,0,1,1950.79,810.784)">
                <path d="M0,-297.722L1.895,-135.059L-9.459,-117.313L0,-110.412L-1.891,-10.844L5.678,-3.942L16.084,-10.844L22.709,-3.942L32.168,-6.899L41.631,-7.883L52.037,-8.869L62.443,-2.955L70.012,0L70.012,-268.147L42.574,-278.008L41.631,-281.95L36.898,-281.95L0,-297.722Z" style="fill:rgb(115,127,140);fill-rule:nonzero;stroke:rgb(51,51,51);stroke-width:1.43px;stroke-linecap:butt;stroke-miterlimit:4;"/>
            </g>
        </g>
    </g>
    <g id="Indonesia-Map" serif:id="Indonesia Map" transform="matrix(1,0,0,1,-18.4771,18.4557)">
        <g id="Banten" transform="matrix(1,0,0,1,485.674,701.557)">
            <path d="M0,-37.819L3.68,-43.221L7.024,-41.653C7.024,-41.653 8.529,-38.69 7.693,-38.516C6.857,-38.34 11.038,-37.993 11.038,-37.993L14.048,-41.477L23.246,-36.251L27.595,-38.516L30.271,-37.296L28.598,-26.491L31.107,-19.52L20.069,-20.042L17.895,-14.639L20.571,-4.008L17.728,5.402L13.882,4.007L6.689,-0.698L0.668,-2.788L-6.857,-0.174L-10.871,-1.745L-16.056,-0.522L-20.236,-0.698L-24.92,1.568L-25.756,-2.962L-29.101,-2.616L-28.934,-5.753L-23.582,-8.366L-19.066,-3.659L-14.383,-10.282L-10.703,-15.337L-7.024,-16.731L-5.017,-20.215L-3.345,-33.811L0,-37.819Z" style="fill:rgb(164,230,157);fill-rule:nonzero;stroke:rgb(51,51,51);stroke-width:1.43px;stroke-linecap:butt;stroke-miterlimit:4;"/>
        </g>
        <g transform="matrix(1,0,0,1,529.825,681.863)">
            <path d="M0,-15.16L-4.348,-15.16L-6.522,-14.289L-9.699,-14.463L-13.546,-17.775L-15.386,-6.797L-12.375,0.174L-7.525,2.615L-2.508,-0.002L0.168,-7.144L0,-15.16Z" style="fill:rgb(164,230,157);fill-rule:nonzero;stroke:rgb(51,51,51);stroke-width:1.43px;stroke-linecap:butt;stroke-miterlimit:4;"/>
        </g>
        <g id="Jawa-Barat" serif:id="Jawa Barat" transform="matrix(1,0,0,1,529.993,735.541)">
            <path d="M0,-69.537L0.669,-76.332L6.689,-73.545L12.208,-74.59L16.391,-72.674L20.236,-66.574L23.916,-64.83L26.591,-61.869L30.104,-61.693L33.783,-63.264L36.459,-63.088L45.992,-57.512L49.672,-57.685L52.013,-61.519L56.695,-59.777L63.552,-51.412L66.061,-40.781L73.086,-36.945L75.427,-36.945L73.922,-24.226L63.887,-16.557L63.72,-11.678L70.074,-5.404L71.078,2.09L68.235,2.09L66.061,1.393L59.873,6.795L40.473,3.135L36.459,3.135L32.779,0.871L29.77,0.522L25.421,-3.662L19.901,-6.275L10.871,-7.496L-18.563,-11.328L-20.905,-12.373L-24.25,-12.549L-25.756,-17.428L-24.083,-21.262L-19.066,-25.619L-19.734,-28.754L-22.243,-30.15L-25.922,-27.883L-23.582,-38.342L-26.592,-48.447L-23.748,-53.68L-12.878,-54.025L-7.693,-51.412L-2.676,-53.68L0.335,-60.998L0,-69.537Z" style="fill:rgb(164,230,157);fill-rule:nonzero;stroke:rgb(51,51,51);stroke-width:1.43px;stroke-linecap:butt;stroke-miterlimit:4;"/>
        </g>
        <g id="Jawa-Tengah" serif:id="Jawa Tengah" transform="matrix(1,0,0,1,606.089,744.079)">
            <path d="M0,-46.18L2.676,-45.834L4.181,-44.438L7.86,-46.356L20.069,-42.348L21.574,-42.348C21.574,-42.348 28.431,-44.612 26.926,-44.612C25.421,-44.612 38.466,-43.043 38.466,-43.043L47.664,-40.082L57.364,-42.869L63.551,-39.211L67.899,-39.559L74.423,-46.18L77.099,-58.207L81.112,-61.866L86.966,-63.26L92.82,-61.346L94.492,-59.95L95.831,-54.2L97.503,-51.932L99.845,-50.364L107.035,-50.016L112.555,-52.629L116.401,-52.457L119.745,-48.793L116.401,-40.604L114.729,-32.936L114.562,-28.407L109.543,-22.133L107.37,-20.737L100.18,-22.83L97.838,-19.344L99.009,-2.264L101.517,0.871L100.346,5.752L91.649,11.156L87.636,13.943L88.807,17.08L81.447,14.988L80.11,0.871L73.753,-1.569L68.904,-4.182L65.392,-9.584L60.542,-9.584L56.695,-6.969L50.842,2.093L34.117,-2.961L31.107,-3.137L27.93,-4.008L24.25,-2.614L19.233,-6.621L10.87,-6.621L9.198,-5.403L2.342,-7.666L1.672,-11.328L-1.004,-8.016L-4.516,-7.319L-5.352,-14.287L-12.041,-20.039L-11.874,-25.444L-2.174,-32.588L0,-46.18Z" style="fill:rgb(164,230,157);fill-rule:nonzero;stroke:rgb(51,51,51);stroke-width:1.43px;stroke-linecap:butt;stroke-miterlimit:4;"/>
        </g>
        <g id="Daerah-Istimewa-Yogyakarta" serif:id="Daerah Istimewa Yogyakarta" transform="matrix(1,0,0,1,657.098,746.519)">
            <path d="M0,0.348L6.857,-11.502L11.038,-12.201L15.053,-12.896L18.564,-6.449L29.268,-1.57L30.773,7.147L30.604,13.244L16.223,8.889L7.693,3.659L0,0.348Z" style="fill:rgb(164,230,157);fill-rule:nonzero;stroke:rgb(51,51,51);stroke-width:1.43px;stroke-linecap:butt;stroke-miterlimit:4;"/>
        </g>
        <g id="Jawa-Timur" serif:id="Jawa Timur" transform="matrix(1,0,0,1,725.873,785.4)">
            <path d="M0,-90.451L7.331,-86.508L10.406,-87.74L14.663,-86.013L17.027,-82.81L30.983,-84.289L34.529,-82.564L38.078,-83.303L37.131,-79.361L39.498,-76.156L38.314,-74.185L40.442,-71.965L40.916,-68.517L43.755,-69.748L47.303,-67.285L47.066,-61.121L45.173,-57.92L45.173,-55.205L60.546,-46.582L65.041,-45.347L66.933,-44.361L76.156,-47.566L87.036,-46.828L90.348,-48.306L93.66,-48.306L96.735,-50.769L100.519,-50.525L102.883,-47.072L113.764,-44.117L116.128,-42.637L116.365,-39.433L115.42,-36.228L115.42,-33.025L112.108,-19.224L111.398,-17.006L114.236,-13.308L114.474,-9.859L116.128,-6.9L121.805,-4.681L120.624,0L114.71,-1.971L110.925,-1.726L111.872,-4.93L108.56,-7.148L104.776,-5.67L101.938,-6.9L96.025,-6.656L78.994,-15.033L76.393,-15.281L66.223,-21.441L64.331,-21.935L54.871,-20.211L52.507,-16.76L47.538,-17.744L43.518,-17.5L41.39,-15.033L25.307,-20.211L21.994,-18.73L19.629,-20.455L11.351,-20.949L7.095,-22.922L4.729,-23.166L1.418,-21.195L1.418,-17.5L-6.15,-21.195L-8.279,-20.949L-15.848,-23.166L-21.761,-21.689L-24.836,-24.892L-28.147,-22.922L-30.276,-24.152L-32.167,-27.603L-19.396,-36.228L-18.212,-40.172L-20.343,-43.623L-22.234,-60.383L-18.922,-64.082L-12.064,-61.369L-4.732,-69.748L-4.022,-81.086L0,-90.451Z" style="fill:rgb(164,230,157);fill-rule:nonzero;stroke:rgb(51,51,51);stroke-width:1.43px;stroke-linecap:butt;stroke-miterlimit:4;"/>
        </g>
        <g id="Pulau-Madura" serif:id="Pulau Madura" transform="matrix(1,0,0,1,776.723,715.406)">
            <path d="M0,-13.558L27.437,-13.558L35.95,-13.802L37.607,-12.816L43.521,-15.035L50.615,-9.367L43.755,-7.392L40.445,-6.656L39.025,-2.464L31.457,-3.451L27.91,-0.74L28.145,1.477L11.827,1.477L8.515,-1.97L8.515,1.231L-2.602,-0.986L-7.568,-3.945L-7.568,-7.642L0,-13.558Z" style="fill:rgb(164,230,157);fill-rule:nonzero;stroke:rgb(51,51,51);stroke-width:1.43px;stroke-linecap:butt;stroke-miterlimit:4;"/>
        </g>
        <g>
            <g opacity="0">
                <g>
                    <g opacity="0">
                        <g transform="matrix(1,0,0,1,696.07,717.38)">
                            <clipPath id="_clip1">
                                <rect x="-2.128" y="-22.923" width="155.654" height="93.16" clip-rule="nonzero"/>
                            </clipPath>
                            <g clip-path="url(#_clip1)">
                                <path d="M0,47.316L-2.128,39.677L10.881,31.3L8.989,24.15L7.568,6.158L10.644,3.447L17.502,5.666L25.07,-1.483L29.092,-20.459L33.585,-22.922C33.585,-22.922 129.14,-19.227 131.741,-17.5C134.343,-15.776 132.215,16.511 132.215,16.511L145.694,23.166L148.296,32.777L144.039,46.826L148.06,60.134C148.06,60.134 153.973,61.615 153.499,63.584C153.028,65.556 151.607,70.238 151.607,70.238L143.566,66.543L139.31,68.761L139.783,61.615L136.944,60.629L133.633,62.351L130.084,60.38L126.774,61.859L94.844,45.593L83.964,47.316L83.018,50.027L75.212,49.291L73.084,53.726L35.477,45.099L32.167,47.072L32.641,51.015L14.427,44.361C14.427,44.361 12.062,46.086 11.117,46.58C10.17,47.072 0,47.316 0,47.316" style="fill:rgb(164,230,157);fill-rule:nonzero;"/>
                            </g>
                        </g>
                    </g>
                </g>
                <g>
                    <g opacity="0">
                        <g transform="matrix(1,0,0,1,696.07,717.38)">
                            <clipPath id="_clip2">
                                <rect x="-2.842" y="-23.636" width="157.083" height="94.588" clip-rule="nonzero"/>
                            </clipPath>
                            <g clip-path="url(#_clip2)">
                                <path d="M0,47.316L-2.128,39.677L10.881,31.3L8.989,24.15L7.568,6.158L10.644,3.447L17.502,5.666L25.07,-1.483L29.092,-20.459L33.585,-22.922C33.585,-22.922 129.14,-19.227 131.741,-17.5C134.343,-15.776 132.215,16.511 132.215,16.511L145.694,23.166L148.296,32.777L144.039,46.826L148.06,60.134C148.06,60.134 153.973,61.615 153.499,63.584C153.028,65.556 151.607,70.238 151.607,70.238L143.566,66.543L139.31,68.761L139.783,61.615L136.944,60.629L133.633,62.351L130.084,60.38L126.774,61.859L94.844,45.593L83.964,47.316L83.018,50.027L75.212,49.291L73.084,53.726L35.477,45.099L32.167,47.072L32.641,51.015L14.427,44.361C14.427,44.361 12.062,46.086 11.117,46.58C10.17,47.072 0,47.316 0,47.316Z" style="fill:rgb(164,230,157);fill-rule:nonzero;stroke:rgb(51,51,51);stroke-width:1.43px;stroke-linecap:butt;stroke-miterlimit:4;"/>
                            </g>
                        </g>
                    </g>
                </g>
            </g>
        </g>
        <g id="Lampung" transform="matrix(1,0,0,1,389.78,612.384)">
            <path d="M0,3.944L4.258,0.249L5.203,5.671L10.644,6.409L19.158,4.684L29.329,-17.497L45.885,-26.619L61.021,-33.027L61.495,-39.679L67.172,-40.417L70.719,-44.363L74.74,-43.378L79.943,-34.995L84.201,-30.56L90.823,-29.822L90.35,-23.66L94.844,-14.786L94.371,-9.859L95.316,-7.148L92.715,-0.494L94.844,1.973L89.641,42.639L85.62,45.842L67.408,27.11L67.408,31.055L65.042,34.012L65.516,40.665L60.786,41.407L42.337,28.837L37.37,30.807L43.283,41.899L42.337,48.307L38.553,48.061L36.66,43.132L26.728,34.751L26.963,32.288L14.901,21.688L14.191,17.499L9.934,14.296L10.644,12.077L3.548,7.639L0,3.944Z" style="fill:rgb(164,230,157);fill-rule:nonzero;stroke:rgb(51,51,51);stroke-width:1.43px;stroke-linecap:butt;stroke-miterlimit:4;"/>
        </g>
        <g id="Sumatera-Selatan" serif:id="Sumatera Selatan" transform="matrix(1,0,0,1,323.083,569.499)">
            <path d="M0,-46.58L25.544,-60.136L26.253,-67.282L35.714,-68.762L39.972,-73.197L42.337,-71.474L44.465,-63.833L47.776,-63.833L55.345,-71.474L55.817,-78.126L74.503,-90.45L88.93,-88.233L93.896,-87.739L95.789,-91.189L96.735,-94.886L103.121,-95.38L104.304,-91.189L101.938,-87.49L103.121,-84.535L104.777,-87.984L109.034,-83.795L108.324,-81.577L112.818,-80.591L115.42,-81.331L118.259,-76.402L117.076,-70.733L111.399,-65.064L107.852,-64.324L112.108,-62.353L110.926,-56.932L105.25,-52.247L104.067,-47.811L108.324,-53.48L112.818,-55.207L114.001,-63.34L118.495,-67.529L119.678,-64.078L122.279,-66.789L126.536,-64.571L134.105,-66.544L147.114,-62.6L149.716,-63.833L148.769,-56.932L148.769,-54.714L157.993,-49.291L157.284,-42.144L159.648,-39.679L165.798,-39.434L167.454,-35.489L168.637,-28.589L161.777,-20.208L157.993,-6.159L164.144,-0.243L157.521,14.05L150.898,12.569L141.674,0.001L137.416,-1.724L133.869,2.218L127.955,2.218L127.719,10.107L96.026,25.88L85.619,48.306L73.083,48.8L70.719,43.378L64.332,29.085L54.635,21.689L47.066,18.733L40.444,17.747L23.178,-1.477L26.49,-4.681L41.154,-16.018L28.854,-23.905L20.813,-23.167L15.847,-27.11L15.847,-31.546L8.75,-34.257L0,-46.58Z" style="fill:rgb(164,230,157);fill-rule:nonzero;stroke:rgb(51,51,51);stroke-width:1.43px;stroke-linecap:butt;stroke-miterlimit:4;"/>
        </g>
        <g id="Bengkulu" transform="matrix(1,0,0,1,280.746,606.469)">
            <path d="M0,-96.612L6.858,-104.005L13.481,-107.456L18.448,-103.265L18.448,-98.091L23.651,-91.189L35.24,-84.537L42.337,-82.81L50.615,-70.488L58.42,-68.021L58.656,-63.832L62.678,-59.644L70.719,-60.629L81.599,-52.742L82.072,-49.537L71.429,-44.361L69.536,-38.693L66.462,-37.707L83.018,-19.468L100.521,-13.306L108.325,-6.16L112.109,4.192L113.056,6.903L109.508,10.844L97.682,3.944L94.37,3.453L92.951,-0.244L52.271,-32.285L53.453,-35.982L49.433,-46.334L23.416,-64.326L17.502,-73.199L10.171,-87.492L0,-96.612Z" style="fill:rgb(164,230,157);fill-rule:nonzero;stroke:rgb(51,51,51);stroke-width:1.43px;stroke-linecap:butt;stroke-miterlimit:4;"/>
        </g>
        <g id="Jambi" transform="matrix(1,0,0,1,380.557,522.426)">
            <path d="M0,-87.985L-26.49,-88.725L-32.403,-82.317L-34.768,-75.417L-38.316,-74.676L-50.378,-83.056L-63.387,-82.809L-69.773,-75.909L-81.362,-54.961L-88.221,-39.186L-89.404,-29.573L-85.384,-23.167L-81.835,-19.715L-80.889,-14.294L-73.793,-5.173L-63.623,-0.245L-57.947,0.74L-30.983,-13.555L-30.512,-21.44L-21.051,-21.688L-17.267,-26.124L-15.137,-23.906L-12.772,-16.759L-8.751,-16.511L-1.656,-24.644L-1.42,-31.547L18.685,-44.116L35.478,-40.911L40.681,-47.319L44.938,-47.812L42.809,-58.903L43.282,-61.861L40.444,-69.007L41.391,-72.459L39.024,-75.909L32.167,-74.429L28.382,-76.648L22.232,-78.374L18.685,-78.374L16.792,-74.923L0,-87.985Z" style="fill:rgb(164,230,157);fill-rule:nonzero;stroke:rgb(51,51,51);stroke-width:1.43px;stroke-linecap:butt;stroke-miterlimit:4;"/>
        </g>
        <g id="Sumatera-Barat" serif:id="Sumatera Barat" transform="matrix(1,0,0,1,202.932,484.471)">
            <path d="M0,-95.379L10.881,-108.935L24.835,-104.253L29.328,-106.224L29.328,-109.922L23.889,-119.04L25.544,-121.258L39.972,-116.329L40.682,-107.949L47.776,-101.788L54.398,-102.527L68.117,-91.19L68.354,-85.768L66.462,-77.634L87.512,-49.291L93.188,-43.623L106.197,-37.708L89.168,-1.232L87.985,8.873L92.006,14.049L85.146,18.239L77.104,25.879L69.3,11.584L71.901,3.204L58.183,-25.631L48.959,-33.764L51.088,-37.708L47.541,-47.813L27.199,-70.733L26.254,-73.938L24.361,-77.634L24.598,-80.099L12.3,-90.697L9.698,-90.697L7.568,-93.408L2.365,-91.93L0,-95.379Z" style="fill:rgb(164,230,157);fill-rule:nonzero;stroke:rgb(51,51,51);stroke-width:1.43px;stroke-linecap:butt;stroke-miterlimit:4;"/>
        </g>
        <g id="Pulau-Siberut" serif:id="Pulau Siberut" transform="matrix(1,0,0,1,178.571,469.683)">
            <path d="M0,-17.743L4.493,-27.602L7.805,-26.617L11.353,-28.096L15.137,-27.602L14.427,-24.152L22.941,-8.378L24.598,-3.942L28.618,2.22L24.598,9.12L22.232,10.353L9.696,2.22L9.46,-1.723L0,-17.743Z" style="fill:rgb(164,230,157);fill-rule:nonzero;stroke:rgb(51,51,51);stroke-width:1.43px;stroke-linecap:butt;stroke-miterlimit:4;"/>
        </g>
        <g transform="matrix(1,0,0,1,219.488,500.244)">
            <path d="M0,-6.407L-0.71,-10.595L2.838,-10.845L13.245,4.438L-0.946,-2.712L0,-6.407Z" style="fill:rgb(164,230,157);fill-rule:nonzero;stroke:rgb(51,51,51);stroke-width:1.43px;stroke-linecap:butt;stroke-miterlimit:4;"/>
        </g>
        <g transform="matrix(1,0,0,1,237.699,525.137)">
            <path d="M0,-15.28L8.042,-7.393L7.333,-3.449L4.258,-0.984L1.893,0L-0.236,-5.423L0.237,-8.134L0,-15.28Z" style="fill:rgb(164,230,157);fill-rule:nonzero;stroke:rgb(51,51,51);stroke-width:1.43px;stroke-linecap:butt;stroke-miterlimit:4;"/>
        </g>
        <g transform="matrix(1,0,0,1,248.343,547.074)">
            <path d="M0,-24.155L10.17,-12.818L10.17,-11.093L6.149,-9.367L9.461,0L3.548,-5.177L3.548,-9.121L-2.128,-15.775L-3.311,-22.676L0,-24.155Z" style="fill:rgb(164,230,157);fill-rule:nonzero;stroke:rgb(51,51,51);stroke-width:1.43px;stroke-linecap:butt;stroke-miterlimit:4;"/>
        </g>
        <g id="Riau" transform="matrix(1,0,0,1,247.855,447.29)">
            <path d="M0,-161.029L6.689,-149.527L11.038,-140.813L20.738,-136.979L26.424,-131.053L29.435,-124.431L26.759,-134.19L23.748,-138.374L25.421,-146.042L35.121,-145.692L33.449,-144.996L35.121,-141.859L44.82,-135.933L46.158,-126.872L49.169,-120.597L54.855,-118.157L61.211,-118.854L78.938,-106.655L79.942,-99.336L82.617,-96.199L81.949,-90.273L95.663,-78.771L109.043,-78.075L117.739,-72.149L118.073,-68.315L100.345,-55.419L92.318,-55.07L98.005,-53.328L109.376,-58.208L129.78,-68.664L138.477,-63.784L140.483,-58.904L143.494,-60.299L148.511,-46.704L139.48,-42.522L131.118,-36.249L133.794,-33.809C133.794,-33.809 129.111,-29.278 130.449,-29.278C131.787,-29.278 139.48,-25.792 139.48,-25.792L130.783,-24.05L130.783,-13.592L106.701,-14.29L100.012,-8.016L98.673,-0.347L95.328,0L82.952,-8.365L68.234,-8.365L61.88,0L47.497,-5.925L21.406,-40.78L23.079,-50.887L23.414,-54.024L9.365,-64.48L4.014,-64.48L-4.683,-71.104L-5.018,-79.468L-3.011,-98.29L-8.697,-105.959L6.355,-116.066L6.355,-121.643L-0.335,-132.099L1.004,-140.813L-0.335,-146.39L0,-161.029Z" style="fill:rgb(164,230,157);fill-rule:nonzero;stroke:rgb(51,51,51);stroke-width:1.43px;stroke-linecap:butt;stroke-miterlimit:4;"/>
        </g>
        <g transform="matrix(1,0,0,1,299.699,323.556)">
            <path d="M0,-11.502L3.011,-12.547L6.69,-14.987L13.045,-8.017L9.7,-2.788L10.035,1.046L5.017,3.485L-1.673,0.697L-3.68,-8.365L0,-11.502Z" style="fill:rgb(164,230,157);fill-rule:nonzero;stroke:rgb(51,51,51);stroke-width:1.43px;stroke-linecap:butt;stroke-miterlimit:4;"/>
        </g>
        <g transform="matrix(1,0,0,1,324.117,345.165)">
            <path d="M0,-14.289L16.056,-10.805L18.73,-4.53L18.73,0L13.714,-1.045L8.696,-5.925L4.683,-5.925L-1.004,-11.152L-3.345,-12.895L0,-14.289Z" style="fill:rgb(164,230,157);fill-rule:nonzero;stroke:rgb(51,51,51);stroke-width:1.43px;stroke-linecap:butt;stroke-miterlimit:4;"/>
        </g>
        <g transform="matrix(1,0,0,1,332.145,361.547)">
            <path d="M0,-20.563L9.031,-12.895L7.358,-8.712L8.028,-4.181L5.687,0L-0.335,-6.273L0.335,-11.152L-1.003,-14.637L-2.676,-20.215L0,-20.563Z" style="fill:rgb(164,230,157);fill-rule:nonzero;stroke:rgb(51,51,51);stroke-width:1.43px;stroke-linecap:butt;stroke-miterlimit:4;"/>
        </g>
        <g transform="matrix(1,0,0,1,349.872,359.458)">
            <path d="M0,-4.184L5.352,-2.789L17.394,4.879L21.073,4.181L14.718,-3.835L1.672,-9.063L0,-4.184Z" style="fill:rgb(164,230,157);fill-rule:nonzero;stroke:rgb(51,51,51);stroke-width:1.43px;stroke-linecap:butt;stroke-miterlimit:4;"/>
        </g>
        <g transform="matrix(1,0,0,1,344.52,370.262)">
            <path d="M0,-18.125L5.352,-12.2L8.362,-11.851L19.4,-6.623L20.069,0L13.714,-2.789L2.342,-3.485L-5.018,-6.971L-2.341,-12.549L0,-18.125Z" style="fill:rgb(164,230,157);fill-rule:nonzero;stroke:rgb(51,51,51);stroke-width:1.43px;stroke-linecap:butt;stroke-miterlimit:4;"/>
        </g>
        <g id="Pulau-Bangka" serif:id="Pulau Bangka" transform="matrix(1,0,0,1,452.225,515.261)">
            <path d="M0,-28.586L10.37,-35.208L7.358,-39.389L12.377,-45.315L20.739,-46.709L24.083,-37.995L27.763,-37.647L26.091,-47.405L31.777,-48.8L42.815,-34.161L41.812,-26.146L48.167,-9.066L65.56,-2.791L62.215,9.409L65.56,16.727L57.866,20.214L51.847,15.681L36.459,9.058L32.111,-0.004L35.122,-6.973L28.433,-12.551L28.433,-22.659L16.725,-23.355L7.025,-20.568L-0.668,-24.401L0,-28.586Z" style="fill:rgb(164,230,157);fill-rule:nonzero;stroke:rgb(51,51,51);stroke-width:1.43px;stroke-linecap:butt;stroke-miterlimit:4;"/>
        </g>
        <g id="Pulau-Belitung" serif:id="Pulau Belitung" transform="matrix(1,0,0,1,554.244,520.833)">
            <path d="M0,16.384L4.013,-8.363L19.734,-6.97L30.104,1.046L28.431,6.623L26.758,19.868C26.758,19.868 22.075,24.747 20.737,24.402C19.399,24.05 9.699,16.732 9.699,16.732L3.345,20.915L0,16.384Z" style="fill:rgb(164,230,157);fill-rule:nonzero;stroke:rgb(51,51,51);stroke-width:1.43px;stroke-linecap:butt;stroke-miterlimit:4;"/>
        </g>
        <g>
            <g opacity="0">
                <g transform="matrix(1,0,0,1,461.682,543.621)">
                    <path d="M0,-74.924L9.461,-77.881L26.49,-80.838L38.79,-67.037L38.79,-52.248L41.627,-41.404L56.765,-34.502L105.014,-34.502L124.882,-28.589L127.72,-20.702L123.935,-1.969L117.313,5.914L102.176,-2.957L92.715,0L87.984,-6.901L94.607,-32.533L59.604,-31.547L58.656,-20.702L61.494,-13.801L57.71,-6.901L47.304,-5.914L29.329,-15.774L20.813,-24.645L23.652,-35.489L16.084,-41.404L17.029,-48.307L-0.945,-47.32L-13.245,-55.206L-3.784,-64.079L-4.729,-67.037L0,-74.924Z" style="fill:rgb(164,230,157);fill-rule:nonzero;"/>
                </g>
            </g>
        </g>
        <g>
            <g opacity="0">
                <g transform="matrix(1,0,0,1,461.682,543.621)">
                    <path d="M0,-74.924L9.461,-77.881L26.49,-80.838L38.79,-67.037L38.79,-52.248L41.627,-41.404L56.765,-34.502L105.014,-34.502L124.882,-28.589L127.72,-20.702L123.935,-1.969L117.313,5.914L102.176,-2.957L92.715,0L87.984,-6.901L94.607,-32.533L59.604,-31.547L58.656,-20.702L61.494,-13.801L57.71,-6.901L47.304,-5.914L29.329,-15.774L20.813,-24.645L23.652,-35.489L16.084,-41.404L17.029,-48.307L-0.945,-47.32L-13.245,-55.206L-3.784,-64.079L-4.729,-67.037L0,-74.924Z" style="fill:rgb(164,230,157);fill-rule:nonzero;stroke:rgb(82,158,86);stroke-width:1.43px;stroke-linecap:butt;stroke-miterlimit:4;"/>
                </g>
            </g>
        </g>
        <g id="Sumatera-Utara" serif:id="Sumatera Utara" transform="matrix(1,0,0,1,152.79,297.408)">
            <path d="M0,4.928C0.474,3.943 2.365,-21.195 2.365,-21.195L3.549,-25.633L-2.602,-37.462L-2.602,-46.828L-7.805,-60.876L0.474,-70.734L4.494,-80.593L13.009,-86.262L13.245,-75.172L26.727,-67.777L30.748,-66.298L33.112,-58.905L51.324,-51.263L62.441,-42.885L66.226,-37.709L73.557,-35.244L80.18,-26.372L85.856,-22.675L83.728,-15.773L84.673,-10.598L85.146,-14.541L87.984,-13.555L88.222,-8.874L90.35,-5.916L89.877,-10.106L90.113,-13.309L93.425,-13.309L95.79,-12.077L94.37,4.19L96.263,8.872L95.081,17.744L101.938,27.604L101.467,33.765L86.802,44.116L91.532,51.016L89.167,70.241L75.213,65.312L73.32,68.516L79.233,76.896L79.47,80.839L75.213,83.057L61.022,78.128L49.669,91.19L37.37,48.06L30.984,35.737L33.821,34.75L35.951,31.793L33.586,27.604L30.038,28.096L18.922,16.759L14.901,16.759L0,4.928Z" style="fill:rgb(164,230,157);fill-rule:nonzero;stroke:rgb(51,51,51);stroke-width:1.43px;stroke-linecap:butt;stroke-miterlimit:4;"/>
        </g>
        <g id="Pulau-Nias" serif:id="Pulau Nias" transform="matrix(1,0,0,1,116.13,372.578)">
            <path d="M0,-33.764L7.805,-32.532L12.771,-37.708L25.544,-22.428L29.328,-22.181L30.511,-18.485L34.769,-15.774L34.059,-10.843L32.876,0.986L29.565,3.944L23.415,0.986L20.813,-8.379L15.847,-12.076L10.17,-12.816L0,-33.764Z" style="fill:rgb(164,230,157);fill-rule:nonzero;stroke:rgb(51,51,51);stroke-width:1.43px;stroke-linecap:butt;stroke-miterlimit:4;"/>
        </g>
        <g id="Aceh" transform="matrix(1,0,0,1,38.7881,298.147)">
            <path d="M0,-140.483L8.516,-144.426L12.3,-140.975L16.558,-141.962L28.855,-137.526L37.371,-126.188L44.466,-126.681L49.196,-124.217L63.861,-126.188L77.104,-126.681L81.362,-120.766L93.188,-125.203L104.541,-114.85L113.056,-107.458L114.476,-97.105L125.828,-92.176L126.773,-86.754L119.205,-82.318L115.421,-71.473L106.434,-62.108L111.163,-45.348L111.163,-38.941L117.313,-27.111L112.583,3.943L101.23,-0.001L96.973,-22.181C96.973,-22.181 88.459,-27.111 86.565,-28.59C84.675,-30.068 83.255,-36.97 83.255,-36.97L65.279,-60.629L51.562,-60.629L39.735,-77.389L35.006,-77.389L6.15,-108.443L0.474,-128.653L0,-135.061L0,-140.483Z" style="fill:rgb(164,230,157);fill-rule:nonzero;stroke:rgb(51,51,51);stroke-width:1.43px;stroke-linecap:butt;stroke-miterlimit:4;"/>
        </g>
        <g transform="matrix(1,0,0,1,58.1836,293.958)">
            <path d="M0,-15.528L2.602,-17.253L3.784,-20.457L8.041,-20.211L8.987,-16.759L17.976,-12.323L17.265,-8.874L21.522,-8.134L27.437,-1.972L28.146,0.493L30.51,0.739L31.93,4.682L26.963,4.929L25.544,3.943C25.544,3.943 27.672,2.218 26.253,1.971C24.835,1.724 12.771,-6.901 12.771,-6.901L9.224,-5.424L3.548,-9.367L0,-15.528Z" style="fill:rgb(164,230,157);fill-rule:nonzero;stroke:rgb(51,51,51);stroke-width:1.43px;stroke-linecap:butt;stroke-miterlimit:4;"/>
        </g>
        <g transform="matrix(1,0,0,1,414.142,360.995)">
            <path d="M0,-7.394L6.622,-11.337L12.772,-11.583L19.631,-4.683L17.503,0.986L13.245,4.189L9.697,0.493L8.988,-5.176L2.602,-3.204L0,-7.394Z" style="fill:rgb(164,230,157);fill-rule:nonzero;stroke:rgb(51,51,51);stroke-width:1.43px;stroke-linecap:butt;stroke-miterlimit:4;"/>
        </g>
        <g transform="matrix(1,0,0,1,427.15,415.216)">
            <path d="M0,-13.802L3.548,-14.048L4.494,-9.612L10.171,-6.408L13.718,-7.394L19.867,-1.233L16.319,0.246L6.149,-5.176L-1.419,-1.725L-3.548,-3.45L0,-13.802Z" style="fill:rgb(164,230,157);fill-rule:nonzero;stroke:rgb(51,51,51);stroke-width:1.43px;stroke-linecap:butt;stroke-miterlimit:4;"/>
        </g>
        <g transform="matrix(1,0,0,1,401.843,352.861)">
            <path d="M0,2.465L3.312,-2.957L6.623,-2.218L9.697,-1.232L9.225,2.219L6.386,5.422L0,4.437L0,2.465Z" style="fill:rgb(164,230,157);fill-rule:nonzero;stroke:rgb(51,51,51);stroke-width:1.43px;stroke-linecap:butt;stroke-miterlimit:4;"/>
        </g>
        <g transform="matrix(-0.480792,-0.876835,-0.876835,0.480792,414.812,361.139)">
            <path d="M-3.725,4.695L4.145,4.695L-0.484,2.918L-1.849,0.428L-3.725,4.695Z" style="fill:rgb(164,230,157);fill-rule:nonzero;stroke:rgb(51,51,51);stroke-width:1.43px;stroke-linecap:butt;stroke-miterlimit:4;"/>
        </g>
        <g transform="matrix(0.950898,0.309504,0.309504,-0.950898,426.56,389.498)">
            <path d="M-0.842,-1.487L1.972,-1.487L9.372,-5.309L3.051,-4.801L-0.842,-1.487Z" style="fill:rgb(164,230,157);fill-rule:nonzero;stroke:rgb(51,51,51);stroke-width:1.43px;stroke-linecap:butt;stroke-miterlimit:4;"/>
        </g>
        <g transform="matrix(1,0,0,1,418.275,428.991)">
            <path d="M0,-12.373L0.668,-9.236L6.522,-13.07L9.365,-10.281L10.87,-6.448L9.197,-3.31L4.85,-2.265L1.839,0.697L1.003,-2.788L-2.844,-6.1L-3.012,-9.585L0.836,-12.547L0,-12.373Z" style="fill:rgb(164,230,157);fill-rule:nonzero;stroke:rgb(51,51,51);stroke-width:1.43px;stroke-linecap:butt;stroke-miterlimit:4;"/>
        </g>
        <g id="Kepulauan-Riau" serif:id="Kepulauan Riau" transform="matrix(1,0,0,1,571.637,233.63)">
            <path d="M0,-7.668C0.836,-7.668 8.529,-16.382 8.529,-16.382L14.55,-8.888L16.892,-7.668L17.728,-0.175L13.881,6.1L7.525,8.714L4.349,6.971L7.19,3.311L10.034,3.311L7.19,0.872L2.843,-0.871L0,-7.668Z" style="fill:rgb(164,230,157);fill-rule:nonzero;stroke:rgb(51,51,51);stroke-width:1.43px;stroke-linecap:butt;stroke-miterlimit:4;"/>
        </g>
        <g>
            <g opacity="0">
                <g transform="matrix(1,0,0,1,573.792,414.757)">
                    <path d="M0,-182.415L-2.366,-189.07L7.331,-197.695L12.062,-190.548L15.846,-188.33L14.899,-180.936L11.824,-175.514L4.967,-171.817L2.128,-172.803L4.729,-177.979L2.128,-181.923L-141.675,-52.776L-139.31,-58.938L-147.352,-65.346L-152.791,-65.1L-158.94,-60.171L-161.306,-63.375L-168.874,-65.593L-172.186,-59.431L-171.712,-58.445L-166.036,-56.966L-161.779,-59.185L-157.995,-59.185L-156.575,-56.227L-164.381,-54.748L-160.833,-48.341L-157.995,-52.037L-161.542,-52.776L-155.016,-57.915L-149.998,-58.786L-149.329,-53.906L-146.151,-50.073L-142.305,-51.641L-147.656,-23.582L-144.646,-23.234L-140.8,-18.703L-145.817,-20.098L-146.987,-21.84L-147.155,-13.649L-143.308,-13.3L-141.469,-8.943L-137.288,-5.981L-132.604,-6.678L-127.253,-0.578L-129.595,1.164L-140.131,-4.413L-148.158,-0.927L-148.158,2.035L-144.813,5.522L-144.813,7.089L-145.817,11.273L-149.664,12.144L-153.51,15.28L-154.681,10.924L-158.861,8.483L-158.528,4.824L-155.016,2.21L-154.013,4.998L-149.162,1.513L-149.998,-3.019L-146.82,-12.255L-146.82,-51.118L0,-182.415Z" style="fill:rgb(164,230,157);fill-rule:nonzero;"/>
                </g>
            </g>
        </g>
        <g>
            <g opacity="0">
                <g transform="matrix(1,0,0,1,573.792,414.757)">
                    <path d="M0,-182.415L-2.366,-189.07L7.331,-197.695L12.062,-190.548L15.846,-188.33L14.899,-180.936L11.824,-175.514L4.967,-171.817L2.128,-172.803L4.729,-177.979L2.128,-181.923L-141.675,-52.776L-139.31,-58.938L-147.352,-65.346L-152.791,-65.1L-158.94,-60.171L-161.306,-63.375L-168.874,-65.593L-172.186,-59.431L-171.712,-58.445L-166.036,-56.966L-161.779,-59.185L-157.995,-59.185L-156.575,-56.227L-164.381,-54.748L-160.833,-48.341L-157.995,-52.037L-161.542,-52.776L-155.016,-57.915L-149.998,-58.786L-149.329,-53.906L-146.151,-50.073L-142.305,-51.641L-147.656,-23.582L-144.646,-23.234L-140.8,-18.703L-145.817,-20.098L-146.987,-21.84L-147.155,-13.649L-143.308,-13.3L-141.469,-8.943L-137.288,-5.981L-132.604,-6.678L-127.253,-0.578L-129.595,1.164L-140.131,-4.413L-148.158,-0.927L-148.158,2.035L-144.813,5.522L-144.813,7.089L-145.817,11.273L-149.664,12.144L-153.51,15.28L-154.681,10.924L-158.861,8.483L-158.528,4.824L-155.016,2.21L-154.013,4.998L-149.162,1.513L-149.998,-3.019L-146.82,-12.255L-146.82,-51.118L0,-182.415Z" style="fill:rgb(164,230,157);fill-rule:nonzero;stroke:rgb(82,158,86);stroke-width:1.43px;stroke-linecap:butt;stroke-miterlimit:4;"/>
                </g>
            </g>
        </g>
        <g id="Kalimantan-Barat" serif:id="Kalimantan Barat" transform="matrix(1,0,0,1,640.876,535.474)">
            <path d="M0,-224.815L-4.015,-214.707L-1.339,-212.267L1.003,-206.691L7.692,-196.931L13.044,-193.096L15.721,-189.263L38.13,-171.487L47.831,-174.972L67.9,-181.247L73.251,-177.761L77.601,-179.155L79.272,-177.413L85.628,-179.503L89.642,-177.413L92.987,-178.458L94.994,-184.035L103.021,-185.08L106.701,-197.627L120.748,-203.553L131.451,-202.16L136.135,-203.902L142.824,-202.16L141.152,-198.325L154.532,-192.4L157.543,-190.657L164.9,-192.749L167.576,-189.263L178.949,-195.885L189.987,-198.674L189.317,-188.217L177.612,-182.64L175.271,-176.367L178.949,-168.002L178.279,-162.424L168.246,-158.59L159.885,-146.043L157.878,-125.479L150.519,-123.736L148.512,-112.583L103.355,-101.081L97.335,-101.428L80.61,-89.926L61.545,-67.271L53.851,-66.574L56.527,-58.906L54.186,-46.706L60.541,-31.719L59.871,-20.916L60.541,-13.942L53.184,-8.715L46.159,-5.927L43.817,0L40.137,-1.396L35.789,-9.062L24.417,-4.533L23.413,-8.018L23.747,-18.475L20.737,-20.916L24.082,-23.355L18.73,-34.506L18.396,-39.04L19.065,-44.266L16.724,-49.843L11.372,-54.026L11.037,-58.209L17.728,-62.74L16.055,-78.077L11.037,-80.864L10.368,-86.093L5.686,-89.23L3.679,-95.852L-1.339,-93.76L-4.684,-95.852L-11.038,-94.806L-17.06,-100.035L-16.39,-104.217L-6.021,-102.474L-11.708,-105.961L-11.708,-109.794L-22.746,-112.583L-20.404,-119.205L-24.753,-126.175L-19.066,-125.827L-20.069,-135.238L-16.39,-135.238L-26.426,-147.785L-29.101,-147.785L-32.445,-158.242L-31.777,-161.727L-34.452,-171.487L-28.766,-174.624L-30.104,-185.429L-26.091,-186.474L-16.725,-194.839L-27.094,-188.565L-24.753,-193.794L-24.753,-200.417L-13.046,-211.57L-12.377,-218.193L-4.349,-220.632L0,-224.815Z" style="fill:rgb(164,230,157);fill-rule:nonzero;stroke:rgb(51,51,51);stroke-width:1.43px;stroke-linecap:butt;stroke-miterlimit:4;"/>
        </g>
        <g transform="matrix(1,0,0,1,631.342,447.116)">
            <path d="M0,7.495L1.673,-0.173L1.673,-2.787L8.028,-3.136L13.046,-1.393L14.05,2.44L11.875,5.403L2.342,10.631L0,7.495Z" style="fill:rgb(164,230,157);fill-rule:nonzero;stroke:rgb(51,51,51);stroke-width:1.43px;stroke-linecap:butt;stroke-miterlimit:4;"/>
        </g>
        <g id="Kalimantan-Tengah" serif:id="Kalimantan Tengah" transform="matrix(1,0,0,1,819.769,554.466)">
            <path d="M0,-182.381L20.813,-179.423L42.101,-185.339L48.722,-180.409L48.248,-168.579L43.045,-149.849L44.938,-147.876L54.398,-154.777L56.764,-141.469L56.29,-132.103L61.021,-125.694L61.493,-112.879L75.686,-104.992L77.104,-97.105L70.482,-89.218L66.224,-89.218L53.452,-57.178L37.842,-54.714L40.207,-41.899L35.004,-37.956L34.532,-32.04L21.758,-28.096L16.555,-15.775L16.084,-9.366L10.407,-4.931L7.568,-6.407L7.568,-13.308L2.839,-5.915L-8.042,-0.493L-14.191,-3.45L-12.3,-11.829L-15.137,-15.775L-23.651,-10.845L-32.641,-17.251L-32.641,-19.716L-38.788,-23.167L-41.627,-14.294L-57.71,-2.464L-70.011,-8.872L-74.268,-7.392L-83.254,2.958L-89.877,0.985L-87.985,-11.337L-87.985,-16.267L-92.716,-30.561L-95.08,-24.646L-100.284,-22.181L-108.799,-25.138L-124.409,-17.251L-133.396,-24.646L-119.206,-32.534L-118.259,-52.249L-124.409,-64.573L-122.516,-77.389L-125.827,-87.739L-117.785,-86.754L-98.393,-109.428L-80.889,-121.751L-31.22,-131.116L-27.91,-142.947L-20.813,-144.918L-18.448,-167.1L-10.88,-178.93L0,-182.381Z" style="fill:rgb(164,230,157);fill-rule:nonzero;stroke:rgb(51,51,51);stroke-width:1.43px;stroke-linecap:butt;stroke-miterlimit:4;"/>
        </g>
        <g id="Kalimantan-Utara---Kalimantan-Timur" serif:id="Kalimantan Utara + Kalimantan Timur" transform="matrix(1,0,0,1,18.4771,-18.4557)">
            <path d="M828.107,356.999L837.319,361.348L843.815,365.898L845.67,369.692L854.022,369.692L861.445,374.172L873.508,369.692L876.291,360.934L881.859,352.247L889.746,349.351L899.893,343.974L904.128,327.34L908.304,317.913L915.727,316.258L919.439,311.294L927.326,311.708L936.141,315.431L942.173,313.776L945.884,312.121L953.771,315.431L961.195,318.326L966.298,319.981L974.611,320.402L965.915,331.207L961.902,332.252L967.921,336.436L973.609,344.103L985.984,353.514L991.337,359.091L997.357,361.182L1005.72,371.29L1012.41,373.382L1003.38,384.884L998.027,383.49L996.019,384.884L987.992,382.444L986.654,384.187L972.939,378.61L967.253,371.29L972.269,382.792L972.269,385.58L964.578,383.49L949.191,417.298L951.199,421.481L946.851,432.984L950.195,435.772L947.517,442.394L955.212,439.257L952.535,446.926L953.204,449.365L951.533,454.941L942.837,458.428L939.492,454.244L939.492,459.821L931.128,471.324L924.105,475.157L918.419,465.746L916.745,468.883L919.086,478.294L909.721,484.917L910.055,490.493L898.35,495.373L898.683,498.509L901.024,496.419L907.046,500.603L907.379,509.664L900.022,513.497L905.372,513.149L905.372,514.196L912.062,515.938L911.73,520.818L886.977,516.985L887.645,506.875L885.973,495.722L889.652,490.843L890.321,481.781L879.284,474.809L876.272,466.792L861.89,459.473L862.893,446.926L857.542,440.999L858.544,430.544L855.87,417.995L846.169,425.664L843.494,423.573L849.513,401.962L850.518,391.506L843.494,386.278L823.089,392.9L802.352,390.112L800.678,385.929L797.669,378.261L799.676,370.245L811.383,365.713L813.39,356.303L823.089,353.864L828.107,356.999L828.777,348.285L835.345,337.907L837.106,323.71L846.163,316.403L854.433,308.503L850.484,303.144L848.225,295.167L856.06,287.144L859.321,289.496L866.94,286.284L871.382,268.255L871.247,248.597L876.342,236.574L883.175,232.722L882.912,227.526L889.798,232.63L896.008,229.439L905.253,230.361L940.16,229.779L949.527,236.402L954.876,236.402L951.533,240.237L943.503,239.19L947.185,241.979L954.542,247.904L964.244,259.057L956.548,261.15L950.195,256.966L951.199,262.892L943.839,260.103L933.806,262.542L940.16,268.817L947.517,272.652L943.169,278.925L948.857,284.501L956.216,285.546L952.535,290.776L956.216,296.7L961.902,300.883L968.257,309.597L974.611,320.402L966.298,319.981L961.195,318.326L953.771,315.431L945.884,312.121L942.173,313.776L936.141,315.431L927.326,311.708L919.439,311.294L915.727,316.258L908.304,317.913L904.128,327.34L899.893,343.974L889.746,349.351L881.859,352.247L876.291,360.934L873.508,369.692L861.445,374.172L854.022,369.692L845.67,369.692L843.815,365.898L837.319,361.348L828.107,356.999Z" style="fill:rgb(164,230,157);stroke:rgb(51,51,51);stroke-width:1.43px;stroke-linecap:butt;stroke-miterlimit:4;"/>
        </g>
        <g id="Kalimantan-Selatan" serif:id="Kalimantan Selatan" transform="matrix(1,0,0,1,833.015,491.864)">
            <path d="M0,56.441L8.986,62.109L12.535,53.976L11.588,62.849L14.19,68.023L14.427,88.236L17.976,91.931L62.677,70.984L65.042,67.285L71.9,66.054L76.394,52.25L81.599,45.597L78.051,36.476L78.997,33.273L82.544,40.175L89.167,35L88.931,22.921L86.565,22.921L86.329,18.98L95.315,20.211L97.209,9.86L72.137,6.162L73.084,-5.175L70.245,-15.525L74.738,-19.715L75.449,-28.835L64.568,-35.49L58.182,-26.863L52.034,-26.863L40.443,5.918L24.36,7.149L26.962,20.951L21.521,24.646L21.995,31.055L8.986,34.753L2.839,47.814L2.839,53.484L0,56.441" style="fill:rgb(164,230,157);fill-rule:nonzero;stroke:rgb(51,51,51);stroke-width:1.43px;stroke-linecap:butt;stroke-miterlimit:4;"/>
        </g>
        <g transform="matrix(1,0,0,1,905.861,558.901)">
            <path d="M0,1.728L5.204,-11.827L10.644,-16.512L11.825,-12.569L10.881,-10.596L12.299,-4.68L12.299,1.972L13.482,4.191L12.063,7.888L12.535,12.08L4.73,18.24L2.129,14.544L2.603,7.888L0,1.728" style="fill:rgb(164,230,157);fill-rule:nonzero;stroke:rgb(51,51,51);stroke-width:1.43px;stroke-linecap:butt;stroke-miterlimit:4;"/>
        </g>
        <g id="Papua" transform="matrix(1,0,0,1,1952.06,751.923)">
            <path d="M0,-236.317L-11.373,-236.317L-12.709,-241.892L-26.76,-246.075L-27.428,-243.986L-36.125,-252.35L-50.174,-247.47L-92.318,-267.687L-125.768,-279.536L-135.801,-287.205L-165.236,-271.171L-156.539,-262.11L-179.285,-250.955L-195.34,-253.746L-196.678,-242.59L-210.727,-230.739L-212.734,-223.071L-228.787,-209.129L-241.5,-203.553L-259.563,-209.827L-258.893,-224.466L-264.912,-220.981L-267.588,-204.946L-254.879,-177.063L-264.244,-177.063L-265.582,-170.094L-244.844,-155.454L-232.803,-157.546L-226.113,-155.454L-214.07,-154.059L-198.016,-144.997L-196.008,-147.088L-176.609,-135.237L-171.926,-137.331L-161.223,-131.753L-155.871,-135.237L-126.436,-111.536L-123.762,-102.473L-115.063,-103.171C-115.063,-103.171 -124.428,-96.2 -121.752,-96.2L-111.719,-96.2L-115.732,-91.319L-98.34,-60.647L-80.945,-48.797L-104.359,-50.192L-94.326,-38.34L-78.939,-36.946L-83.621,-34.159L-103.691,-35.553L-84.959,-23.003L-86.297,-12.547L-90.313,1.394L-92.318,11.152L-74.924,2.787L-71.58,9.757L-46.158,4.88L-2.676,50.888L-0.67,-50.192L-9.365,-59.254L-4.014,-69.71L-0.67,-75.985L0,-236.317Z" style="fill:rgb(164,230,157);fill-rule:nonzero;stroke:rgb(51,51,51);stroke-width:1.43px;stroke-linecap:butt;stroke-miterlimit:4;"/>
        </g>
        <g id="Papua-Barat" serif:id="Papua Barat" transform="matrix(1,0,0,1,1543.32,559.174)">
            <path d="M0,-121.991L9.031,-126.174L12.041,-124.431L25.086,-127.567L31.107,-135.236L34.453,-134.539L39.471,-141.162L50.508,-143.253L67.9,-138.373L71.58,-138.721L75.928,-135.236L89.977,-125.128L115.064,-125.825L120.082,-119.552L117.07,-115.369L126.77,-98.289L119.412,-81.211L121.42,-69.361L119.078,-65.178L123.092,-52.281L125.768,-49.492L133.459,-34.157C133.459,-34.157 138.477,-31.718 138.143,-33.113C137.809,-34.504 135.133,-46.008 135.133,-46.008L137.475,-50.886C137.475,-50.886 142.49,-49.492 141.154,-49.143C139.816,-48.797 143.494,-27.535 143.494,-27.535L140.818,-11.851L152.861,13.246L145.502,12.549L140.818,14.291L138.143,17.428L135.133,16.731L129.781,12.199L127.104,15.686L121.42,13.944L120.414,5.926L115.398,8.713C115.398,8.713 107.369,-1.394 107.369,0.697C107.369,2.789 106.701,3.836 106.701,3.836L101.686,1.395L100.014,-3.834L101.35,-13.244L104.693,-20.562L109.041,-24.398L109.041,-29.277L101.35,-21.609L101.016,-12.547L97.336,-9.06L93.99,-10.107L93.99,-7.318L98.004,-4.879L90.313,7.322L92.318,10.807C92.318,10.807 85.963,21.262 82.617,20.912C79.273,20.567 75.26,19.869 75.26,19.869L69.572,20.912L64.891,14.988L61.211,0.697L67.9,-0.349L71.244,-2.092L64.891,-10.804L59.873,-15.336L57.533,-12.896L56.529,-18.472C56.529,-18.472 44.154,-30.322 42.145,-30.322C40.139,-30.322 34.787,-28.58 34.787,-28.58L32.111,-31.368L29.77,-36.944L39.471,-41.477L49.504,-37.295L53.182,-40.43L60.877,-34.855L73.586,-48.446L82.283,-53.326L88.973,-48.797L89.643,-42.521L97.336,-47.054L101.35,-42.871L105.363,-47.401L103.357,-52.281L108.375,-52.631L110.717,-50.539L112.389,-53.326L110.047,-54.023L112.053,-60.997L106.701,-59.601L110.381,-65.875L108.039,-66.223L98.674,-60.997L91.648,-60.997L82.617,-62.387L73.586,-57.859L64.555,-58.903L60.877,-57.859L56.863,-58.206L55.859,-61.344L43.818,-58.206L35.455,-65.525L32.781,-69.708L27.428,-78.074L31.441,-86.439L26.758,-83.65L28.432,-89.925L22.41,-87.485L22.744,-91.318L20.404,-89.227L9.365,-94.804L7.023,-91.667L3.01,-97.244L2.676,-92.713L-12.375,-95.849L-8.027,-102.472L-3.01,-105.958L0.334,-113.626L0,-121.991Z" style="fill:rgb(164,230,157);fill-rule:nonzero;stroke:rgb(51,51,51);stroke-width:1.43px;stroke-linecap:butt;stroke-miterlimit:4;"/>
        </g>
        <g id="Sulawesi-Utara" serif:id="Sulawesi Utara" transform="matrix(1,0,0,1,1209.5,352.834)">
            <path d="M0,6.971L2.676,8.713L27.094,12.2L44.486,2.788L49.168,-5.228L54.188,-3.834L55.523,-6.97L56.193,-13.941L61.211,-12.896L74.256,-28.232L82.953,-18.821L77.6,-11.85L69.238,5.577L56.193,13.594L51.846,27.535L6.354,35.203C6.354,35.203 8.029,28.497 6.857,26.664C4.852,23.527 3.512,20.913 3.512,20.913C-3.219,18.73 -1.436,17.186 -5.754,16.349C-8.213,15.872 -8.684,13.117 -6.748,10.924C-5.631,9.659 -8.064,10.79 0,6.971Z" style="fill:rgb(164,230,157);fill-rule:nonzero;stroke:rgb(51,51,51);stroke-width:1.43px;stroke-linecap:butt;stroke-miterlimit:4;"/>
        </g>
        <g transform="matrix(1,0,0,1,1354.77,204.491)">
            <path d="M0,23.168L2.838,20.21L2.838,17.253L6.15,11.83L6.623,8.874L4.729,6.408L5.203,3.451L4.729,1.48L2.838,0L-0.945,0.985L-0.945,9.859L1.42,11.83L-0.475,15.281L-0.945,17.745L-1.893,20.21L0,23.168Z" style="fill:rgb(164,230,157);fill-rule:nonzero;stroke:rgb(51,51,51);stroke-width:1.43px;stroke-linecap:butt;stroke-miterlimit:4;"/>
        </g>
        <g>
            <g opacity="0">
                <g transform="matrix(1,0,0,1,1205.29,234.066)">
                    <path d="M0,123.232L-0.943,132.105L9.463,141.962L11.354,143.934L11.354,154.779L32.168,155.764L56.766,145.906L64.334,131.118L75.686,124.217L85.148,104.501L89.877,100.557L157.049,-15.773L157.994,-29.575L148.535,-32.532L146.641,-25.631L146.641,-20.701L149.48,-16.758L147.588,-8.872L90.824,1.973L0,123.232Z" style="fill:rgb(164,230,157);fill-rule:nonzero;"/>
                </g>
            </g>
        </g>
        <g>
            <g opacity="0">
                <g transform="matrix(1,0,0,1,1205.29,234.066)">
                    <path d="M0,123.232L-0.943,132.105L9.463,141.962L11.354,143.934L11.354,154.779L32.168,155.764L56.766,145.906L64.334,131.118L75.686,124.217L85.148,104.501L89.877,100.557L157.049,-15.773L157.994,-29.575L148.535,-32.532L146.641,-25.631L146.641,-20.701L149.48,-16.758L147.588,-8.872L90.824,1.973L0,123.232Z" style="fill:rgb(164,230,157);fill-rule:nonzero;stroke:rgb(51,51,51);stroke-width:1.43px;stroke-linecap:butt;stroke-miterlimit:4;"/>
                </g>
            </g>
        </g>
        <g id="Sulawesi-Tenggara" serif:id="Sulawesi Tenggara" transform="matrix(1,0,0,1,1119.86,613.549)">
            <path d="M0,-86.441L21.408,-82.955L50.508,-69.711L53.852,-63.787L48.836,-64.83L49.504,-57.859L46.494,-55.42L51.176,-51.238L57.197,-47.752L63.887,-42.175L61.881,-39.386L66.896,-35.902L66.229,-33.113L71.244,-32.416L74.926,-21.961L72.918,-20.218L64.889,-24.048L68.57,-18.125L65.895,-16.382L59.539,-19.867L40.807,-15.337L37.799,-8.017L41.477,0L27.092,-1.396L14.049,-6.972L16.389,-24.746L20.402,-32.066L20.402,-37.295L8.363,-40.431L-10.703,-60.648L-4.014,-73.195L0,-86.441Z" style="fill:rgb(164,230,157);fill-rule:nonzero;stroke:rgb(51,51,51);stroke-width:1.43px;stroke-linecap:butt;stroke-miterlimit:4;"/>
        </g>
        <g id="Pulau-Buton" serif:id="Pulau Buton" transform="matrix(1,0,0,1,1206.82,629.929)">
            <path d="M0,-19.519L-0.666,-31.367L-7.357,-36.945L-13.379,-30.671L-14.717,-18.123L-17.393,-2.091L-22.076,7.667L-26.088,9.76L-22.742,17.426L-15.385,16.731L-10.703,13.942L-13.379,9.063L-3.344,5.579L1.34,1.397L-4.682,-2.789L-8.695,-3.484L-8.695,-17.425L-3.344,-24.398L0,-19.519Z" style="fill:rgb(164,230,157);fill-rule:nonzero;stroke:rgb(51,51,51);stroke-width:1.43px;stroke-linecap:butt;stroke-miterlimit:4;"/>
        </g>
        <g id="Pulau-Muna" serif:id="Pulau Muna" transform="matrix(1,0,0,1,1168.7,605.53)">
            <path d="M0,27.884L4.014,16.036L2.006,4.88L12.709,-0.696L17.393,-4.182L20.066,9.761L14.047,17.429L15.387,26.491L11.371,32.066L8.697,29.28L0,27.884Z" style="fill:rgb(164,230,157);fill-rule:nonzero;stroke:rgb(51,51,51);stroke-width:1.43px;stroke-linecap:butt;stroke-miterlimit:4;"/>
        </g>
        <g transform="matrix(1,0,0,1,1206.82,629.929)">
            <path d="M0,-19.519L-0.666,-31.367L-7.357,-36.945L-13.379,-30.671L-14.717,-18.123L-17.393,-2.091L-22.076,7.667L-26.088,9.76L-22.742,17.426L-15.385,16.731L-10.703,13.942L-13.379,9.063L-3.344,5.579L1.34,1.397L-4.682,-2.789L-8.695,-3.484L-8.695,-17.425L-3.344,-24.398L0,-19.519Z" style="fill:rgb(164,230,157);fill-rule:nonzero;stroke:rgb(51,51,51);stroke-width:1.43px;stroke-linecap:butt;stroke-miterlimit:4;"/>
        </g>
        <g transform="matrix(1,0,0,1,1156.65,638.992)">
            <path d="M0,-16.033L2.008,-9.76L2.008,-1.396L-1.336,0L-8.027,-9.76L-6.689,-16.033L0,-16.033Z" style="fill:rgb(164,230,157);fill-rule:nonzero;stroke:rgb(51,51,51);stroke-width:1.43px;stroke-linecap:butt;stroke-miterlimit:4;"/>
        </g>
        <g transform="matrix(1,0,0,1,1201.47,585.317)">
            <path d="M0,-11.155L3.344,-8.366L4.014,-11.852L8.027,-6.274L3.344,-1.395L0.668,0.697L-5.354,-6.973L0,-11.155Z" style="fill:rgb(164,230,157);fill-rule:nonzero;stroke:rgb(51,51,51);stroke-width:1.43px;stroke-linecap:butt;stroke-miterlimit:4;"/>
        </g>
        <g>
            <g opacity="0">
                <g transform="matrix(1,0,0,1,1117.85,653.631)">
                    <path d="M0,-126.175L9.365,-124.779L28.098,-121.992L54.188,-109.444L56.193,-102.473L52.85,-102.473L48.168,-96.199L60.207,-88.531L64.223,-85.047L68.236,-83.651L90.982,-79.469L94.326,-73.891L91.65,-66.922L86.299,-64.131L93.656,-46.705L90.313,-38.34L86.299,-41.127L84.291,-32.065L93.656,-21.61L83.623,-12.549L72.25,0L62.885,-4.182L59.541,-16.035L48.168,-14.639L40.139,-9.061L28.766,-23.701L32.781,-34.158L28.766,-41.127L18.063,-46.705L14.049,-55.069L20.068,-73.196L5.354,-82.953L-13.379,-102.473L0,-126.175Z" style="fill:rgb(164,230,157);fill-rule:nonzero;"/>
                </g>
            </g>
        </g>
        <g>
            <g opacity="0">
                <g transform="matrix(1,0,0,1,1117.85,653.631)">
                    <path d="M0,-126.175L9.365,-124.779L28.098,-121.992L54.188,-109.444L56.193,-102.473L52.85,-102.473L48.168,-96.199L60.207,-88.531L64.223,-85.047L68.236,-83.651L90.982,-79.469L94.326,-73.891L91.65,-66.922L86.299,-64.131L93.656,-46.705L90.313,-38.34L86.299,-41.127L84.291,-32.065L93.656,-21.61L83.623,-12.549L72.25,0L62.885,-4.182L59.541,-16.035L48.168,-14.639L40.139,-9.061L28.766,-23.701L32.781,-34.158L28.766,-41.127L18.063,-46.705L14.049,-55.069L20.068,-73.196L5.354,-82.953L-13.379,-102.473L0,-126.175Z" style="fill:rgb(164,230,157);fill-rule:nonzero;stroke:rgb(51,51,51);stroke-width:1.43px;stroke-linecap:butt;stroke-miterlimit:4;"/>
                </g>
            </g>
        </g>
        <g id="Gorontalo" transform="matrix(1,0,0,1,1161.17,388.734)">
            <path d="M0,-33.287L9.867,-31.369L12.041,-31.892L22.41,-29.278L32.277,-23.876L36.459,-28.058L38.801,-29.103L43.984,-26.664L41.143,-24.398L41.143,-20.564L46.492,-18.125L52.85,-14.291L55.191,-9.411L54.521,0L49.504,-0.697L39.971,-10.108L36.961,-8.714L21.072,-8.016L10.369,-9.585L0.836,-7.319L-1.002,-8.016L-13.713,-5.751L-16.223,-9.76L-22.912,-10.805L-26.09,-8.19L-30.104,-8.19L-31.609,-7.319L-35.791,-7.843L-45.154,-21.61L-42.313,-26.141L-1.338,-27.013L2.342,-30.149L0,-33.287Z" style="fill:rgb(164,230,157);fill-rule:nonzero;stroke:rgb(51,51,51);stroke-width:1.43px;stroke-linecap:butt;stroke-miterlimit:4;"/>
        </g>
        <g id="Sulawesi-Tengah" serif:id="Sulawesi Tengah" transform="matrix(1,0,0,1,1161,533.033)">
            <path d="M0,-178.805L-6.021,-176.713L-8.363,-179.501L-22.746,-178.805L-28.098,-182.638L-29.436,-188.564L-33.115,-185.078L-42.146,-189.261L-54.188,-189.61L-54.188,-180.199L-57.197,-176.016L-60.543,-172.182L-61.213,-167.999L-66.898,-167.302L-72.584,-167.999L-75.26,-175.32L-77.602,-172.879L-80.277,-166.954L-86.967,-163.119L-87.971,-159.983L-85.963,-155.452L-88.975,-151.617L-94.326,-143.951L-98.006,-142.206L-91.65,-134.191L-95.328,-128.265L-104.025,-131.402L-101.684,-126.523L-95.664,-125.825L-97.67,-115.021L-98.006,-107.701L-94.326,-100.381L-94.662,-95.85L-99.678,-104.912L-107.037,-93.061L-94.994,-48.1L-72.918,-50.886L-53.854,-30.671L-20.404,-17.776L-13.045,-10.803L-19.734,-2.439L9.365,10.805L14.381,6.969L13.713,3.485L5.684,0.348L8.695,-2.786L5.684,-6.62L2.34,-9.758L-1.672,-11.5L-4.684,-15.683L-4.014,-18.122L-17.395,-37.642L-20.74,-37.293L-23.416,-39.734L-23.416,-42.173L-30.438,-48.1L-33.115,-44.614L-34.453,-53.675L-32.445,-55.418L-22.412,-47.053L-15.723,-48.447L-13.715,-55.07L-3.012,-62.04L3.344,-61.693L11.707,-68.315L30.102,-91.668L42.479,-94.455L47.832,-86.788L53.852,-86.439L56.193,-97.244L53.852,-104.215L47.496,-106.656L42.145,-107.352L26.088,-102.821L35.119,-98.987L27.094,-97.244L21.406,-98.639L19.064,-97.941L2.34,-98.987C2.34,-98.987 2.34,-92.713 0.668,-92.713C-1.006,-92.713 -9.701,-90.274 -9.701,-90.274L-14.051,-90.97L-20.74,-95.501L-31.777,-86.788L-38.467,-80.165L-43.484,-69.012L-47.498,-71.103L-54.188,-73.195L-60.877,-72.148L-64.891,-78.074L-65.561,-85.742L-71.246,-91.668L-76.934,-91.668L-85.295,-103.867L-87.303,-121.992L-85.963,-131.75L-80.611,-141.51L-72.25,-152.663L-64.223,-155.103L-50.508,-150.223L-45.492,-151.269L-43.15,-148.132L-36.125,-151.967L-45.156,-165.909L-41.811,-170.788L-1.672,-171.136L2.34,-174.273L0,-178.805Z" style="fill:rgb(164,230,157);fill-rule:nonzero;stroke:rgb(51,51,51);stroke-width:1.43px;stroke-linecap:butt;stroke-miterlimit:4;"/>
        </g>
        <g transform="matrix(1,0,0,1,1206.49,465.416)">
            <path d="M0,-7.32L3.846,-5.054L6.855,-9.586L9.363,-11.329L15.217,-6.971L14.047,-3.311L12.209,-0.174L9.699,1.568L9.197,2.265L5.52,-0.873L3.01,0.347L2.508,0.522L2.006,6.971L-0.168,6.448L-3.682,4.182L-0.67,1.393L-0.67,-2.615L-3.512,-5.404L-5.854,-2.267L-7.025,-0.174L-10.371,3.833L-14.049,4.356L-14.885,1.393L-15.555,-0.174L-16.391,-1.918L-15.889,-5.752L-13.715,-10.632L-12.543,-12.549L-6.189,-13.42L-2.846,-13.071L0.332,-14.291L2.174,-11.155L0,-7.32Z" style="fill:rgb(164,230,157);fill-rule:nonzero;stroke:rgb(51,51,51);stroke-width:1.43px;stroke-linecap:butt;stroke-miterlimit:4;"/>
        </g>
        <g>
            <g opacity="0">
                <g transform="matrix(1,0,0,1,1160.83,529.82)">
                    <path d="M0,-174.987L2.838,-167.593L-22.232,-167.593L-40.68,-167.593L-43.518,-162.664L-35.004,-149.355L-43.992,-145.905L-47.775,-147.383L-49.668,-146.397L-61.494,-151.82L-72.848,-149.848L-82.779,-135.553L-87.984,-120.272L-84.672,-103.514L-76.156,-87.247L-69.535,-89.218L-64.332,-81.332L-64.332,-76.895L-59.602,-69.503L-54.398,-69.995L-50.141,-67.037L-46.357,-67.53L-43.518,-66.545L-39.262,-70.98L-37.842,-75.91L-31.221,-84.29L-22.232,-93.162L-20.813,-93.655L-16.082,-86.755L-12.299,-88.233L-6.148,-87.74L0.947,-88.725L3.785,-96.613L22.707,-96.12L24.6,-95.134L26.963,-100.556L37.844,-102.527L44.465,-104.007L50.615,-103.02L55.346,-98.584L56.293,-92.67L52.98,-83.797L51.09,-82.318L59.131,-72.952L61.021,-69.995L55.818,-62.601L52.508,-66.051L50.143,-64.08L48.725,-57.672L42.1,-61.123L44.939,-63.587L43.994,-67.53L42.1,-69.995L35.479,-61.123L30.748,-58.658L30.748,-67.037L29.328,-70.488L33.113,-77.881L41.627,-78.375L46.832,-78.375L48.725,-84.29L42.574,-90.698L28.855,-88.233L22.234,-77.388L17.977,-71.473L13.246,-64.572L6.15,-59.643L1.895,-58.165L-4.73,-58.165L-10.877,-52.743L-16.082,-46.827L-21.758,-44.363L-33.584,-50.278L-32.164,-45.842L-31.221,-42.389L-29.799,-44.856L-23.65,-38.447L-22.705,-36.967L-19.867,-34.506L-17.027,-34.506L-10.406,-28.096L-3.311,-14.788L-1.891,-10.843L2.838,-5.915L6.623,-2.957L8.988,-1.48L9.936,4.93L13.719,7.395L13.719,10.352L10.881,12.323L-16.555,-1.48L-11.824,-6.408L-11.352,-7.888L-12.299,-10.843L-15.609,-13.801L-36.896,-25.138L-53.926,-29.083L-65.75,-42.389L-72.373,-47.814L-94.605,-46.827L-106.432,-92.176L-100.281,-99.078L-97.443,-101.542L-98.863,-110.415L-96.498,-122.737L-104.541,-127.174L-102.646,-129.639L-97.916,-127.174L-94.605,-125.695L-93.188,-132.595L-97.916,-138.511L-94.133,-140.483L-93.66,-147.383L-86.092,-152.805L-87.037,-158.227L-86.563,-161.678L-78.994,-163.649L-78.051,-171.537L-72.848,-173.508L-71.9,-168.086L-70.482,-165.622L-63.857,-165.129L-62.439,-166.607L-60.076,-172.522L-54.398,-175.973L-53.451,-187.31L-44.936,-187.31L-36.896,-184.845L-34.529,-181.888L-26.961,-186.325L-25.543,-178.93L-21.758,-174.494L-7.096,-176.959L-6.148,-174.002L0,-174.987Z" style="fill:rgb(164,230,157);fill-rule:nonzero;"/>
                </g>
            </g>
        </g>
        <g>
            <g opacity="0">
                <g transform="matrix(1,0,0,1,1160.83,529.82)">
                    <path d="M0,-174.987L2.838,-167.593L-22.232,-167.593L-40.68,-167.593L-43.518,-162.664L-35.004,-149.355L-43.992,-145.905L-47.775,-147.383L-49.668,-146.397L-61.494,-151.82L-72.848,-149.848L-82.779,-135.553L-87.984,-120.272L-84.672,-103.514L-76.156,-87.247L-69.535,-89.218L-64.332,-81.332L-64.332,-76.895L-59.602,-69.503L-54.398,-69.995L-50.141,-67.037L-46.357,-67.53L-43.518,-66.545L-39.262,-70.98L-37.842,-75.91L-31.221,-84.29L-22.232,-93.162L-20.813,-93.655L-16.082,-86.755L-12.299,-88.233L-6.148,-87.74L0.947,-88.725L3.785,-96.613L22.707,-96.12L24.6,-95.134L26.963,-100.556L37.844,-102.527L44.465,-104.007L50.615,-103.02L55.346,-98.584L56.293,-92.67L52.98,-83.797L51.09,-82.318L59.131,-72.952L61.021,-69.995L55.818,-62.601L52.508,-66.051L50.143,-64.08L48.725,-57.672L42.1,-61.123L44.939,-63.587L43.994,-67.53L42.1,-69.995L35.479,-61.123L30.748,-58.658L30.748,-67.037L29.328,-70.488L33.113,-77.881L41.627,-78.375L46.832,-78.375L48.725,-84.29L42.574,-90.698L28.855,-88.233L22.234,-77.388L17.977,-71.473L13.246,-64.572L6.15,-59.643L1.895,-58.165L-4.73,-58.165L-10.877,-52.743L-16.082,-46.827L-21.758,-44.363L-33.584,-50.278L-32.164,-45.842L-31.221,-42.389L-29.799,-44.856L-23.65,-38.447L-22.705,-36.967L-19.867,-34.506L-17.027,-34.506L-10.406,-28.096L-3.311,-14.788L-1.891,-10.843L2.838,-5.915L6.623,-2.957L8.988,-1.48L9.936,4.93L13.719,7.395L13.719,10.352L10.881,12.323L-16.555,-1.48L-11.824,-6.408L-11.352,-7.888L-12.299,-10.843L-15.609,-13.801L-36.896,-25.138L-53.926,-29.083L-65.75,-42.389L-72.373,-47.814L-94.605,-46.827L-106.432,-92.176L-100.281,-99.078L-97.443,-101.542L-98.863,-110.415L-96.498,-122.737L-104.541,-127.174L-102.646,-129.639L-97.916,-127.174L-94.605,-125.695L-93.188,-132.595L-97.916,-138.511L-94.133,-140.483L-93.66,-147.383L-86.092,-152.805L-87.037,-158.227L-86.563,-161.678L-78.994,-163.649L-78.051,-171.537L-72.848,-173.508L-71.9,-168.086L-70.482,-165.622L-63.857,-165.129L-62.439,-166.607L-60.076,-172.522L-54.398,-175.973L-53.451,-187.31L-44.936,-187.31L-36.896,-184.845L-34.529,-181.888L-26.961,-186.325L-25.543,-178.93L-21.758,-174.494L-7.096,-176.959L-6.148,-174.002L0,-174.987Z" style="fill:rgb(164,230,157);fill-rule:nonzero;stroke:rgb(51,51,51);stroke-width:1.43px;stroke-linecap:butt;stroke-miterlimit:4;"/>
                </g>
            </g>
        </g>
        <g id="Sulawesi-Barat" serif:id="Sulawesi Barat" transform="matrix(1,0,0,1,1046.27,446.595)">
            <path d="M0,102.124L7.693,95.501L7.359,76.331L23.75,75.981L20.068,37.641L6.357,-8.018L4.684,-2.79L3.682,2.09L-2.006,7.666L-3.344,18.123L-1.338,24.397L-2.674,27.185L0.334,35.898L-6.02,42.871L-9.699,57.509L-14.047,65.178C-14.047,65.178 -25.754,68.315 -25.754,71.102C-25.754,73.891 -20.068,82.257 -20.068,82.257L-24.418,90.272L-21.406,97.593L-19.734,107.351L-13.713,110.142L-4.014,105.261L0,102.124Z" style="fill:rgb(164,230,157);fill-rule:nonzero;stroke:rgb(51,51,51);stroke-width:1.43px;stroke-linecap:butt;stroke-miterlimit:4;"/>
        </g>
        <g id="Sulawesi-Selatan" serif:id="Sulawesi Selatan" transform="matrix(1,0,0,1,1092.43,486.676)">
            <path d="M0,159.637C0,157.545 -8.363,138.723 -8.363,138.723L-6.021,125.828L-2.676,124.084L-0.334,118.158L-3.68,106.309L-2.342,101.08L-4.014,90.971L-4.014,85.047L0.336,74.94L-3.01,61.344L-1.672,57.512L-8.363,50.541L-8.363,44.963L9.699,29.279L15.051,29.279L23.414,31.719L26.09,40.781L48.836,44.266L55.525,35.901L49.838,27.883L14.717,15.337L-5.018,-4.879L-25.756,-1.743L-22.744,36.25L-37.797,35.901L-37.797,55.42L-49.504,63.785L-39.471,68.664L-42.479,76.682L-35.123,90.625L-36.125,111.887L-41.143,123.735L-40.473,127.916L-46.828,144.651L-44.152,156.848L-39.471,158.592L-38.467,163.121L-34.787,159.637L-28.432,164.516L-21.408,155.801L-14.049,158.241L-5.018,153.014L0,159.637Z" style="fill:rgb(164,230,157);fill-rule:nonzero;stroke:rgb(51,51,51);stroke-width:1.43px;stroke-linecap:butt;stroke-miterlimit:4;"/>
        </g>
        <g id="Bali" transform="matrix(1,0,0,1,843.008,787.207)">
            <path d="M0,-32.49L1.892,-30.519L5.32,-31.074L9.343,-30.088L14.189,-28.177L21.285,-28.486L26.784,-33.416L30.753,-33.455L43.13,-28.14L49.4,-21.603L50.822,-18.467L47.394,-14.982C47.394,-14.982 41.456,-12.195 41.207,-11.758C40.955,-11.322 35.019,-9.494 35.019,-9.494L31.841,-3.742L29.666,0.965L25.987,0.791L28.328,-4.439L23.646,-11.584L16.621,-16.463L9.932,-19.426L3.576,-19.599L0.398,-24.652L0,-32.49Z" style="fill:rgb(164,230,157);fill-rule:nonzero;stroke:rgb(51,51,51);stroke-width:1.43px;stroke-linecap:butt;stroke-miterlimit:4;"/>
        </g>
        <g id="Pu-au-Sumba" serif:id="Pu;au Sumba" transform="matrix(1,0,0,1,1029.09,841.595)">
            <path d="M0,-23.169L2.365,-26.864L9.223,-29.577L13.482,-30.069L19.629,-30.562L21.994,-31.056L24.832,-30.562L28.145,-31.548L33.584,-30.317L34.766,-30.069L40.68,-33.273L44.465,-31.056L47.777,-26.62L53.924,-24.896L54.398,-20.95L57.709,-17.993L64.096,-18.98L65.988,-15.774L68.59,-14.052L69.771,-12.571L69.771,-11.341L71.662,-8.136L72.609,-7.149L74.975,-5.669L78.051,-2.958L78.996,-0.247L74.975,5.913L72.373,7.145L71.662,7.638L67.881,7.145L65.041,9.61L61.73,10.104L57.709,8.624L55.346,7.886L52.506,7.638L51.322,7.638L45.41,1.972L42.809,-2.958L39.969,-5.175L35.24,-6.409L32.4,-8.38L30.273,-11.341L27.436,-12.571L22.469,-13.558L18.211,-12.571L15.137,-13.558L7.332,-14.296L4.02,-16.763L2.127,-19.474L0,-23.169Z" style="fill:rgb(164,230,157);fill-rule:nonzero;stroke:rgb(51,51,51);stroke-width:1.43px;stroke-linecap:butt;stroke-miterlimit:4;"/>
        </g>
        <g id="Nusa-Tenggara-Timur" serif:id="Nusa Tenggara Timur" transform="matrix(1,0,0,1,1069.77,757.799)">
            <path d="M0,31.297L-4.967,24.891L-4.967,18.975L-2.129,15.279L-2.365,11.582L1.184,12.813L3.313,12.568L7.098,9.363L9.699,8.871L13.244,5.42L16.32,4.68L18.922,5.174L23.652,4.436L25.309,4.186L28.855,5.174L31.93,6.16L34.531,7.391L38.789,7.391L41.627,8.377L44.465,8.131L48.25,11.336L53.453,12.32L57.711,14.047L59.602,17.25L66.463,19.469L68.117,16.758L72.848,14.293L81.125,15.279L83.254,13.553L88.457,11.336L88.223,14.785L91.059,16.264L94.607,18.484L97.209,20.701L100.283,20.945L104.066,19.469L106.197,19.469L109.035,15.279L111.873,10.842L112.818,9.858L116.604,9.858L118.969,8.377L121.57,6.406L125.354,2.955L122.752,1.725L120.15,3.201L119.443,2.955L119.443,-0.25L122.752,-3.453L126.064,-1.974L129.375,4.436L128.666,7.639L125.828,7.885L124.41,11.088L121.57,12.568L122.516,18.975L115.42,21.195L111.637,22.18L109.27,23.412L108.09,24.151L105.25,25.383L100.283,26.123L96.736,25.631L92.479,25.383L90.113,26.861L87.039,28.834L83.49,29.08L79.234,31.297L76.396,31.791L74.268,31.545L70.008,29.572L63.623,28.586L60.313,32.283L58.184,33.764L55.109,32.283L50.615,32.777L47.541,34.75L44.229,34.256L41.863,33.518L39.262,30.313L36.188,28.586L33.586,30.807L25.779,27.848L20.576,28.586L17.029,29.572L13.719,29.818L10.643,27.356L7.098,28.094L3.313,29.08L0,31.297Z" style="fill:rgb(164,230,157);fill-rule:nonzero;stroke:rgb(51,51,51);stroke-width:1.43px;stroke-linecap:butt;stroke-miterlimit:4;"/>
        </g>
        <g transform="matrix(1,0,0,1,1196.07,769.873)">
            <path d="M0,7.395L-1.891,4.19L1.418,1.233L7.568,0L5.678,2.711L2.602,4.19L0,7.395Z" style="fill:rgb(164,230,157);fill-rule:nonzero;stroke:rgb(51,51,51);stroke-width:1.43px;stroke-linecap:butt;stroke-miterlimit:4;"/>
        </g>
        <g transform="matrix(1,0,0,1,1209.31,761.739)">
            <path d="M0,6.41L2.604,3.945L2.365,0.496L-0.945,-0.49L-3.311,-0.738L-5.676,0.988L-8.277,2.713L-9.225,3.699L-9.932,6.656L-6.859,7.148L-3.547,6.656L0,6.41Z" style="fill:rgb(164,230,157);fill-rule:nonzero;stroke:rgb(51,51,51);stroke-width:1.43px;stroke-linecap:butt;stroke-miterlimit:4;"/>
        </g>
        <g transform="matrix(1,0,0,1,1209.31,764.203)">
            <path d="M0,8.875L9.225,0.742L6.387,-1.725L12.299,-1.23L11.826,1.727L20.578,-4.436L23.889,-4.436L26.965,-0.984L23.889,-0.984L19.867,2.713L18.686,5.178L15.375,4.932L12.299,11.83L9.225,10.105L6.15,13.311L0,8.875Z" style="fill:rgb(164,230,157);fill-rule:nonzero;stroke:rgb(51,51,51);stroke-width:1.43px;stroke-linecap:butt;stroke-miterlimit:4;"/>
        </g>
        <g transform="matrix(1,0,0,1,1238.41,767.901)">
            <path d="M0,-0.985L0.943,2.466L2.838,3.451L6.146,7.148L9.223,5.421L10.17,2.218L13.244,-0.985L14.426,-6.161L13.953,-8.133L11.35,-7.641L6.146,-0.739L4.02,-4.19L0,-0.985Z" style="fill:rgb(164,230,157);fill-rule:nonzero;stroke:rgb(51,51,51);stroke-width:1.43px;stroke-linecap:butt;stroke-miterlimit:4;"/>
        </g>
        <g transform="matrix(1,0,0,1,1259.69,765.19)">
            <path d="M0,-2.711L-1.893,-2.463L-1.893,-5.916L0.473,-8.627L4.021,-8.627L6.859,-6.406L10.17,-6.9L12.773,-7.393L16.082,-6.9L19.395,-7.147L22.943,-7.641L25.545,-7.885L27.436,-5.174L28.146,-1.479L25.07,1.973L20.34,2.711L14.9,2.959L12.535,3.697L8.514,3.451L6.148,4.437L3.311,4.684L-1.184,5.916L-3.785,5.422L-4.494,2.467L-3.074,0.494L-1.42,-0.984L0,-2.711Z" style="fill:rgb(164,230,157);fill-rule:nonzero;stroke:rgb(51,51,51);stroke-width:1.43px;stroke-linecap:butt;stroke-miterlimit:4;"/>
        </g>
        <g id="Pulau-Timor" serif:id="Pulau Timor" transform="matrix(1,0,0,1,1264.9,845.043)">
            <path d="M0,-42.883L1.654,-40.418L-2.84,-32.039L-3.076,-31.055L-6.861,-28.836L-11.592,-33.766L-15.141,-29.82L-15.611,-30.069L-23.18,-34.75L-25.781,-34.504L-38.791,-21.936L-37.844,-19.223L-40.209,-15.033L-39.025,-12.322L-41.865,-8.873L-41.865,-6.162L-36.424,-4.188L-36.662,-0.49L-41.865,1.971L-43.285,2.221L-45.887,5.422L-44.467,9.367L-41.393,10.105L-31.457,10.105L-28.148,7.642L-22.709,5.176L-18.213,1.726L-8.752,1.478L-5.441,0.248L0.236,-6.162L5.439,-10.598L10.17,-17.006L16.316,-21.442L17.5,-27.11L20.813,-29.082L19.393,-41.158L25.543,-47.072L23.178,-52.988L16.791,-52.742L14.426,-52.25L9.459,-49.539L7.805,-49.045L4.256,-46.334L0,-42.883Z" style="fill:rgb(164,230,157);fill-rule:nonzero;stroke:rgb(51,51,51);stroke-width:1.43px;stroke-linecap:butt;stroke-miterlimit:4;"/>
        </g>
        <g transform="matrix(1,0,0,1,1219.01,853.181)">
            <path d="M0,-6.659L-3.311,-7.643L-5.914,-3.948L-7.094,-2.716L-6.857,0.984L-3.547,-0.495L-2.129,-3.454L0,-6.659Z" style="fill:rgb(164,230,157);fill-rule:nonzero;stroke:rgb(51,51,51);stroke-width:1.43px;stroke-linecap:butt;stroke-miterlimit:4;"/>
        </g>
        <g transform="matrix(1,0,0,1,1189.68,864.516)">
            <path d="M0,9.609L2.365,15.525L4.967,15.525L7.805,12.814L11.354,12.076L15.846,10.595L18.449,10.349L19.395,6.654L23.414,4.435L26.018,3.943L23.889,0.982L24.836,-2.219L23.889,-5.916L18.922,-1.235L16.084,1.968L13.719,3.449L8.516,6.654L4.496,7.884L0,9.609Z" style="fill:rgb(164,230,157);fill-rule:nonzero;stroke:rgb(51,51,51);stroke-width:1.43px;stroke-linecap:butt;stroke-miterlimit:4;"/>
        </g>
        <g transform="matrix(1,0,0,1,1144.04,860.081)">
            <path d="M0,4.187L5.676,6.16L12.535,1.97L10.643,-1.729L7.568,-1.973L5.676,-0.249L4.73,1.476L0,4.187Z" style="fill:rgb(164,230,157);fill-rule:nonzero;stroke:rgb(51,51,51);stroke-width:1.43px;stroke-linecap:butt;stroke-miterlimit:4;"/>
        </g>
        <g>
            <g opacity="0">
                <g transform="matrix(1,0,0,1,1108.79,791.068)">
                    <path d="M0,50.774C0,53.235 -4.256,57.672 -4.256,57.672L-11.824,59.151L-16.084,62.602L-30.273,59.645L-38.314,49.294L-44.465,46.336L-50.143,42.391L-56.764,36.969L-61.494,39.928L-76.631,36.969L-81.363,28.098L-78.051,20.21L-62.441,19.225L-58.182,16.76L-61.967,-7.394L-61.967,-12.816L-58.182,-26.122L-52.033,-18.238L-43.045,-27.109L-16.555,-34.996L54.871,-40.912L113.529,-41.896L172.184,-40.417L181.646,-32.531L182.594,-24.152L172.658,-20.701L163.197,-17.251L162.25,-3.941L166.035,0.495L180.227,0.495L181.172,6.411L175.969,12.325L177.861,23.663L174.078,26.618L174.078,31.547L158.467,49.294L148.535,59.151L139.072,58.659L127.248,66.053L112.582,67.532L109.744,71.475L112.582,79.362L89.404,92.67L78.051,92.67L77.578,80.346L89.404,73.94L99.338,68.024L101.701,54.223L110.217,45.842L114.002,31.053L130.557,16.76L140.492,24.155L145.223,20.21L148.061,24.647L154.209,22.182L157.521,12.817L155.156,10.352L163.672,3.944L158.941,-13.8L160.832,-19.716L146.641,-13.8L131.504,-9.857L122.518,-17.251L114.947,-7.394L99.811,-10.843L97.918,-13.8L87.039,-8.872L61.969,-4.435L46.83,-0.492L29.328,1.971L24.598,-0.492L17.029,2.465L-2.365,2.96L-20.814,-0.492L-29.326,-0.986L-44.465,0.001L-52.033,-1.972L-55.346,-1.972L-55.816,14.294L-43.045,13.309L-27.908,16.76L-20.34,28.098L-10.881,30.069L-8.986,35.491L0.473,44.364L0,50.774Z" style="fill:rgb(164,230,157);fill-rule:nonzero;"/>
                </g>
            </g>
        </g>
        <g>
            <g opacity="0">
                <g transform="matrix(1,0,0,1,1108.79,791.068)">
                    <path d="M0,50.774C0,53.235 -4.256,57.672 -4.256,57.672L-11.824,59.151L-16.084,62.602L-30.273,59.645L-38.314,49.294L-44.465,46.336L-50.143,42.391L-56.764,36.969L-61.494,39.928L-76.631,36.969L-81.363,28.098L-78.051,20.21L-62.441,19.225L-58.182,16.76L-61.967,-7.394L-61.967,-12.816L-58.182,-26.122L-52.033,-18.238L-43.045,-27.109L-16.555,-34.996L54.871,-40.912L113.529,-41.896L172.184,-40.417L181.646,-32.531L182.594,-24.152L172.658,-20.701L163.197,-17.251L162.25,-3.941L166.035,0.495L180.227,0.495L181.172,6.411L175.969,12.325L177.861,23.663L174.078,26.618L174.078,31.547L158.467,49.294L148.535,59.151L139.072,58.659L127.248,66.053L112.582,67.532L109.744,71.475L112.582,79.362L89.404,92.67L78.051,92.67L77.578,80.346L89.404,73.94L99.338,68.024L101.701,54.223L110.217,45.842L114.002,31.053L130.557,16.76L140.492,24.155L145.223,20.21L148.061,24.647L154.209,22.182L157.521,12.817L155.156,10.352L163.672,3.944L158.941,-13.8L160.832,-19.716L146.641,-13.8L131.504,-9.857L122.518,-17.251L114.947,-7.394L99.811,-10.843L97.918,-13.8L87.039,-8.872L61.969,-4.435L46.83,-0.492L29.328,1.971L24.598,-0.492L17.029,2.465L-2.365,2.96L-20.814,-0.492L-29.326,-0.986L-44.465,0.001L-52.033,-1.972L-55.346,-1.972L-55.816,14.294L-43.045,13.309L-27.908,16.76L-20.34,28.098L-10.881,30.069L-8.986,35.491L0.473,44.364L0,50.774Z" style="fill:rgb(164,230,157);fill-rule:nonzero;stroke:rgb(51,51,51);stroke-width:1.43px;stroke-linecap:butt;stroke-miterlimit:4;"/>
                </g>
            </g>
        </g>
        <g id="Nusa-Tenggara-Barat" serif:id="Nusa Tenggara Barat" transform="matrix(1,0,0,1,939.92,767.411)">
            <path d="M0,18.236L-1.891,21.195L-1.891,28.093L11.352,31.545L17.975,28.093L25.543,30.56L32.168,26.617L37.371,24.152L41.627,24.152L46.83,23.166L52.033,20.701L55.816,21.685L60.549,18.73L65.752,11.334L68.117,14.295L66.227,16.263L66.697,20.207L70.482,21.685L76.633,19.716L80.416,18.73L86.092,21.195L89.404,20.207L85.619,17.744L80.416,16.263L83.254,14.785L90.35,15.771L95.553,16.756L98.863,15.771L98.863,8.873L96.025,11.828L93.188,8.873L93.188,2.957L89.875,-3.946L83.729,-3.946L79.941,-0.989L80.416,3.451L78.998,4.927L78.523,-0.989L75.686,-3.946L70.482,-5.426L65.752,-2.959L62.441,-1.481L61.023,-2.465L58.184,-5.426L55.816,-9.368L54.398,-11.338L49.195,-12.325L43.992,-13.309L38.789,-9.862L37.842,-6.903L37.842,-4.932L43.52,-0.494L48.248,4.927L52.508,3.941L60.549,9.857L61.023,10.841L59.602,11.334L57.711,11.828L53.451,11.828L51.088,13.8L49.67,14.785L47.305,15.771L43.52,14.295L41.154,12.814L39.736,10.841L37.842,7.392L35.477,6.898L32.168,1.476L29.801,1.476L27.436,2.463L25.543,4.435L23.18,3.941L17.975,0.984L14.664,-0.494L9.934,2.463L5.678,4.927L0.945,8.873L-0.946,9.363L-1.42,12.814L0,18.236Z" style="fill:rgb(164,230,157);fill-rule:nonzero;stroke:rgb(51,51,51);stroke-width:1.43px;stroke-linecap:butt;stroke-miterlimit:4;"/>
        </g>
        <g id="Pulau-Lombok" serif:id="Pulau Lombok" transform="matrix(1,0,0,1,899.712,769.873)">
            <path d="M0,13.801L0.473,16.76L6.623,21.196L10.406,18.733L17.503,21.69L18.922,21.196L22.707,24.645L24.125,19.717L30.746,20.209L28.382,16.268L34.531,4.436L37.37,-2.957L35.005,-5.914L32.167,-7.394L22.707,-10.844L19.396,-9.365L12.771,-2.957L8.515,0.988L9.933,7.887L9.933,10.352L5.677,13.801L3.312,14.787L0,13.801Z" style="fill:rgb(164,230,157);fill-rule:nonzero;stroke:rgb(51,51,51);stroke-width:1.43px;stroke-linecap:butt;stroke-miterlimit:4;"/>
        </g>
        <g>
            <g opacity="0">
                <g transform="matrix(1,0,0,1,1039.26,777.76)">
                    <path d="M0,-3.203L-0.711,6.656L-8.988,6.901L-16.32,5.914L-8.043,10.106L-15.848,12.817L-18.922,10.106L-29.328,13.309L-34.059,10.846L-34.77,5.422L-37.844,10.106L-41.863,12.078L-47.541,12.322L-55.109,15.279L-62.441,15.279L-73.557,21.195L-81.125,18.979L-88.221,22.43L-102.412,18.485L-103.123,10.106L-100.284,6.901L-102.176,1.725L-101.466,-0.986L-103.831,-1.726L-108.8,8.133L-106.433,13.557L-114.711,13.557L-116.368,17.252L-121.098,13.803L-130.794,10.598L-132.686,13.557L-140.02,7.641L-139.546,6.162L-132.923,4.93L-128.902,1.971L-131.268,-6.654L-121.571,-16.019L-116.368,-19.963L-106.906,-15.525L-102.176,-12.814L-101.466,-6.408L-103.359,-3.203L-100.521,-3.203L-85.619,-12.076L-78.998,-9.611L-75.922,-7.392L-73.084,-6.898L-70.246,-9.859L-72.848,-14.049L-71.902,-20.947L-69.301,-24.152L-62.914,-20.455L-66.227,-10.844L-62.678,-4.682L-59.602,-3.697L-57.711,0.74L-51.797,4.684L-47.541,0.74L-44.939,-0.492L-40.445,0.248L-46.83,-4.682L-51.324,-3.943L-56.529,-9.611L-63.15,-15.033L-61.023,-21.935L-55.582,-25.633L-43.521,-22.428L-39.973,-16.019L-36.896,-12.814L-28.619,-17.006L-22.471,-15.281L-19.633,-12.57L-15.609,-15.775L-8.752,-15.775L-4.967,-7.148L-4.967,-1.232L-3.076,0.248L0,-3.203Z" style="fill:rgb(164,230,157);fill-rule:nonzero;"/>
                </g>
            </g>
        </g>
        <g>
            <g opacity="0">
                <g transform="matrix(1,0,0,1,1039.26,777.76)">
                    <path d="M0,-3.203L-0.711,6.656L-8.988,6.901L-16.32,5.914L-8.043,10.106L-15.848,12.817L-18.922,10.106L-29.328,13.309L-34.059,10.846L-34.77,5.422L-37.844,10.106L-41.863,12.078L-47.541,12.322L-55.109,15.279L-62.441,15.279L-73.557,21.195L-81.125,18.979L-88.221,22.43L-102.412,18.485L-103.123,10.106L-100.284,6.901L-102.176,1.725L-101.466,-0.986L-103.831,-1.726L-108.8,8.133L-106.433,13.557L-114.711,13.557L-116.368,17.252L-121.098,13.803L-130.794,10.598L-132.686,13.557L-140.02,7.641L-139.546,6.162L-132.923,4.93L-128.902,1.971L-131.268,-6.654L-121.571,-16.019L-116.368,-19.963L-106.906,-15.525L-102.176,-12.814L-101.466,-6.408L-103.359,-3.203L-100.521,-3.203L-85.619,-12.076L-78.998,-9.611L-75.922,-7.392L-73.084,-6.898L-70.246,-9.859L-72.848,-14.049L-71.902,-20.947L-69.301,-24.152L-62.914,-20.455L-66.227,-10.844L-62.678,-4.682L-59.602,-3.697L-57.711,0.74L-51.797,4.684L-47.541,0.74L-44.939,-0.492L-40.445,0.248L-46.83,-4.682L-51.324,-3.943L-56.529,-9.611L-63.15,-15.033L-61.023,-21.935L-55.582,-25.633L-43.521,-22.428L-39.973,-16.019L-36.896,-12.814L-28.619,-17.006L-22.471,-15.281L-19.633,-12.57L-15.609,-15.775L-8.752,-15.775L-4.967,-7.148L-4.967,-1.232L-3.076,0.248L0,-3.203Z" style="fill:rgb(164,230,157);fill-rule:nonzero;stroke:rgb(51,51,51);stroke-width:1.43px;stroke-linecap:butt;stroke-miterlimit:4;"/>
                </g>
            </g>
        </g>
        <g id="Pulau-Buru" serif:id="Pulau Buru" transform="matrix(1,0,0,1,1327.24,565.102)">
            <path d="M0,-28.584L4.684,-25.795L12.711,-29.977L22.076,-30.674L30.104,-31.369L36.795,-28.584L40.807,-26.49L44.82,-23.006L44.15,-20.219L41.477,-20.219L42.145,-17.428L45.49,-17.428L49.504,-13.943L48.166,-11.156L46.828,-5.58L44.82,-4.184L38.801,-2.791L34.117,1.393L29.436,0.695L26.092,2.09L24.084,2.785L19.4,0.695L13.379,-2.092L8.695,-5.58L5.352,-9.064L3.346,-11.156L1.338,-13.943L-2.674,-17.428L-4.684,-22.309L0,-28.584Z" style="fill:rgb(164,230,157);fill-rule:nonzero;stroke:rgb(51,51,51);stroke-width:1.43px;stroke-linecap:butt;stroke-miterlimit:4;"/>
        </g>
        <g id="Maluku" transform="matrix(1,0,0,1,1400.16,555.34)">
            <path d="M0,-17.426L4.012,-9.76L4.682,-6.274L2.674,-4.182L2.674,0.697L4.682,-0.697L6.689,-6.971L9.363,-9.063L9.363,-14.639L12.039,-20.215L16.053,-16.729L16.723,-13.942L20.736,-11.153L24.75,-5.578L28.766,-3.485L36.121,-6.971L41.475,-13.244L41.475,-13.942L46.158,-14.639L48.834,-10.457L46.158,-8.363L51.508,-7.666L58.867,-5.578L65.557,-5.578L71.58,-2.789L72.246,-6.274L69.57,-10.457L87.633,-9.76L90.979,-2.789L103.689,3.484L115.063,9.76L123.088,14.64L126.434,12.547L125.098,7.67L126.434,2.789L125.766,-2.09L123.758,-5.578L119.074,-6.971L116.398,-9.063L116.398,-14.639L111.049,-20.215L107.035,-23.004L90.979,-24.399L82.949,-28.581L74.924,-30.67L68.234,-32.066L64.221,-32.066L59.537,-28.581L53.518,-26.489L49.502,-29.28L50.172,-32.066L45.488,-29.975L33.447,-30.67L25.418,-29.975L18.729,-28.581L14.715,-28.581L11.369,-27.884L11.369,-23.004L6.02,-19.52L0,-17.426Z" style="fill:rgb(164,230,157);fill-rule:nonzero;stroke:rgb(51,51,51);stroke-width:1.43px;stroke-linecap:butt;stroke-miterlimit:4;"/>
        </g>
        <g transform="matrix(1,0,0,1,1411.53,563.704)">
            <path d="M0,-6.967L8.029,-9.061L12.043,-9.758L8.699,-5.574L4.684,-4.879L8.029,-1.393L2.01,2.791L2.01,-2.088L-0.666,-1.393L-5.35,1.396L-8.695,0.002L-8.695,-2.785L0,-6.967Z" style="fill:rgb(164,230,157);fill-rule:nonzero;stroke:rgb(51,51,51);stroke-width:1.43px;stroke-linecap:butt;stroke-miterlimit:4;"/>
        </g>
        <g transform="matrix(1,0,0,1,1672.65,662.91)">
            <path d="M0,-8.875L-3.311,-10.846L-5.203,-12.322L-2.365,-13.803L0.945,-12.322L4.258,-20.211L7.568,-24.646L13.246,-24.646L14.191,-19.225L14.191,-15.775L16.555,-13.803L14.664,-8.381L17.029,-3.945L15.137,-2.959L10.408,-1.973L15.611,2.463L17.502,6.898L14.191,13.309L10.881,15.771L7.096,13.309L2.84,10.844L-2.365,6.406L-2.365,2.463L-2.365,-2.465L0,-8.875Z" style="fill:rgb(164,230,157);fill-rule:nonzero;stroke:rgb(51,51,51);stroke-width:1.43px;stroke-linecap:butt;stroke-miterlimit:4;"/>
        </g>
        <g transform="matrix(1,0,0,1,1659.88,677.205)">
            <path d="M0,19.221L6.621,26.617L14.664,17.744L20.34,11.83L17.029,5.422L10.406,0.987L8.986,-1.48L2.84,-7.396L1.893,-6.41L3.311,0L2.84,3.942L7.096,7.887L2.365,5.914L0,19.221Z" style="fill:rgb(164,230,157);fill-rule:nonzero;stroke:rgb(51,51,51);stroke-width:1.43px;stroke-linecap:butt;stroke-miterlimit:4;"/>
        </g>
        <g transform="matrix(1,0,0,1,1558.65,745.721)">
            <path d="M0,-28.098L4.258,-29.084L3.313,-32.041L0.947,-34.012L-2.365,-34.012L-3.783,-30.561L-9.459,-23.662L-10.879,-19.717L-16.555,-16.762L-18.449,-10.846L-17.975,-8.379L-20.34,-8.379L-18.92,-4.932L-23.178,-1.971L-20.813,0.984L-21.287,4.929L-14.664,3.943L-11.352,5.914L-11.824,-0.002L-6.148,-4.438L-5.676,-7.393L-1.418,-8.873L1.42,-13.801L2.838,-18.241L1.42,-23.662L0,-28.098Z" style="fill:rgb(164,230,157);fill-rule:nonzero;stroke:rgb(51,51,51);stroke-width:1.43px;stroke-linecap:butt;stroke-miterlimit:4;"/>
        </g>
        <g id="Pulau-Wetar" serif:id="Pulau Wetar" transform="matrix(1,0,0,1,1314.56,739.808)">
            <path d="M0,4.927L0.471,12.814L7.568,6.406L14.662,5.911L16.555,8.378L26.016,7.392L29.799,10.843L30.746,5.421L38.314,-0.003L43.045,0.982L43.045,-3.946L39.732,-4.44L33.584,-7.887L23.652,-2.96L19.867,-2.96L17.027,-1.973L7.568,-4.932L0,4.927Z" style="fill:rgb(164,230,157);fill-rule:nonzero;stroke:rgb(51,51,51);stroke-width:1.43px;stroke-linecap:butt;stroke-miterlimit:4;"/>
        </g>
        <g transform="matrix(1,0,0,1,1473.03,752.622)">
            <path d="M0,-10.844L7.568,-10.352L11.828,-6.903L10.408,-0.494L7.096,0L3.785,-0.987L1.893,-4.93L0,-6.903L0,-10.844Z" style="fill:rgb(164,230,157);fill-rule:nonzero;stroke:rgb(51,51,51);stroke-width:1.43px;stroke-linecap:butt;stroke-miterlimit:4;"/>
        </g>
        <g id="Maluku-Utara" serif:id="Maluku Utara" transform="matrix(1,0,0,1,1406.18,438.925)">
            <path d="M0,-133.842L-14.717,-117.809L-18.732,-108.747L-19.4,-102.473L-22.076,-94.805L-24.082,-90.623L-22.746,-88.53L-24.082,-82.954L-20.07,-82.954L-18.732,-76.681L-16.057,-73.195L-18.063,-69.71L-18.732,-64.83L-18.063,-59.252L-17.393,-55.071L-12.711,-51.585L-10.703,-43.917L-12.043,-34.157L-12.043,-29.975L-13.379,-26.489L-7.359,-23.7L-2.676,-20.913L1.336,-11.85L3.344,-6.971L11.373,-3.486L12.709,0L17.393,0L14.717,-4.183L8.027,-11.85L3.344,-18.821L-2.676,-34.855L-4.684,-39.037L-2.676,-46.008L-2.676,-50.888L-1.338,-59.252L6.689,-57.86L10.703,-54.373L19.398,-55.768L26.758,-50.888L32.779,-50.191L39.469,-47.403L35.455,-52.98L30.771,-53.676L28.766,-60.647L24.752,-63.436L14.049,-68.316L10.033,-71.104L10.033,-73.892L13.379,-74.589L15.387,-78.772L25.422,-82.954L30.102,-87.834L32.109,-96.896L30.771,-100.382L28.766,-106.655L24.082,-105.262L18.063,-103.867L11.373,-100.382L8.027,-94.805L6.689,-91.32L9.365,-89.229L6.02,-86.44L2.676,-87.136L-3.346,-82.954L-4.014,-76.681L-4.014,-72.497L-8.697,-72.497L-11.373,-75.286L-13.379,-77.378L-14.049,-80.863L-10.035,-86.44L-6.689,-88.53L0,-92.016L1.336,-96.896L2.676,-104.565L1.336,-112.233L0,-116.414L-5.354,-119.203L-5.354,-122.689L-1.338,-126.174L0,-133.842Z" style="fill:rgb(164,230,157);fill-rule:nonzero;stroke:rgb(51,51,51);stroke-width:1.43px;stroke-linecap:butt;stroke-miterlimit:4;"/>
        </g>
        <g transform="matrix(1,0,0,1,1416.21,294.627)">
            <path d="M0,7.667L1.34,13.941L2.01,17.427L7.359,17.427L14.719,15.336L16.725,10.456L18.732,2.787L20.068,-0.698L18.063,-4.184L16.725,-7.669L14.719,-9.76L12.713,-6.972L10.705,-4.881L6.021,-2.093L3.346,1.394L0,7.667Z" style="fill:rgb(164,230,157);fill-rule:nonzero;stroke:rgb(51,51,51);stroke-width:1.43px;stroke-linecap:butt;stroke-miterlimit:4;"/>
        </g>
        <g transform="matrix(1,0,0,1,1379.42,438.926)">
            <path d="M0,-23.005L6.689,-23.005L10.703,-23.701L14.717,-17.428L14.717,-13.943L12.043,-12.549L11.373,-8.365L16.057,-8.365L22.746,-6.972L23.414,-3.486L20.07,0.696L17.393,0.696L14.717,-2.789L12.043,-4.184L10.033,-4.184L8.027,-3.486L4.684,-5.577L4.014,-7.669L6.689,-9.76L2.678,-12.549L0,-15.336L-0.67,-18.125L0,-23.005Z" style="fill:rgb(164,230,157);fill-rule:nonzero;stroke:rgb(51,51,51);stroke-width:1.43px;stroke-linecap:butt;stroke-miterlimit:4;"/>
        </g>
        <g transform="matrix(1,0,0,1,1382.76,471.689)">
            <path d="M0,-7.668L10.037,-12.548L18.063,-9.062L25.422,-4.88L29.436,-1.395L32.111,0.698L28.766,4.184L24.086,3.485L21.408,2.091L18.063,3.485L14.719,2.789L12.043,2.091L6.689,4.88L-0.666,1.395L0,-7.668Z" style="fill:rgb(164,230,157);fill-rule:nonzero;stroke:rgb(51,51,51);stroke-width:1.43px;stroke-linecap:butt;stroke-miterlimit:4;"/>
        </g>
        <g transform="matrix(1,0,0,1,1297.14,482.146)">
            <path d="M0,-0.698L0.67,-4.183L6.021,-2.094L10.703,-2.789L14.049,-2.789L20.07,-2.094L26.09,-2.789L29.436,-2.789L34.117,-2.094L38.133,-2.094L38.133,0L35.455,1.393L32.779,1.393L28.096,2.089L24.752,3.485L21.406,2.786L16.725,2.786L13.381,2.089L10.033,2.089L8.027,2.786L4.014,2.786L0,-0.698Z" style="fill:rgb(164,230,157);fill-rule:nonzero;stroke:rgb(51,51,51);stroke-width:1.43px;stroke-linecap:butt;stroke-miterlimit:4;"/>
        </g>
        <g transform="matrix(1,0,0,1,1257.67,488.419)">
            <path d="M0,-15.336L4.014,-16.032L10.033,-16.032L14.717,-15.336L17.393,-13.941L20.07,-13.941L23.414,-12.547L26.09,-11.153L28.766,-10.456L30.104,-12.547L32.109,-11.851L33.449,-10.456L36.793,-9.76L36.793,-6.273L34.117,-5.575L29.434,-5.575L27.428,-4.184L25.42,-3.486L22.744,-2.788L20.736,-3.486L18.061,-3.486L16.055,-4.184L12.711,-2.788L10.033,-2.788L9.365,0L5.352,0.696L1.338,0.696L-1.338,-2.091L-4.016,-4.88L-4.016,-8.366L-2.008,-11.153L0,-15.336Z" style="fill:rgb(164,230,157);fill-rule:nonzero;stroke:rgb(51,51,51);stroke-width:1.43px;stroke-linecap:butt;stroke-miterlimit:4;"/>
        </g>
        <g transform="matrix(1,0,0,1,1855.24,770.862)">
            <path d="M0,-11.338L-2.838,-6.41L-5.678,-3.945L1.891,0L7.094,-0.988L0,-11.338Z" style="fill:rgb(164,230,157);fill-rule:nonzero;stroke:rgb(51,51,51);stroke-width:1.43px;stroke-linecap:butt;stroke-miterlimit:4;"/>
        </g>
        <g transform="matrix(1,0,0,1,1718.06,483.978)">
            <path d="M0,-13.308L2.365,-8.379L8.041,-7.886L12.299,-8.379L34.057,-0.492L37.369,-1.479L44.463,0L52.035,-1.969L59.602,-3.45L56.764,-6.901L48.25,-7.394L40.68,-7.886L31.691,-11.336L20.34,-10.351L11.352,-12.323L0,-13.308Z" style="fill:rgb(164,230,157);fill-rule:nonzero;stroke:rgb(51,51,51);stroke-width:1.43px;stroke-linecap:butt;stroke-miterlimit:4;"/>
        </g>
        <g transform="matrix(1,0,0,1,1730.83,448.981)">
            <path d="M0,-11.337L3.783,-2.957L3.783,1.972L7.568,5.423L9.934,3.451L15.137,5.915L22.232,4.437L26.963,1.479L21.76,-0.492L17.029,-3.45L13.717,-8.379L9.461,-12.322L4.73,-15.774L3.311,-17.252L0,-11.337Z" style="fill:rgb(164,230,157);fill-rule:nonzero;stroke:rgb(51,51,51);stroke-width:1.43px;stroke-linecap:butt;stroke-miterlimit:4;"/>
        </g>
        <g transform="matrix(1,0,0,1,1855.24,769.873)">
            <path d="M0,-46.336L-9.934,-45.35L-18.922,-43.377L-26.965,-36.969L-35.951,-25.139L-38.789,-17.746L-42.574,-10.844L-44.939,-1.479L-36.896,-2.957L-25.543,-1.479L-18.449,-0.492L-15.137,0L-6.15,-5.422L-2.365,-12.324L4.256,-15.279L8.041,-36.969L0,-46.336Z" style="fill:rgb(164,230,157);fill-rule:nonzero;stroke:rgb(51,51,51);stroke-width:1.43px;stroke-linecap:butt;stroke-miterlimit:4;"/>
        </g>
        <g transform="matrix(1,0,0,1,1517.5,456.376)">
            <path d="M0,-14.296L12.771,-16.76L17.975,-14.296L18.447,-7.888L16.557,-4.931L16.557,-0.987L14.191,2.464L9.459,2.464L6.148,-0.987L1.891,-6.409L1.891,-10.353L0,-14.296Z" style="fill:rgb(164,230,157);fill-rule:nonzero;stroke:rgb(51,51,51);stroke-width:1.43px;stroke-linecap:butt;stroke-miterlimit:4;"/>
        </g>
        <g transform="matrix(1,0,0,1,1519.86,416.942)">
            <path d="M0,-12.325L5.203,-6.409L5.203,-4.437L9.463,-3.945L10.408,-0.002L15.611,-0.002L19.396,-1.972L22.707,1.478L25.545,-2.959L25.545,-8.382L21.762,-10.352L18.922,-12.325L15.139,-12.325L5.678,-15.281L1.422,-14.789L-4.729,-14.296L-9.459,-12.325L-13.244,-12.325L-16.082,-11.831L-17.5,-8.382L-13.719,-10.846L-12.297,-6.409L-18.447,-7.394L-15.137,-3.945L-8.986,-3.945L-6.146,-0.987L-5.203,0.986L-1.418,-2.959L2.365,1.971L4.73,2.956L9.934,1.478L9.463,-1.48L6.15,-2.959L2.84,-2.959L0.947,-5.424L-1.891,-9.859L0,-12.325Z" style="fill:rgb(164,230,157);fill-rule:nonzero;stroke:rgb(51,51,51);stroke-width:1.43px;stroke-linecap:butt;stroke-miterlimit:4;"/>
        </g>
        <g transform="matrix(1,0,0,1,1481.07,484.471)">
            <path d="M0,-3.449L8.041,-4.928L10.406,-7.887L17.502,-8.379L21.76,-9.857L26.963,-7.887L27.436,-1.477L24.125,0.987L26.016,4.438L21.76,3.451L18.922,5.915L15.609,6.408L13.244,4.438L8.041,3.945L2.365,1.973L0,0L0,-3.449Z" style="fill:rgb(164,230,157);fill-rule:nonzero;stroke:rgb(51,51,51);stroke-width:1.43px;stroke-linecap:butt;stroke-miterlimit:4;"/>
        </g>
        <g transform="matrix(1,0,0,1,1241.24,808.811)">
            <path d="M0,0.004L9.459,7.889L12.299,0.988L17.975,6.904L22.705,0.988L25.543,-3.939L25.543,-7.885L22.705,-7.885L12.299,-4.926L7.568,-4.926L0,0.004Z" style="fill:rgb(164,230,157);fill-rule:nonzero;stroke:rgb(51,51,51);stroke-width:1.43px;stroke-linecap:butt;stroke-miterlimit:4;"/>
        </g>
    </g>
</svg>
